M48
;Layer_Color=9474304
;FILE_FORMAT=4:4
METRIC,LZ
T4F00S00C1.0000
%
G90
G05
T04
G00X00259265Y-00004521
M15
G01X00264603Y-00003176
G01X00269665Y-00001013
G01X00274326Y00001916
G01X00276927Y00004137
G01X00277033Y0000428
G01X00277045Y00004267
G01X00322112Y00045566
G01X00322111Y00045567
G01X00323691Y00046991
G01X0032773Y00051815
G01X00330965Y00057211
G01X00333315Y00063047
G01X00334724Y00069179
G01X00335156Y00075456
G01X00334601Y00081723
G01X00333073Y00087826
G01X00330608Y00093615
G01X00327269Y00098947
G01X00323136Y00103691
G01X00321981Y00104677
G01X00321917Y0010471
G01X00276927Y0014599
G01X00273691Y00148672
G01X00268966Y00151496
G01X00263857Y00153545
G01X0025849Y0015477
G01X00253783Y00155141
G01X00253262Y00155064
G01X00076344Y00155141
G01X00070862Y00154648
G01X00065524Y00153303
G01X00060462Y0015114
G01X00055801Y00148211
G01X000532Y0014599
G01X00053095Y00145847
G01X00053082Y0014586
G01X00008015Y00104561
G01X00008016Y0010456
G01X00006436Y00103136
G01X00002397Y00098312
G01X-00000838Y00092916
G01X-00003188Y0008708
G01X-00004597Y00080948
G01X-00005029Y00074671
G01X-00004474Y00068404
G01X-00002946Y00062301
G01X-00000481Y00056512
G01X00002858Y0005118
G01X00006991Y00046436
G01X00008146Y0004545
G01X0000821Y00045416
G01X000532Y00004137
G01X00056436Y00001455
G01X00061161Y-00001369
G01X0006627Y-00003418
G01X00071637Y-00004643
G01X00076344Y-00005014
G01X00076865Y-00004937
G01X00253783Y-00005014
G01X00259265Y-00004521
M16
M17
M30
