G04*
G04 #@! TF.GenerationSoftware,Altium Limited,Altium Designer,21.8.1 (53)*
G04*
G04 Layer_Physical_Order=4*
G04 Layer_Color=6736896*
%FSLAX44Y44*%
%MOMM*%
G71*
G04*
G04 #@! TF.SameCoordinates,C657CB42-8F9E-4DD2-80ED-FFB10F84DBA6*
G04*
G04*
G04 #@! TF.FilePolarity,Positive*
G04*
G01*
G75*
%ADD59C,2.1000*%
%ADD63C,1.7000*%
%ADD65C,3.0000*%
%ADD68C,1.5240*%
%ADD70C,0.6000*%
G36*
X326049Y1251495D02*
X324876Y1251009D01*
X323982Y1251903D01*
X321018Y1253614D01*
X317712Y1254500D01*
X314289D01*
X310982Y1253614D01*
X308018Y1251903D01*
X305597Y1249482D01*
X303886Y1246518D01*
X303000Y1243212D01*
Y1239789D01*
X303886Y1236482D01*
X305597Y1233518D01*
X308018Y1231097D01*
X310982Y1229386D01*
X314289Y1228500D01*
X317712D01*
X321018Y1229386D01*
X323982Y1231097D01*
X324876Y1231991D01*
X326049Y1231505D01*
Y1154995D01*
X324876Y1154509D01*
X323982Y1155403D01*
X321018Y1157114D01*
X317712Y1158000D01*
X314289D01*
X310982Y1157114D01*
X308018Y1155403D01*
X305597Y1152982D01*
X303886Y1150018D01*
X303000Y1146712D01*
Y1143288D01*
X303886Y1139982D01*
X305597Y1137018D01*
X308018Y1134597D01*
X310982Y1132886D01*
X314289Y1132000D01*
X317712D01*
X321018Y1132886D01*
X323982Y1134597D01*
X324876Y1135491D01*
X326049Y1135005D01*
Y1070924D01*
X325970Y1070732D01*
Y1068544D01*
X326049Y1068353D01*
Y1057169D01*
X325500Y1055844D01*
Y1053656D01*
X326049Y1052331D01*
Y1047212D01*
X326000Y1047094D01*
Y1044906D01*
X326049Y1044788D01*
Y1000799D01*
X315250Y990000D01*
X310250D01*
X277500Y957250D01*
Y872187D01*
X276230Y871213D01*
X274598Y871650D01*
X271702D01*
X268904Y870900D01*
X266396Y869452D01*
X264348Y867404D01*
X262900Y864896D01*
X262150Y862098D01*
Y859202D01*
X262900Y856404D01*
X264348Y853896D01*
X266396Y851848D01*
X268904Y850400D01*
X271702Y849650D01*
X274598D01*
X276230Y850087D01*
X277500Y849113D01*
Y846787D01*
X276230Y845813D01*
X274598Y846250D01*
X271702D01*
X268904Y845500D01*
X266396Y844052D01*
X264348Y842004D01*
X262900Y839496D01*
X262150Y836698D01*
Y833802D01*
X262900Y831004D01*
X264348Y828496D01*
X266396Y826448D01*
X268904Y825000D01*
X271040Y824427D01*
X271440Y823032D01*
X267658Y819250D01*
X211551D01*
X210483Y822539D01*
X208160Y827097D01*
X205153Y831236D01*
X201536Y834853D01*
X197397Y837860D01*
X192839Y840182D01*
X187974Y841763D01*
X182921Y842563D01*
X177806D01*
X172753Y841763D01*
X167888Y840182D01*
X163330Y837860D01*
X159191Y834853D01*
X155574Y831236D01*
X152567Y827097D01*
X150245Y822539D01*
X149176Y819250D01*
X124528D01*
X123865Y819913D01*
X121844Y820750D01*
X119656D01*
X117634Y819913D01*
X116972Y819250D01*
X76000D01*
X58250Y801500D01*
X42574D01*
X42048Y802770D01*
X42413Y803135D01*
X43250Y805156D01*
Y807344D01*
X42413Y809365D01*
X40866Y810913D01*
X38844Y811750D01*
X36656D01*
X34634Y810913D01*
X33087Y809365D01*
X32250Y807344D01*
Y805156D01*
X33087Y803135D01*
X33452Y802770D01*
X32926Y801500D01*
X23122D01*
Y1026064D01*
X23166Y1026064D01*
X22758Y1031242D01*
X21545Y1036293D01*
X19558Y1041092D01*
X16844Y1045520D01*
X14500Y1048264D01*
X13690Y1049213D01*
X12851Y1050140D01*
X10140Y1053313D01*
X7108Y1058261D01*
X4887Y1063624D01*
X3532Y1069267D01*
X3090Y1074888D01*
X3122Y1075053D01*
Y1167312D01*
X3299Y1168658D01*
X5319Y1177769D01*
X8126Y1186669D01*
X11697Y1195291D01*
X16006Y1203569D01*
X21020Y1211440D01*
X26702Y1218844D01*
X33006Y1225724D01*
X39887Y1232029D01*
X47291Y1237711D01*
X55162Y1242725D01*
X63439Y1247034D01*
X72062Y1250605D01*
X80962Y1253412D01*
X90073Y1255432D01*
X99326Y1256650D01*
X106691Y1256971D01*
X106691Y1256971D01*
Y1256971D01*
X106724Y1257005D01*
X326049D01*
Y1251495D01*
D02*
G37*
G36*
X630064Y1257005D02*
Y1257005D01*
X631299Y1256922D01*
X634280Y1256688D01*
X638393Y1255700D01*
X642301Y1254081D01*
X645908Y1251871D01*
X649124Y1249124D01*
X651871Y1245908D01*
X654082Y1242301D01*
X655700Y1238393D01*
X656688Y1234280D01*
X656921Y1231310D01*
X657005Y1230063D01*
X657005Y1230063D01*
X657005Y1228814D01*
X657005Y1161333D01*
X657005Y1160064D01*
X656922Y1158828D01*
X656688Y1155847D01*
X655700Y1151734D01*
X654081Y1147826D01*
X651871Y1144219D01*
X649124Y1141003D01*
X645908Y1138256D01*
X642301Y1136046D01*
X638393Y1134427D01*
X634280Y1133439D01*
X631310Y1133205D01*
X630064Y1133122D01*
X630064Y1133122D01*
X628814Y1133122D01*
X625214D01*
X625214Y1133122D01*
Y1133166D01*
X620035Y1132758D01*
X614984Y1131545D01*
X610186Y1129558D01*
X605757Y1126844D01*
X601807Y1123470D01*
X598433Y1119520D01*
X595719Y1115091D01*
X593732Y1110293D01*
X592519Y1105242D01*
X592112Y1100063D01*
X592155D01*
Y685950D01*
X592155Y685932D01*
X592155Y684685D01*
X592047Y683459D01*
X591842Y681377D01*
X590877Y678197D01*
X589311Y675266D01*
X587202Y672696D01*
X584633Y670588D01*
X581702Y669021D01*
X579249Y668277D01*
X578032Y668008D01*
D01*
X576802Y667759D01*
X575095Y667506D01*
X565278Y665047D01*
X555750Y661638D01*
X546601Y657311D01*
X544079Y655799D01*
X544043Y655792D01*
X543707Y655576D01*
X542597Y654981D01*
X542374Y654862D01*
X539033Y652120D01*
X537762Y652402D01*
Y801367D01*
X539033Y802215D01*
X540156Y801750D01*
X542344D01*
X544366Y802587D01*
X545913Y804135D01*
X546750Y806156D01*
Y808344D01*
X545913Y810366D01*
X544366Y811913D01*
X542344Y812750D01*
X540156D01*
X539033Y812285D01*
X537762Y813133D01*
Y1035367D01*
X539033Y1036215D01*
X540156Y1035750D01*
X542344D01*
X544366Y1036587D01*
X545913Y1038135D01*
X546750Y1040156D01*
Y1042344D01*
X545913Y1044365D01*
X544366Y1045913D01*
X542344Y1046750D01*
X540156D01*
X539033Y1046285D01*
X537762Y1047133D01*
Y1180350D01*
X537568Y1181326D01*
X537016Y1182152D01*
X536189Y1182705D01*
X535214Y1182899D01*
X447630D01*
X447104Y1184169D01*
X448303Y1185368D01*
X450014Y1188332D01*
X450900Y1191638D01*
Y1195061D01*
X450014Y1198368D01*
X448303Y1201332D01*
X445882Y1203753D01*
X442918Y1205464D01*
X439612Y1206350D01*
X436189D01*
X432882Y1205464D01*
X429918Y1203753D01*
X427497Y1201332D01*
X425786Y1198368D01*
X424900Y1195061D01*
Y1191638D01*
X425786Y1188332D01*
X427497Y1185368D01*
X428696Y1184169D01*
X428170Y1182899D01*
X411723D01*
X411197Y1184169D01*
X412163Y1185135D01*
X413000Y1187156D01*
Y1189344D01*
X412163Y1191365D01*
X411108Y1192420D01*
X410758Y1193250D01*
X411108Y1194080D01*
X412163Y1195135D01*
X413000Y1197156D01*
Y1199344D01*
X412163Y1201365D01*
X410616Y1202913D01*
X408594Y1203750D01*
X406406D01*
X404384Y1202913D01*
X403330Y1201858D01*
X402500Y1201508D01*
X401670Y1201858D01*
X400616Y1202913D01*
X398594Y1203750D01*
X396406D01*
X394384Y1202913D01*
X393330Y1201858D01*
X392500Y1201508D01*
X391670Y1201858D01*
X390616Y1202913D01*
X388594Y1203750D01*
X386406D01*
X384384Y1202913D01*
X382837Y1201366D01*
X382000Y1199344D01*
Y1197156D01*
X382837Y1195135D01*
X383892Y1194080D01*
X384242Y1193250D01*
X383892Y1192420D01*
X382837Y1191366D01*
X382000Y1189344D01*
Y1187156D01*
X382837Y1185135D01*
X384384Y1183587D01*
X386406Y1182750D01*
X388594D01*
X390616Y1183587D01*
X391670Y1184642D01*
X392500Y1184992D01*
X393330Y1184642D01*
X394384Y1183587D01*
X396406Y1182750D01*
X398594D01*
X400616Y1183587D01*
X401670Y1184642D01*
X402500Y1184992D01*
X403330Y1184642D01*
X404204Y1183768D01*
X404291Y1182778D01*
X404232Y1182276D01*
X404048Y1182152D01*
X369198Y1147302D01*
X368645Y1146475D01*
X368451Y1145500D01*
X368451Y1016636D01*
Y992056D01*
X325197Y948802D01*
X324645Y947975D01*
X324451Y947000D01*
X324451Y912000D01*
X324645Y911024D01*
X325198Y910197D01*
X329951Y905444D01*
Y881897D01*
X329384Y881663D01*
X327837Y880116D01*
X327000Y878094D01*
Y875906D01*
X327837Y873885D01*
X329384Y872337D01*
X329951Y872103D01*
Y870854D01*
X328885Y870413D01*
X327337Y868866D01*
X326500Y866844D01*
Y864656D01*
X327337Y862635D01*
X328885Y861087D01*
X329951Y860646D01*
Y857354D01*
X328885Y856913D01*
X327337Y855366D01*
X326500Y853344D01*
Y851156D01*
X327337Y849135D01*
X328885Y847587D01*
X329951Y847146D01*
Y832501D01*
X329134Y832163D01*
X327587Y830615D01*
X326750Y828594D01*
Y826406D01*
X327587Y824385D01*
X329134Y822837D01*
X329951Y822499D01*
X329951Y641637D01*
X329984Y641473D01*
X329973Y641305D01*
X330080Y640989D01*
X330145Y640662D01*
X329140Y639881D01*
X328918Y639753D01*
X326497Y637332D01*
X324786Y634368D01*
X324520Y633375D01*
X323250Y633543D01*
Y635094D01*
X322413Y637116D01*
X320866Y638663D01*
X318844Y639500D01*
X316656D01*
X314634Y638663D01*
X313087Y637116D01*
X312250Y635094D01*
Y634664D01*
X311194Y633959D01*
X311094Y634000D01*
X308906D01*
X308806Y633959D01*
X307750Y634664D01*
Y635094D01*
X306913Y637116D01*
X305366Y638663D01*
X303344Y639500D01*
X301156D01*
X299135Y638663D01*
X297587Y637116D01*
X296750Y635094D01*
Y634664D01*
X295694Y633959D01*
X295594Y634000D01*
X293406D01*
X293306Y633959D01*
X292250Y634664D01*
Y635094D01*
X291413Y637116D01*
X289865Y638663D01*
X287844Y639500D01*
X285656D01*
X283634Y638663D01*
X282087Y637116D01*
X281250Y635094D01*
Y634664D01*
X280194Y633959D01*
X280094Y634000D01*
X277906D01*
X277806Y633959D01*
X276750Y634664D01*
Y635094D01*
X275913Y637116D01*
X274366Y638663D01*
X272344Y639500D01*
X270156D01*
X268134Y638663D01*
X266587Y637116D01*
X265750Y635094D01*
Y634664D01*
X264694Y633959D01*
X264594Y634000D01*
X262406D01*
X262306Y633959D01*
X261250Y634664D01*
Y635094D01*
X260413Y637116D01*
X258866Y638663D01*
X256844Y639500D01*
X254656D01*
X252635Y638663D01*
X251087Y637116D01*
X250250Y635094D01*
Y634664D01*
X249194Y633959D01*
X249094Y634000D01*
X246906D01*
X246806Y633959D01*
X245750Y634664D01*
Y635094D01*
X244913Y637116D01*
X243365Y638663D01*
X241344Y639500D01*
X239156D01*
X237134Y638663D01*
X235587Y637116D01*
X234750Y635094D01*
Y634664D01*
X233694Y633959D01*
X233594Y634000D01*
X231406D01*
X229384Y633163D01*
X227837Y631615D01*
X227000Y629594D01*
Y627406D01*
X227837Y625384D01*
X229384Y623837D01*
X231406Y623000D01*
X233594D01*
X235616Y623837D01*
X237163Y625384D01*
X238000Y627406D01*
Y627836D01*
X239056Y628541D01*
X239156Y628500D01*
X241344D01*
X241444Y628541D01*
X242500Y627836D01*
Y627406D01*
X243337Y625384D01*
X244884Y623837D01*
X246906Y623000D01*
X249094D01*
X251115Y623837D01*
X252663Y625384D01*
X253500Y627406D01*
Y627836D01*
X254556Y628541D01*
X254656Y628500D01*
X256844D01*
X256944Y628541D01*
X258000Y627836D01*
Y627406D01*
X258837Y625384D01*
X260385Y623837D01*
X262406Y623000D01*
X264594D01*
X266616Y623837D01*
X268163Y625384D01*
X269000Y627406D01*
Y627836D01*
X270056Y628541D01*
X270156Y628500D01*
X272344D01*
X272444Y628541D01*
X273500Y627836D01*
Y627406D01*
X274337Y625384D01*
X275884Y623837D01*
X277906Y623000D01*
X280094D01*
X282115Y623837D01*
X283663Y625384D01*
X284500Y627406D01*
Y627836D01*
X285556Y628541D01*
X285656Y628500D01*
X287844D01*
X287944Y628541D01*
X289000Y627836D01*
Y627406D01*
X289837Y625384D01*
X291385Y623837D01*
X293406Y623000D01*
X295594D01*
X297616Y623837D01*
X299163Y625384D01*
X300000Y627406D01*
Y627836D01*
X301056Y628541D01*
X301156Y628500D01*
X303344D01*
X303444Y628541D01*
X304500Y627836D01*
Y627406D01*
X305337Y625384D01*
X306884Y623837D01*
X308906Y623000D01*
X311094D01*
X313116Y623837D01*
X314663Y625384D01*
X315500Y627406D01*
Y627836D01*
X316556Y628541D01*
X316656Y628500D01*
X318844D01*
X320866Y629337D01*
X322413Y630885D01*
X322767Y631740D01*
X323972Y631331D01*
X323900Y631062D01*
Y627639D01*
X324786Y624332D01*
X326497Y621368D01*
X328918Y618947D01*
X329140Y618819D01*
X330145Y618038D01*
X330080Y617711D01*
X329973Y617395D01*
X329984Y617228D01*
X329951Y617062D01*
X329951Y545137D01*
X329984Y544972D01*
X329973Y544805D01*
X330080Y544489D01*
X330145Y544162D01*
X329140Y543381D01*
X328918Y543253D01*
X326497Y540832D01*
X324786Y537868D01*
X323900Y534562D01*
Y531138D01*
X324786Y527832D01*
X326497Y524868D01*
X328918Y522447D01*
X329140Y522319D01*
X330145Y521538D01*
X330080Y521211D01*
X329973Y520895D01*
X329984Y520728D01*
X329951Y520563D01*
Y488172D01*
X330145Y487196D01*
X330698Y486369D01*
X350378Y466689D01*
X351205Y466137D01*
X352180Y465943D01*
X353156Y466137D01*
X354425Y466663D01*
X354471Y466649D01*
X354787Y465885D01*
X356334Y464338D01*
X356641Y462836D01*
X356587Y462706D01*
X356393Y461730D01*
X356587Y460755D01*
X357140Y459928D01*
X368451Y448616D01*
X368451Y401306D01*
X365266Y398121D01*
X363501Y398152D01*
X362778Y398875D01*
X360756Y399712D01*
X358568D01*
X356547Y398875D01*
X355000Y397328D01*
X354162Y395306D01*
Y393118D01*
X355000Y391097D01*
X355723Y390374D01*
X355754Y388608D01*
X341198Y374052D01*
X340645Y373225D01*
X340451Y372250D01*
X340451Y287127D01*
X340645Y286151D01*
X341198Y285324D01*
X348546Y277976D01*
X348334Y276912D01*
X348099Y276627D01*
X346587Y275116D01*
X345750Y273094D01*
Y270906D01*
X346587Y268885D01*
X347597Y267875D01*
X346587Y266866D01*
X345750Y264844D01*
Y262656D01*
X346587Y260634D01*
X347597Y259625D01*
X346587Y258615D01*
X345750Y256594D01*
Y254406D01*
X346587Y252384D01*
X348134Y250837D01*
X350156Y250000D01*
X352344D01*
X354366Y250837D01*
X354480Y250952D01*
X355750Y250426D01*
Y248906D01*
X356587Y246884D01*
X358134Y245337D01*
X360156Y244500D01*
X362344D01*
X364366Y245337D01*
X365913Y246884D01*
X366750Y248906D01*
Y251094D01*
X365913Y253116D01*
X364366Y254663D01*
X362344Y255500D01*
X360156D01*
X358134Y254663D01*
X358020Y254548D01*
X356750Y255074D01*
Y256594D01*
X355913Y258615D01*
X354903Y259625D01*
X355913Y260634D01*
X356750Y262656D01*
Y264844D01*
X355913Y266866D01*
X354903Y267875D01*
X355913Y268885D01*
X355980Y269048D01*
X357226Y269296D01*
X368451Y258071D01*
Y176500D01*
X368645Y175525D01*
X369198Y174698D01*
X392198Y151698D01*
X393024Y151145D01*
X394000Y150951D01*
X521250D01*
X522225Y151145D01*
X523052Y151698D01*
X537016Y165661D01*
X537568Y166488D01*
X537762Y167463D01*
Y189413D01*
X539033Y189939D01*
X540135Y188837D01*
X542156Y188000D01*
X544344D01*
X546366Y188837D01*
X547913Y190385D01*
X548750Y192406D01*
Y194594D01*
X547913Y196616D01*
X546366Y198163D01*
X544344Y199000D01*
X542156D01*
X540135Y198163D01*
X539033Y197061D01*
X537762Y197587D01*
Y206432D01*
X537568Y207408D01*
X537016Y208235D01*
X536189Y208787D01*
X534919Y209313D01*
X534744Y209641D01*
X534750Y209656D01*
Y211844D01*
X533913Y213866D01*
X532903Y214875D01*
X533913Y215884D01*
X534750Y217906D01*
Y220094D01*
X533913Y222115D01*
X532365Y223663D01*
X530344Y224500D01*
X528332D01*
X527663Y226115D01*
X526778Y227000D01*
X527663Y227885D01*
X528500Y229906D01*
Y232094D01*
X527663Y234116D01*
X526778Y235000D01*
X527663Y235884D01*
X528332Y237500D01*
X530344D01*
X532365Y238337D01*
X533913Y239884D01*
X534750Y241906D01*
Y244094D01*
X533913Y246115D01*
X532903Y247125D01*
X533913Y248134D01*
X534750Y250156D01*
Y252344D01*
X534744Y252359D01*
X534919Y252687D01*
X536189Y253213D01*
X537016Y253766D01*
X537568Y254592D01*
X537762Y255568D01*
Y371163D01*
X539033Y371689D01*
X540135Y370587D01*
X542156Y369750D01*
X544344D01*
X546366Y370587D01*
X547913Y372135D01*
X548750Y374156D01*
Y376344D01*
X547913Y378366D01*
X546366Y379913D01*
X544344Y380750D01*
X542156D01*
X540135Y379913D01*
X539033Y378811D01*
X537762Y379337D01*
Y507325D01*
X539033Y507607D01*
X542374Y504865D01*
X542601Y504743D01*
X543707Y504151D01*
X544043Y503935D01*
X544079Y503928D01*
X546601Y502416D01*
X555750Y498089D01*
X565278Y494680D01*
X575095Y492221D01*
X576802Y491968D01*
X578032Y491719D01*
D01*
X579249Y491450D01*
X581702Y490706D01*
X584633Y489139D01*
X587202Y487031D01*
X589311Y484461D01*
X590877Y481530D01*
X591842Y478350D01*
X592046Y476278D01*
X592155Y475042D01*
X592155Y475042D01*
X592155Y473794D01*
Y160063D01*
X592112D01*
X592519Y154885D01*
X593732Y149834D01*
X595719Y145035D01*
X598433Y140607D01*
X601807Y136657D01*
X605757Y133283D01*
X610186Y130569D01*
X614984Y128582D01*
X620035Y127369D01*
X625214Y126961D01*
Y127005D01*
X628800D01*
X628814Y127005D01*
X630064Y127005D01*
X631299Y126922D01*
X634280Y126688D01*
X638393Y125700D01*
X642301Y124081D01*
X645908Y121871D01*
X649124Y119124D01*
X651871Y115908D01*
X654082Y112301D01*
X655700Y108393D01*
X656688Y104280D01*
X656921Y101309D01*
X657005Y100063D01*
X657005Y100063D01*
X657005Y98814D01*
X657005Y31333D01*
X657005Y30064D01*
X656922Y28828D01*
X656688Y25847D01*
X655700Y21734D01*
X654081Y17826D01*
X651871Y14219D01*
X649124Y11003D01*
X645908Y8256D01*
X642301Y6045D01*
X638393Y4427D01*
X634280Y3439D01*
X630117Y3112D01*
X630064Y3122D01*
X315799D01*
Y34388D01*
X316972Y34875D01*
X317010Y34837D01*
X319031Y34000D01*
X321219D01*
X323241Y34837D01*
X324788Y36384D01*
X325625Y38406D01*
Y40594D01*
X324788Y42615D01*
X323241Y44163D01*
X321219Y45000D01*
X319031D01*
X318833Y45132D01*
Y45312D01*
X320048Y46500D01*
X321219D01*
X323241Y47337D01*
X324788Y48885D01*
X325625Y50906D01*
Y53094D01*
X324788Y55115D01*
X323241Y56663D01*
X321219Y57500D01*
X319031D01*
X317010Y56663D01*
X316972Y56625D01*
X315799Y57112D01*
X315799Y221250D01*
X315605Y222225D01*
X315052Y223052D01*
X291049Y247056D01*
X291049Y424000D01*
X290855Y424975D01*
X290302Y425802D01*
X276302Y439802D01*
X275476Y440355D01*
X274500Y440549D01*
X273686D01*
X273051Y441649D01*
X273400Y442254D01*
X274150Y445052D01*
Y447948D01*
X273400Y450746D01*
X271952Y453254D01*
X269904Y455302D01*
X267396Y456750D01*
X264598Y457500D01*
X261702D01*
X258904Y456750D01*
X256396Y455302D01*
X254348Y453254D01*
X252900Y450746D01*
X252150Y447948D01*
Y445052D01*
X252900Y442254D01*
X253249Y441649D01*
X252614Y440549D01*
X248286D01*
X247651Y441649D01*
X248000Y442254D01*
X248750Y445052D01*
Y447948D01*
X248000Y450746D01*
X246552Y453254D01*
X244504Y455302D01*
X241996Y456750D01*
X239198Y457500D01*
X236302D01*
X233504Y456750D01*
X230996Y455302D01*
X228948Y453254D01*
X227500Y450746D01*
X226750Y447948D01*
Y445052D01*
X227500Y442254D01*
X227849Y441649D01*
X227214Y440549D01*
X226750D01*
X225775Y440355D01*
X224948Y439802D01*
X211698Y426552D01*
X211145Y425726D01*
X210951Y424750D01*
X210951Y300799D01*
X204074D01*
X203099Y300605D01*
X202272Y300052D01*
X201719Y299226D01*
X201283Y298172D01*
X201094Y298250D01*
X198906D01*
X198717Y298172D01*
X198281Y299226D01*
X197728Y300052D01*
X196901Y300605D01*
X195926Y300799D01*
X168306D01*
X90916Y378189D01*
X90610Y378393D01*
X90327Y378628D01*
X90200Y378668D01*
X90089Y378742D01*
X89799Y378799D01*
X89742Y379089D01*
X89668Y379200D01*
X89628Y379327D01*
X89393Y379610D01*
X89189Y379916D01*
X66066Y403038D01*
X65250Y403584D01*
Y405594D01*
X64413Y407616D01*
X63528Y408500D01*
X64413Y409384D01*
X65250Y411406D01*
Y413594D01*
X64413Y415616D01*
X62866Y417163D01*
X60844Y418000D01*
X59483D01*
X58656Y418000D01*
X58299Y419173D01*
X58299Y452500D01*
X58105Y453475D01*
X57552Y454302D01*
X50544Y461311D01*
X50791Y462557D01*
X50866Y462587D01*
X52413Y464134D01*
X53250Y466156D01*
Y468344D01*
X52413Y470365D01*
X50866Y471913D01*
X48844Y472750D01*
X46656D01*
X44634Y471913D01*
X43087Y470365D01*
X43057Y470291D01*
X41811Y470044D01*
X39552Y472302D01*
X38725Y472855D01*
X37750Y473049D01*
X23122D01*
Y798951D01*
X32926D01*
X33901Y799145D01*
X34728Y799698D01*
X35281Y800525D01*
X35562Y801203D01*
X36656Y800750D01*
X38844D01*
X39938Y801203D01*
X40219Y800525D01*
X40772Y799698D01*
X41599Y799145D01*
X42574Y798951D01*
X58250D01*
X59226Y799145D01*
X60052Y799698D01*
X77056Y816701D01*
X115012D01*
X115250Y816344D01*
Y814156D01*
X116087Y812134D01*
X117634Y810587D01*
X119656Y809750D01*
X121844D01*
X123865Y810587D01*
X125413Y812134D01*
X126250Y814156D01*
Y816344D01*
X126489Y816701D01*
X147532D01*
X148357Y815735D01*
X147864Y812621D01*
Y807506D01*
X148664Y802453D01*
X150245Y797588D01*
X152567Y793030D01*
X155574Y788891D01*
X159191Y785274D01*
X163330Y782267D01*
X167888Y779945D01*
X172753Y778364D01*
X177806Y777563D01*
X182921D01*
X187974Y778364D01*
X192839Y779945D01*
X197397Y782267D01*
X201536Y785274D01*
X205153Y788891D01*
X208160Y793030D01*
X210483Y797588D01*
X212063Y802453D01*
X212864Y807506D01*
Y812621D01*
X212370Y815735D01*
X213195Y816701D01*
X267658D01*
X268633Y816895D01*
X269460Y817448D01*
X273242Y821230D01*
X273440Y821525D01*
X273670Y821797D01*
X273714Y821936D01*
X273795Y822057D01*
X273864Y822406D01*
X273973Y822745D01*
X273961Y822889D01*
X273989Y823032D01*
X274513Y824080D01*
X275030Y824366D01*
X277396Y825000D01*
X279904Y826448D01*
X281952Y828496D01*
X283400Y831004D01*
X284150Y833802D01*
Y836698D01*
X283400Y839496D01*
X281952Y842004D01*
X280016Y843941D01*
X279868Y844157D01*
X279784Y844401D01*
X279708Y845513D01*
X279762Y845672D01*
X279855Y845812D01*
X279920Y846139D01*
X280027Y846454D01*
X280016Y846622D01*
X280049Y846787D01*
Y849113D01*
X280016Y849278D01*
X280027Y849445D01*
X279920Y849761D01*
X279855Y850088D01*
X279762Y850228D01*
X279708Y850387D01*
X279784Y851499D01*
X279868Y851743D01*
X280016Y851959D01*
X281952Y853896D01*
X283400Y856404D01*
X284150Y859202D01*
Y862098D01*
X283400Y864896D01*
X281952Y867404D01*
X280016Y869341D01*
X279868Y869557D01*
X279784Y869801D01*
X279708Y870913D01*
X279762Y871072D01*
X279855Y871212D01*
X279920Y871539D01*
X280027Y871854D01*
X280016Y872022D01*
X280049Y872187D01*
Y956194D01*
X311306Y987451D01*
X315250D01*
X316225Y987645D01*
X317052Y988198D01*
X327851Y998997D01*
X328404Y999824D01*
X328598Y1000799D01*
Y1010215D01*
X329868Y1010887D01*
X331406Y1010250D01*
X333594D01*
X335616Y1011087D01*
X337163Y1012635D01*
X338000Y1014656D01*
Y1016844D01*
X337163Y1018866D01*
X335616Y1020413D01*
X333594Y1021250D01*
X331406D01*
X329868Y1020613D01*
X328598Y1021285D01*
Y1040106D01*
X329654Y1040811D01*
X330406Y1040500D01*
X332594D01*
X334616Y1041337D01*
X336163Y1042885D01*
X337000Y1044906D01*
Y1045563D01*
X338270Y1046324D01*
X339656Y1045750D01*
X341844D01*
X343866Y1046587D01*
X345413Y1048135D01*
X346250Y1050156D01*
Y1052344D01*
X345413Y1054365D01*
X343866Y1055913D01*
X341844Y1056750D01*
X339656D01*
X337726Y1055950D01*
X337563Y1055936D01*
X336286Y1056360D01*
X335663Y1057866D01*
X334115Y1059413D01*
X332094Y1060250D01*
X329906D01*
X329654Y1060146D01*
X328598Y1060851D01*
Y1068353D01*
X328519Y1068752D01*
Y1070525D01*
X328598Y1070924D01*
Y1094964D01*
X329771Y1095450D01*
X329884Y1095337D01*
X331906Y1094500D01*
X334094D01*
X336115Y1095337D01*
X337663Y1096884D01*
X338500Y1098906D01*
Y1101094D01*
X337663Y1103115D01*
X336778Y1104000D01*
X337663Y1104884D01*
X338500Y1106906D01*
Y1109094D01*
X337663Y1111115D01*
X336778Y1112000D01*
X337663Y1112885D01*
X338500Y1114906D01*
Y1117094D01*
X337663Y1119116D01*
X336115Y1120663D01*
X334094Y1121500D01*
X331906D01*
X329884Y1120663D01*
X329771Y1120549D01*
X328598Y1121035D01*
Y1135005D01*
X328404Y1135980D01*
X327851Y1136807D01*
X327024Y1137360D01*
X326867Y1137823D01*
X328114Y1139982D01*
X329000Y1143288D01*
Y1146712D01*
X328114Y1150018D01*
X326867Y1152177D01*
X327024Y1152640D01*
X327851Y1153193D01*
X328404Y1154020D01*
X328598Y1154995D01*
Y1231505D01*
X328404Y1232480D01*
X327851Y1233307D01*
X327024Y1233860D01*
X326867Y1234323D01*
X328114Y1236482D01*
X329000Y1239789D01*
Y1243212D01*
X328114Y1246518D01*
X326867Y1248677D01*
X327024Y1249140D01*
X327851Y1249693D01*
X328404Y1250520D01*
X328598Y1251495D01*
Y1257005D01*
X628814D01*
X630064Y1257005D01*
D02*
G37*
G36*
X535214Y644898D02*
X534790Y644105D01*
X533532Y639958D01*
X533107Y635645D01*
X533174D01*
Y524081D01*
X533107D01*
X533532Y519769D01*
X534790Y515622D01*
X535214Y514829D01*
Y255568D01*
X533943Y255042D01*
X532649Y256337D01*
X530443Y257250D01*
X528562D01*
X528087Y258399D01*
X526399Y260087D01*
X524193Y261000D01*
X521806D01*
X519601Y260087D01*
X517913Y258399D01*
X517000Y256194D01*
Y253806D01*
X517913Y251601D01*
X518515Y251000D01*
X517913Y250399D01*
X517000Y248193D01*
Y245807D01*
X517913Y243601D01*
X518515Y243000D01*
X517913Y242399D01*
X517000Y240194D01*
Y237806D01*
X517913Y235601D01*
X519601Y233913D01*
X519120Y232738D01*
X518750Y231845D01*
Y230155D01*
X519120Y229262D01*
X519395Y228589D01*
X518854Y227339D01*
X517913Y226399D01*
X517000Y224193D01*
Y221807D01*
X517913Y219601D01*
X518640Y218875D01*
X518163Y218399D01*
X517250Y216194D01*
Y213806D01*
X518163Y211601D01*
X518640Y211125D01*
X517913Y210399D01*
X517000Y208193D01*
Y205807D01*
X517913Y203601D01*
X519601Y201914D01*
X521806Y201000D01*
X524193D01*
X526399Y201914D01*
X528087Y203601D01*
X528562Y204750D01*
X530443D01*
X532649Y205663D01*
X533943Y206958D01*
X535214Y206432D01*
Y167463D01*
X521250Y153500D01*
X394000D01*
X371000Y176500D01*
Y259127D01*
X343000Y287127D01*
X343000Y372250D01*
X358962Y388212D01*
X360856D01*
X363061Y389126D01*
X364749Y390814D01*
X365662Y393019D01*
Y394912D01*
X371000Y400250D01*
X371000Y449672D01*
X358942Y461730D01*
X359468Y463000D01*
X360644D01*
X362849Y463913D01*
X364537Y465601D01*
X365450Y467807D01*
Y470193D01*
X364537Y472399D01*
X362849Y474087D01*
X360644Y475000D01*
X358257D01*
X356051Y474087D01*
X354364Y472399D01*
X353450Y470193D01*
Y469018D01*
X352180Y468492D01*
X332500Y488172D01*
Y520563D01*
X333508Y521336D01*
X335320Y520850D01*
X338480D01*
X341532Y521668D01*
X344268Y523248D01*
X346502Y525482D01*
X348082Y528218D01*
X348900Y531270D01*
Y534430D01*
X348082Y537482D01*
X346502Y540218D01*
X344268Y542452D01*
X341532Y544032D01*
X338480Y544850D01*
X335320D01*
X333508Y544364D01*
X332500Y545137D01*
X332500Y617062D01*
X333508Y617836D01*
X335320Y617350D01*
X338480D01*
X341532Y618168D01*
X344268Y619748D01*
X346502Y621982D01*
X348082Y624718D01*
X348900Y627770D01*
Y630930D01*
X348082Y633982D01*
X346502Y636718D01*
X344268Y638952D01*
X341532Y640532D01*
X338480Y641350D01*
X335320D01*
X333508Y640864D01*
X332500Y641637D01*
X332500Y823250D01*
X333095D01*
X334657Y823897D01*
X335853Y825093D01*
X336500Y826655D01*
Y828345D01*
X335853Y829907D01*
X334657Y831103D01*
X333095Y831750D01*
X332500D01*
Y848000D01*
X332845D01*
X334407Y848647D01*
X335078Y849317D01*
X336554Y849072D01*
X337163Y847601D01*
X338851Y845913D01*
X341057Y845000D01*
X343443D01*
X345649Y845913D01*
X347337Y847601D01*
X348250Y849807D01*
Y852194D01*
X347337Y854399D01*
X345649Y856087D01*
X343443Y857000D01*
X341057D01*
X338851Y856087D01*
X337163Y854399D01*
X337124Y854304D01*
X335750D01*
X335603Y854657D01*
X334407Y855853D01*
X332845Y856500D01*
X332500D01*
Y861500D01*
X332845D01*
X334407Y862147D01*
X335603Y863343D01*
X336250Y864905D01*
Y866595D01*
X335603Y868157D01*
X334407Y869353D01*
X332845Y870000D01*
X332500D01*
Y872750D01*
X333345D01*
X334907Y873397D01*
X336103Y874593D01*
X336750Y876155D01*
Y877845D01*
X336103Y879407D01*
X334907Y880603D01*
X333345Y881250D01*
X332500D01*
Y906500D01*
X327000Y912000D01*
X327000Y947000D01*
X371000Y991000D01*
Y1016636D01*
X371000Y1145500D01*
X405850Y1180350D01*
X535214D01*
Y644898D01*
D02*
G37*
G36*
X42360Y465890D02*
X43087Y464134D01*
X44634Y462587D01*
X46390Y461860D01*
X55750Y452500D01*
X55750Y417938D01*
X54480Y417322D01*
X52844Y418000D01*
X50656D01*
X48635Y417163D01*
X47087Y415616D01*
X46250Y413594D01*
Y411406D01*
X47087Y409384D01*
X47972Y408500D01*
X47087Y407616D01*
X46250Y405594D01*
Y403406D01*
X47087Y401385D01*
X48635Y399837D01*
X50656Y399000D01*
X52844D01*
X54865Y399837D01*
X55750Y400722D01*
X56634Y399837D01*
X58656Y399000D01*
X60844D01*
X62866Y399837D01*
X64264Y401236D01*
X87387Y378113D01*
X86615Y377163D01*
X84594Y378000D01*
X82406D01*
X80385Y377163D01*
X78837Y375616D01*
X78000Y373594D01*
Y371406D01*
X78837Y369384D01*
X80385Y367837D01*
X82406Y367000D01*
X84594D01*
X86615Y367837D01*
X88163Y369384D01*
X89000Y371406D01*
Y373594D01*
X88163Y375616D01*
X89113Y376387D01*
X167250Y298250D01*
X195926D01*
X196452Y296980D01*
X195337Y295865D01*
X194500Y293844D01*
Y291656D01*
X195337Y289634D01*
X196884Y288087D01*
X198906Y287250D01*
X201094D01*
X203116Y288087D01*
X204663Y289634D01*
X205500Y291656D01*
Y293844D01*
X204663Y295865D01*
X203548Y296980D01*
X204074Y298250D01*
X213500D01*
X213500Y424750D01*
X226750Y438000D01*
X230694D01*
X230996Y437698D01*
X233504Y436250D01*
X236302Y435500D01*
X239198D01*
X241996Y436250D01*
X244504Y437698D01*
X244806Y438000D01*
X256094D01*
X256396Y437698D01*
X258904Y436250D01*
X261702Y435500D01*
X264598D01*
X267396Y436250D01*
X269904Y437698D01*
X270206Y438000D01*
X274500D01*
X288500Y424000D01*
X288500Y246000D01*
X313250Y221250D01*
X313250Y51725D01*
X313145Y51695D01*
X311875Y52657D01*
Y53094D01*
X311038Y55115D01*
X309491Y56663D01*
X307469Y57500D01*
X305281D01*
X303260Y56663D01*
X301712Y55115D01*
X300875Y53094D01*
Y50906D01*
X301712Y48885D01*
X303260Y47337D01*
X305281Y46500D01*
X307469D01*
X307667Y46368D01*
Y46188D01*
X306452Y45000D01*
X305281D01*
X303260Y44163D01*
X301712Y42615D01*
X300875Y40594D01*
Y38406D01*
X301712Y36384D01*
X303260Y34837D01*
X305281Y34000D01*
X307469D01*
X309491Y34837D01*
X311038Y36384D01*
X311875Y38406D01*
Y38843D01*
X313145Y39805D01*
X313250Y39775D01*
Y3122D01*
X106724D01*
X106691Y3156D01*
X106691Y3156D01*
X106691Y3156D01*
X99326Y3477D01*
X90073Y4695D01*
X80962Y6715D01*
X72062Y9522D01*
X63439Y13093D01*
X55162Y17402D01*
X47291Y22416D01*
X39887Y28098D01*
X33006Y34402D01*
X26702Y41283D01*
X21020Y48687D01*
X16006Y56558D01*
X11697Y64836D01*
X8126Y73457D01*
X5319Y82358D01*
X3299Y91469D01*
X3122Y92815D01*
Y185074D01*
X3090Y185239D01*
X3532Y190860D01*
X4887Y196503D01*
X7108Y201865D01*
X10140Y206814D01*
X12851Y209987D01*
X13690Y210914D01*
X13690Y210914D01*
X16844Y214607D01*
X19558Y219035D01*
X21545Y223834D01*
X22758Y228885D01*
X23166Y234063D01*
X23122Y234063D01*
Y470500D01*
X37750D01*
X42360Y465890D01*
D02*
G37*
%LPC*%
G36*
X248844Y1250875D02*
X246656D01*
X244634Y1250038D01*
X243087Y1248491D01*
X242250Y1246469D01*
Y1244281D01*
X242118Y1244083D01*
X241938D01*
X240750Y1245298D01*
Y1246469D01*
X239913Y1248491D01*
X238365Y1250038D01*
X236344Y1250875D01*
X234156D01*
X232134Y1250038D01*
X230587Y1248491D01*
X229750Y1246469D01*
Y1244281D01*
X229618Y1244083D01*
X229438D01*
X228250Y1245298D01*
Y1246469D01*
X227413Y1248491D01*
X225865Y1250038D01*
X223844Y1250875D01*
X221656D01*
X219634Y1250038D01*
X218087Y1248491D01*
X217250Y1246469D01*
Y1244281D01*
X217118Y1244083D01*
X216938D01*
X215750Y1245298D01*
Y1246469D01*
X214913Y1248491D01*
X213365Y1250038D01*
X211344Y1250875D01*
X209156D01*
X207134Y1250038D01*
X205587Y1248491D01*
X204750Y1246469D01*
Y1244281D01*
X204618Y1244083D01*
X204438D01*
X203250Y1245298D01*
Y1246469D01*
X202413Y1248491D01*
X200865Y1250038D01*
X198844Y1250875D01*
X196656D01*
X194634Y1250038D01*
X193087Y1248491D01*
X192250Y1246469D01*
Y1244281D01*
X193087Y1242260D01*
X194634Y1240712D01*
X196656Y1239875D01*
X198312D01*
X198500Y1239594D01*
Y1237406D01*
X198312Y1237125D01*
X196656D01*
X194634Y1236288D01*
X193087Y1234741D01*
X192250Y1232719D01*
Y1230531D01*
X193087Y1228510D01*
X194634Y1226962D01*
X196656Y1226125D01*
X198844D01*
X200865Y1226962D01*
X202413Y1228510D01*
X203250Y1230531D01*
Y1232719D01*
X203382Y1232917D01*
X203562D01*
X204750Y1231702D01*
Y1230531D01*
X205587Y1228510D01*
X207134Y1226962D01*
X209156Y1226125D01*
X211344D01*
X213365Y1226962D01*
X214913Y1228510D01*
X215750Y1230531D01*
Y1232719D01*
X215882Y1232917D01*
X216062D01*
X217250Y1231702D01*
Y1230531D01*
X218087Y1228510D01*
X219634Y1226962D01*
X221656Y1226125D01*
X223844D01*
X225865Y1226962D01*
X227413Y1228510D01*
X228250Y1230531D01*
Y1232719D01*
X228382Y1232917D01*
X228562D01*
X229750Y1231702D01*
Y1230531D01*
X230587Y1228510D01*
X232134Y1226962D01*
X234156Y1226125D01*
X236344D01*
X238365Y1226962D01*
X239913Y1228510D01*
X240750Y1230531D01*
Y1232719D01*
X240938Y1233000D01*
X242594D01*
X244615Y1233837D01*
X246163Y1235385D01*
X247000Y1237406D01*
Y1239594D01*
X247188Y1239875D01*
X248844D01*
X250865Y1240712D01*
X252413Y1242260D01*
X253250Y1244281D01*
Y1246469D01*
X252413Y1248491D01*
X250865Y1250038D01*
X248844Y1250875D01*
D02*
G37*
G36*
X122094Y1249750D02*
X119906D01*
X117885Y1248913D01*
X116337Y1247365D01*
X115500Y1245344D01*
Y1243156D01*
X116337Y1241134D01*
X117885Y1239587D01*
X119906Y1238750D01*
X122094D01*
X124115Y1239587D01*
X125663Y1241134D01*
X126500Y1243156D01*
Y1245344D01*
X125663Y1247365D01*
X124115Y1248913D01*
X122094Y1249750D01*
D02*
G37*
G36*
X70844Y1237500D02*
X68656D01*
X66634Y1236663D01*
X65087Y1235116D01*
X64250Y1233094D01*
Y1230906D01*
X65087Y1228885D01*
X66634Y1227337D01*
X68656Y1226500D01*
X70844D01*
X72866Y1227337D01*
X74413Y1228885D01*
X75250Y1230906D01*
Y1233094D01*
X74413Y1235116D01*
X72866Y1236663D01*
X70844Y1237500D01*
D02*
G37*
G36*
X81344Y1210500D02*
X79156D01*
X77134Y1209663D01*
X75587Y1208115D01*
X74750Y1206094D01*
Y1203906D01*
X75587Y1201885D01*
X77134Y1200337D01*
X79156Y1199500D01*
X81344D01*
X83365Y1200337D01*
X84913Y1201885D01*
X85750Y1203906D01*
Y1206094D01*
X84913Y1208115D01*
X83365Y1209663D01*
X81344Y1210500D01*
D02*
G37*
G36*
X50094Y1210250D02*
X47906D01*
X45884Y1209413D01*
X44337Y1207866D01*
X43500Y1205844D01*
Y1203656D01*
X44337Y1201635D01*
X45884Y1200087D01*
X47906Y1199250D01*
X50094D01*
X52116Y1200087D01*
X53663Y1201635D01*
X54500Y1203656D01*
Y1205844D01*
X53663Y1207866D01*
X52116Y1209413D01*
X50094Y1210250D01*
D02*
G37*
G36*
X270844Y1206250D02*
X268656D01*
X266635Y1205413D01*
X265087Y1203866D01*
X264250Y1201844D01*
Y1199656D01*
X265087Y1197635D01*
X266635Y1196087D01*
X268656Y1195250D01*
X270844D01*
X272866Y1196087D01*
X274413Y1197635D01*
X275250Y1199656D01*
Y1201844D01*
X274413Y1203866D01*
X272866Y1205413D01*
X270844Y1206250D01*
D02*
G37*
G36*
X317094Y1205000D02*
X314906D01*
X312885Y1204163D01*
X311337Y1202616D01*
X310500Y1200594D01*
Y1198406D01*
X311337Y1196385D01*
X312885Y1194837D01*
X314906Y1194000D01*
X317094D01*
X319116Y1194837D01*
X320663Y1196385D01*
X321500Y1198406D01*
Y1200594D01*
X320663Y1202616D01*
X319116Y1204163D01*
X317094Y1205000D01*
D02*
G37*
G36*
X118844Y1197500D02*
X116656D01*
X114635Y1196663D01*
X113087Y1195116D01*
X112250Y1193094D01*
Y1190906D01*
X113087Y1188885D01*
X114635Y1187337D01*
X116656Y1186500D01*
X118844D01*
X120865Y1187337D01*
X122413Y1188885D01*
X123250Y1190906D01*
Y1193094D01*
X122413Y1195116D01*
X120865Y1196663D01*
X118844Y1197500D01*
D02*
G37*
G36*
X293594Y1196250D02*
X291406D01*
X289384Y1195413D01*
X287837Y1193866D01*
X287000Y1191844D01*
Y1189656D01*
X286412Y1188776D01*
X286171D01*
X284150Y1187938D01*
X282603Y1186391D01*
X281765Y1184370D01*
Y1182182D01*
X282603Y1180160D01*
X284150Y1178613D01*
X286171Y1177776D01*
X288359D01*
X290381Y1178613D01*
X291928Y1180160D01*
X292765Y1182182D01*
Y1184370D01*
X293353Y1185250D01*
X293594D01*
X295616Y1186087D01*
X297163Y1187635D01*
X298000Y1189656D01*
Y1191844D01*
X297163Y1193866D01*
X295616Y1195413D01*
X293594Y1196250D01*
D02*
G37*
G36*
X74844Y1182500D02*
X72656D01*
X70634Y1181663D01*
X69087Y1180116D01*
X68250Y1178094D01*
Y1176937D01*
X66980Y1176176D01*
X65594Y1176750D01*
X63406D01*
X62020Y1176176D01*
X60750Y1176937D01*
Y1178094D01*
X59913Y1180116D01*
X58366Y1181663D01*
X56344Y1182500D01*
X54156D01*
X52134Y1181663D01*
X50587Y1180116D01*
X49750Y1178094D01*
Y1175906D01*
X50587Y1173885D01*
X52134Y1172337D01*
X54156Y1171500D01*
X56344D01*
X57730Y1172074D01*
X59000Y1171312D01*
Y1170156D01*
X59837Y1168135D01*
X61385Y1166587D01*
X63406Y1165750D01*
X65594D01*
X67615Y1166587D01*
X69163Y1168135D01*
X70000Y1170156D01*
Y1171312D01*
X71270Y1172074D01*
X72656Y1171500D01*
X74844D01*
X76866Y1172337D01*
X78413Y1173885D01*
X79250Y1175906D01*
Y1178094D01*
X78413Y1180116D01*
X76866Y1181663D01*
X74844Y1182500D01*
D02*
G37*
G36*
X143344Y1185750D02*
X141156D01*
X139135Y1184913D01*
X137587Y1183365D01*
X136750Y1181344D01*
Y1179156D01*
X137587Y1177134D01*
X139135Y1175587D01*
X141156Y1174750D01*
X143344D01*
X145365Y1175587D01*
X146913Y1177134D01*
X147750Y1179156D01*
Y1181344D01*
X146913Y1183365D01*
X145365Y1184913D01*
X143344Y1185750D01*
D02*
G37*
G36*
X178344Y1182750D02*
X176156D01*
X174135Y1181913D01*
X172587Y1180366D01*
X171750Y1178344D01*
Y1176156D01*
X172587Y1174135D01*
X174135Y1172587D01*
X176156Y1171750D01*
X178344D01*
X179194Y1172102D01*
X180250Y1171396D01*
Y1170656D01*
X181087Y1168634D01*
X182635Y1167087D01*
X184656Y1166250D01*
X186844D01*
X188866Y1167087D01*
X190413Y1168634D01*
X191250Y1170656D01*
Y1172844D01*
X190413Y1174865D01*
X188866Y1176413D01*
X186844Y1177250D01*
X184656D01*
X183806Y1176898D01*
X182750Y1177604D01*
Y1178344D01*
X181913Y1180366D01*
X180366Y1181913D01*
X178344Y1182750D01*
D02*
G37*
G36*
X199094Y1158000D02*
X196906D01*
X194884Y1157163D01*
X193337Y1155615D01*
X192500Y1153594D01*
Y1151406D01*
X193337Y1149385D01*
X194884Y1147837D01*
X196906Y1147000D01*
X199094D01*
X201115Y1147837D01*
X202663Y1149385D01*
X203500Y1151406D01*
Y1153594D01*
X202663Y1155615D01*
X201115Y1157163D01*
X199094Y1158000D01*
D02*
G37*
G36*
X74094Y1144250D02*
X71906D01*
X69885Y1143413D01*
X68337Y1141865D01*
X67500Y1139844D01*
Y1137656D01*
X68337Y1135635D01*
X69885Y1134087D01*
X71906Y1133250D01*
X74094D01*
X76115Y1134087D01*
X77663Y1135635D01*
X78500Y1137656D01*
Y1139844D01*
X77663Y1141865D01*
X76115Y1143413D01*
X74094Y1144250D01*
D02*
G37*
G36*
X85594Y1132500D02*
X83406D01*
X81384Y1131663D01*
X79837Y1130116D01*
X79000Y1128094D01*
Y1125906D01*
X79837Y1123885D01*
X81384Y1122337D01*
X83406Y1121500D01*
X85594D01*
X87615Y1122337D01*
X89163Y1123885D01*
X90000Y1125906D01*
Y1128094D01*
X89163Y1130116D01*
X87615Y1131663D01*
X85594Y1132500D01*
D02*
G37*
G36*
X177844Y1122500D02*
X175656D01*
X173634Y1121663D01*
X172830Y1120858D01*
X172000Y1120186D01*
X171170Y1120858D01*
X170366Y1121663D01*
X168344Y1122500D01*
X166156D01*
X164135Y1121663D01*
X162587Y1120116D01*
X161750Y1118094D01*
Y1115906D01*
X162587Y1113885D01*
X164135Y1112337D01*
X166156Y1111500D01*
X168344D01*
X170366Y1112337D01*
X171170Y1113142D01*
X172000Y1113814D01*
X172830Y1113142D01*
X173634Y1112337D01*
X175656Y1111500D01*
X177844D01*
X179865Y1112337D01*
X181413Y1113885D01*
X182250Y1115906D01*
Y1118094D01*
X181413Y1120116D01*
X179865Y1121663D01*
X177844Y1122500D01*
D02*
G37*
G36*
X134594Y1140250D02*
X132406D01*
X130385Y1139413D01*
X128837Y1137866D01*
X128000Y1135844D01*
Y1133656D01*
X128678Y1132020D01*
X128179Y1130990D01*
X127934Y1130750D01*
X127156D01*
X125134Y1129913D01*
X123587Y1128365D01*
X122750Y1126344D01*
Y1124156D01*
X123587Y1122134D01*
X125134Y1120587D01*
X127156Y1119750D01*
X129344D01*
X131365Y1120587D01*
X132913Y1122134D01*
X133750Y1124156D01*
Y1126344D01*
X133072Y1127980D01*
X133571Y1129010D01*
X133816Y1129250D01*
X134594D01*
X136615Y1130087D01*
X138163Y1131635D01*
X139000Y1133656D01*
Y1135844D01*
X138163Y1137866D01*
X136615Y1139413D01*
X134594Y1140250D01*
D02*
G37*
G36*
X42921Y1142563D02*
X37806D01*
X32753Y1141763D01*
X27888Y1140182D01*
X23330Y1137860D01*
X19191Y1134853D01*
X15574Y1131236D01*
X12567Y1127097D01*
X10245Y1122539D01*
X8664Y1117674D01*
X7864Y1112621D01*
Y1107506D01*
X8664Y1102453D01*
X10245Y1097588D01*
X12567Y1093030D01*
X15574Y1088891D01*
X19191Y1085274D01*
X23330Y1082267D01*
X27888Y1079945D01*
X32753Y1078364D01*
X37806Y1077563D01*
X42921D01*
X47974Y1078364D01*
X52839Y1079945D01*
X57397Y1082267D01*
X61536Y1085274D01*
X65153Y1088891D01*
X68160Y1093030D01*
X70483Y1097588D01*
X72063Y1102453D01*
X72564Y1105612D01*
X73919Y1106053D01*
X74634Y1105337D01*
X76656Y1104500D01*
X78844D01*
X80865Y1105337D01*
X82413Y1106885D01*
X83250Y1108906D01*
Y1111094D01*
X82413Y1113115D01*
X80865Y1114663D01*
X78844Y1115500D01*
X76656D01*
X74634Y1114663D01*
X73937Y1113965D01*
X72581Y1114405D01*
X72063Y1117674D01*
X70483Y1122539D01*
X68160Y1127097D01*
X65153Y1131236D01*
X61536Y1134853D01*
X57397Y1137860D01*
X52839Y1140182D01*
X47974Y1141763D01*
X42921Y1142563D01*
D02*
G37*
G36*
X155594Y1101000D02*
X153406D01*
X151384Y1100163D01*
X149837Y1098615D01*
X149000Y1096594D01*
Y1094406D01*
X149837Y1092384D01*
X151384Y1090837D01*
X153406Y1090000D01*
X155594D01*
X157615Y1090837D01*
X159163Y1092384D01*
X160000Y1094406D01*
Y1096594D01*
X159163Y1098615D01*
X157615Y1100163D01*
X155594Y1101000D01*
D02*
G37*
G36*
X214844Y1100500D02*
X212656D01*
X210634Y1099663D01*
X209087Y1098115D01*
X208250Y1096094D01*
Y1093906D01*
X209087Y1091885D01*
X210634Y1090337D01*
X212656Y1089500D01*
X214844D01*
X216866Y1090337D01*
X218413Y1091885D01*
X219250Y1093906D01*
Y1096094D01*
X218413Y1098115D01*
X216866Y1099663D01*
X214844Y1100500D01*
D02*
G37*
G36*
X259094Y1099250D02*
X256906D01*
X254884Y1098413D01*
X253337Y1096865D01*
X252500Y1094844D01*
Y1092656D01*
X253337Y1090635D01*
X254884Y1089087D01*
X256906Y1088250D01*
X259094D01*
X261115Y1089087D01*
X262663Y1090635D01*
X263500Y1092656D01*
Y1094844D01*
X262663Y1096865D01*
X261115Y1098413D01*
X259094Y1099250D01*
D02*
G37*
G36*
X189018Y1100250D02*
X186830D01*
X184809Y1099412D01*
X183262Y1097865D01*
X182424Y1095844D01*
Y1093656D01*
X183262Y1091634D01*
X184809Y1090087D01*
X186830Y1089250D01*
X188750D01*
Y1087656D01*
X189587Y1085635D01*
X191134Y1084087D01*
X193156Y1083250D01*
X195000D01*
Y1082156D01*
X195837Y1080135D01*
X197384Y1078587D01*
X199406Y1077750D01*
X201594D01*
X203615Y1078587D01*
X205163Y1080135D01*
X206000Y1082156D01*
Y1084344D01*
X205163Y1086366D01*
X203615Y1087913D01*
X201594Y1088750D01*
X199750D01*
Y1089844D01*
X198913Y1091865D01*
X197365Y1093413D01*
X195344Y1094250D01*
X193424D01*
Y1095844D01*
X192587Y1097865D01*
X191040Y1099412D01*
X189018Y1100250D01*
D02*
G37*
G36*
X270594Y1092500D02*
X268406D01*
X266385Y1091663D01*
X264837Y1090116D01*
X264000Y1088094D01*
Y1086500D01*
X262406D01*
X260385Y1085663D01*
X258837Y1084116D01*
X258000Y1082094D01*
Y1079906D01*
X258837Y1077885D01*
X260385Y1076337D01*
X262406Y1075500D01*
X264594D01*
X266616Y1076337D01*
X268163Y1077885D01*
X269000Y1079906D01*
Y1081500D01*
X270594D01*
X272616Y1082337D01*
X274163Y1083885D01*
X275000Y1085906D01*
Y1088094D01*
X274163Y1090116D01*
X272616Y1091663D01*
X270594Y1092500D01*
D02*
G37*
G36*
X215594Y1077000D02*
X213406D01*
X211385Y1076163D01*
X210413Y1075192D01*
X209615Y1075990D01*
X207594Y1076827D01*
X205406D01*
X203384Y1075990D01*
X201837Y1074442D01*
X201000Y1072421D01*
Y1070233D01*
X201837Y1068212D01*
X203384Y1066664D01*
X205406Y1065827D01*
X207594D01*
X209615Y1066664D01*
X210586Y1067635D01*
X211385Y1066837D01*
X213406Y1066000D01*
X215594D01*
X217616Y1066837D01*
X219163Y1068384D01*
X220000Y1070406D01*
Y1072594D01*
X219163Y1074615D01*
X217616Y1076163D01*
X215594Y1077000D01*
D02*
G37*
G36*
X59344Y1070250D02*
X57156D01*
X55135Y1069413D01*
X53587Y1067866D01*
X52750Y1065844D01*
Y1063656D01*
X53587Y1061635D01*
X55135Y1060087D01*
X57156Y1059250D01*
X59344D01*
X61365Y1060087D01*
X62913Y1061635D01*
X63750Y1063656D01*
Y1065844D01*
X62913Y1067866D01*
X61365Y1069413D01*
X59344Y1070250D01*
D02*
G37*
G36*
X42344D02*
X40156D01*
X38135Y1069413D01*
X36587Y1067866D01*
X35750Y1065844D01*
Y1063656D01*
X36587Y1061635D01*
X38135Y1060087D01*
X40156Y1059250D01*
X42344D01*
X44366Y1060087D01*
X45913Y1061635D01*
X46750Y1063656D01*
Y1065844D01*
X45913Y1067866D01*
X44366Y1069413D01*
X42344Y1070250D01*
D02*
G37*
G36*
X77844Y1067250D02*
X75656D01*
X73635Y1066413D01*
X72087Y1064865D01*
X71250Y1062844D01*
Y1060656D01*
X72087Y1058634D01*
X73635Y1057087D01*
X75656Y1056250D01*
X77844D01*
X79865Y1057087D01*
X81413Y1058634D01*
X82250Y1060656D01*
Y1062844D01*
X81413Y1064865D01*
X79865Y1066413D01*
X77844Y1067250D01*
D02*
G37*
G36*
X297344Y1065250D02*
X295156D01*
X293134Y1064413D01*
X291587Y1062866D01*
X290750Y1060844D01*
Y1058656D01*
X291587Y1056635D01*
X293134Y1055087D01*
X295156Y1054250D01*
X297344D01*
X299366Y1055087D01*
X300913Y1056635D01*
X301750Y1058656D01*
Y1060844D01*
X300913Y1062866D01*
X299366Y1064413D01*
X297344Y1065250D01*
D02*
G37*
G36*
X198075Y1067769D02*
X195887D01*
X193865Y1066932D01*
X192318Y1065385D01*
X191481Y1063363D01*
Y1061175D01*
X192318Y1059154D01*
X193865Y1057607D01*
X195887Y1056769D01*
X197500D01*
Y1055906D01*
X198337Y1053885D01*
X199884Y1052337D01*
X201906Y1051500D01*
X204094D01*
X206115Y1052337D01*
X207663Y1053885D01*
X208500Y1055906D01*
Y1058094D01*
X207663Y1060116D01*
X206115Y1061663D01*
X204094Y1062500D01*
X202481D01*
Y1063363D01*
X201643Y1065385D01*
X200096Y1066932D01*
X198075Y1067769D01*
D02*
G37*
G36*
X277094Y1061750D02*
X274906D01*
X272885Y1060913D01*
X271337Y1059365D01*
X270500Y1057344D01*
Y1055156D01*
X271337Y1053135D01*
X272885Y1051587D01*
X274906Y1050750D01*
X277094D01*
X279116Y1051587D01*
X280663Y1053135D01*
X281500Y1055156D01*
Y1057344D01*
X280663Y1059365D01*
X279116Y1060913D01*
X277094Y1061750D01*
D02*
G37*
G36*
X172594D02*
X170406D01*
X168384Y1060913D01*
X166837Y1059365D01*
X166000Y1057344D01*
Y1055156D01*
X166837Y1053135D01*
X168384Y1051587D01*
X170406Y1050750D01*
X172594D01*
X173000Y1050479D01*
Y1049406D01*
X173837Y1047384D01*
X175385Y1045837D01*
X177406Y1045000D01*
X179594D01*
X181616Y1045837D01*
X183163Y1047384D01*
X184000Y1049406D01*
Y1051594D01*
X183163Y1053615D01*
X181616Y1055163D01*
X179594Y1056000D01*
X177406D01*
X177000Y1056271D01*
Y1057344D01*
X176163Y1059365D01*
X174615Y1060913D01*
X172594Y1061750D01*
D02*
G37*
G36*
X206844Y1049250D02*
X204656D01*
X202634Y1048413D01*
X201087Y1046865D01*
X200250Y1044844D01*
Y1043000D01*
X198156D01*
X196134Y1042163D01*
X194587Y1040615D01*
X193750Y1038594D01*
Y1036406D01*
X194587Y1034385D01*
X196134Y1032837D01*
X198156Y1032000D01*
X200344D01*
X202365Y1032837D01*
X203913Y1034385D01*
X204750Y1036406D01*
Y1038250D01*
X206844D01*
X208865Y1039087D01*
X210412Y1040635D01*
X211250Y1042656D01*
Y1044844D01*
X210412Y1046865D01*
X208865Y1048413D01*
X206844Y1049250D01*
D02*
G37*
G36*
X277344Y1040500D02*
X275156D01*
X273134Y1039663D01*
X271587Y1038115D01*
X270750Y1036094D01*
Y1033906D01*
X271587Y1031885D01*
X273134Y1030337D01*
X275156Y1029500D01*
X277344D01*
X279366Y1030337D01*
X280913Y1031885D01*
X281750Y1033906D01*
Y1036094D01*
X280913Y1038115D01*
X279366Y1039663D01*
X277344Y1040500D01*
D02*
G37*
G36*
X121844Y1049000D02*
X119656D01*
X117634Y1048163D01*
X116087Y1046616D01*
X115250Y1044594D01*
Y1042406D01*
X116087Y1040385D01*
X117634Y1038837D01*
X119656Y1038000D01*
X121158D01*
Y1037012D01*
X121995Y1034990D01*
X123542Y1033443D01*
X125564Y1032606D01*
X127500D01*
Y1031156D01*
X128337Y1029135D01*
X129885Y1027587D01*
X131906Y1026750D01*
X134094D01*
X136116Y1027587D01*
X137663Y1029135D01*
X138500Y1031156D01*
Y1033344D01*
X137663Y1035366D01*
X136116Y1036913D01*
X134094Y1037750D01*
X132158D01*
Y1039200D01*
X131320Y1041221D01*
X129773Y1042768D01*
X127752Y1043606D01*
X126250D01*
Y1044594D01*
X125413Y1046616D01*
X123865Y1048163D01*
X121844Y1049000D01*
D02*
G37*
G36*
X111344Y1022750D02*
X109156D01*
X107135Y1021913D01*
X105587Y1020366D01*
X104750Y1018344D01*
Y1016156D01*
X105587Y1014135D01*
X107135Y1012587D01*
X109156Y1011750D01*
X111344D01*
X113365Y1012587D01*
X114913Y1014135D01*
X115750Y1016156D01*
Y1018344D01*
X114913Y1020366D01*
X113365Y1021913D01*
X111344Y1022750D01*
D02*
G37*
G36*
X52250Y1024815D02*
X44250D01*
X42292Y1024557D01*
X40468Y1023801D01*
X38901Y1022599D01*
X37699Y1021032D01*
X36943Y1019208D01*
X36685Y1017250D01*
X36943Y1015292D01*
X37699Y1013468D01*
X38901Y1011901D01*
X40468Y1010699D01*
X42292Y1009943D01*
X44250Y1009685D01*
X52250D01*
X54208Y1009943D01*
X56032Y1010699D01*
X57599Y1011901D01*
X58801Y1013468D01*
X59557Y1015292D01*
X59815Y1017250D01*
X59557Y1019208D01*
X58801Y1021032D01*
X57599Y1022599D01*
X56032Y1023801D01*
X54208Y1024557D01*
X52250Y1024815D01*
D02*
G37*
G36*
X319345Y1014188D02*
X315157Y1010000D01*
X319345Y1005812D01*
X319396Y1005901D01*
X320120Y1008602D01*
Y1011398D01*
X319396Y1014099D01*
X319345Y1014188D01*
D02*
G37*
G36*
X296690Y1034262D02*
X294025D01*
X291452Y1033572D01*
X289144Y1032240D01*
X287260Y1030356D01*
X285928Y1028048D01*
X285238Y1025474D01*
Y1022810D01*
X285928Y1020236D01*
X287260Y1017928D01*
X289144Y1016044D01*
X291452Y1014712D01*
X294025Y1014022D01*
X296690D01*
X298422Y1014486D01*
X299427Y1013441D01*
X298880Y1011398D01*
Y1008602D01*
X299604Y1005901D01*
X299655Y1005812D01*
X306672Y1012828D01*
X313688Y1019845D01*
X313599Y1019896D01*
X310898Y1020620D01*
X308102D01*
X306059Y1020073D01*
X305014Y1021078D01*
X305478Y1022810D01*
Y1025474D01*
X304788Y1028048D01*
X303456Y1030356D01*
X301572Y1032240D01*
X299264Y1033572D01*
X296690Y1034262D01*
D02*
G37*
G36*
X167344Y1012250D02*
X165156D01*
X163134Y1011413D01*
X161587Y1009865D01*
X160750Y1007844D01*
Y1005656D01*
X161587Y1003634D01*
X163134Y1002087D01*
X165156Y1001250D01*
X167344D01*
X169366Y1002087D01*
X170913Y1003634D01*
X171750Y1005656D01*
Y1007844D01*
X170913Y1009865D01*
X169366Y1011413D01*
X167344Y1012250D01*
D02*
G37*
G36*
X309500Y1004343D02*
X305312Y1000155D01*
X305401Y1000104D01*
X308102Y999380D01*
X310898D01*
X313599Y1000104D01*
X313688Y1000155D01*
X309500Y1004343D01*
D02*
G37*
G36*
X94050Y1024815D02*
X86050D01*
X84092Y1024557D01*
X82268Y1023801D01*
X80701Y1022599D01*
X79499Y1021032D01*
X78743Y1019208D01*
X78485Y1017250D01*
X78743Y1015292D01*
X79499Y1013468D01*
X80701Y1011901D01*
X82268Y1010699D01*
X84092Y1009943D01*
X83906Y1008700D01*
X81793Y1007825D01*
X80175Y1006207D01*
X79300Y1004094D01*
Y1001806D01*
X80175Y999693D01*
X81793Y998075D01*
X83906Y997200D01*
X86194D01*
X88307Y998075D01*
X89925Y999693D01*
X90800Y1001806D01*
Y1004094D01*
X89925Y1006207D01*
X88307Y1007825D01*
X86881Y1008415D01*
X87134Y1009685D01*
X94050D01*
X96008Y1009943D01*
X97832Y1010699D01*
X99399Y1011901D01*
X100601Y1013468D01*
X101357Y1015292D01*
X101615Y1017250D01*
X101357Y1019208D01*
X100601Y1021032D01*
X99399Y1022599D01*
X97832Y1023801D01*
X96008Y1024557D01*
X94050Y1024815D01*
D02*
G37*
G36*
X61219Y997760D02*
X59031D01*
X57010Y996923D01*
X55462Y995375D01*
X54625Y993354D01*
Y991698D01*
X54344Y991510D01*
X52156D01*
X51875Y991698D01*
Y993354D01*
X51038Y995375D01*
X49490Y996923D01*
X47469Y997760D01*
X45281D01*
X43260Y996923D01*
X41712Y995375D01*
X40875Y993354D01*
Y991688D01*
X40594Y991500D01*
X38406D01*
X38125Y991688D01*
Y993344D01*
X37288Y995366D01*
X35740Y996913D01*
X33719Y997750D01*
X31531D01*
X29509Y996913D01*
X27962Y995366D01*
X27125Y993344D01*
Y991156D01*
X27962Y989135D01*
X29509Y987587D01*
X31531Y986750D01*
X33719D01*
X33917Y986618D01*
Y986438D01*
X32702Y985250D01*
X31531D01*
X29509Y984413D01*
X27962Y982866D01*
X27125Y980844D01*
Y978656D01*
X27962Y976635D01*
X29509Y975087D01*
X31531Y974250D01*
X33719D01*
X33917Y974118D01*
Y973938D01*
X32702Y972750D01*
X31531D01*
X29509Y971913D01*
X27962Y970366D01*
X27125Y968344D01*
Y966156D01*
X27962Y964135D01*
X29509Y962587D01*
X31531Y961750D01*
X33719D01*
X33917Y961618D01*
Y961438D01*
X32702Y960250D01*
X31531D01*
X29509Y959413D01*
X27962Y957866D01*
X27125Y955844D01*
Y953656D01*
X27962Y951635D01*
X29509Y950087D01*
X31531Y949250D01*
X33719D01*
X35740Y950087D01*
X37288Y951635D01*
X38125Y953656D01*
Y955312D01*
X38406Y955500D01*
X40594D01*
X40875Y955312D01*
Y953666D01*
X41712Y951645D01*
X43260Y950097D01*
X45281Y949260D01*
X47469D01*
X49490Y950097D01*
X51038Y951645D01*
X51875Y953666D01*
Y955322D01*
X52156Y955510D01*
X54344D01*
X54625Y955322D01*
Y953666D01*
X55462Y951645D01*
X57010Y950097D01*
X59031Y949260D01*
X61219D01*
X63240Y950097D01*
X64788Y951645D01*
X65625Y953666D01*
Y955854D01*
X64788Y957875D01*
X63240Y959423D01*
X61219Y960260D01*
X59031D01*
X58833Y960392D01*
Y960572D01*
X60048Y961760D01*
X61219D01*
X63240Y962597D01*
X64788Y964145D01*
X65625Y966166D01*
Y968354D01*
X64788Y970375D01*
X63240Y971923D01*
X61219Y972760D01*
X59031D01*
X58833Y972892D01*
Y973072D01*
X60048Y974260D01*
X61219D01*
X63240Y975097D01*
X64788Y976645D01*
X65625Y978666D01*
Y980854D01*
X64788Y982875D01*
X63240Y984423D01*
X61219Y985260D01*
X59031D01*
X58833Y985392D01*
Y985572D01*
X60048Y986760D01*
X61219D01*
X63240Y987597D01*
X64788Y989145D01*
X65625Y991166D01*
Y993354D01*
X64788Y995375D01*
X63240Y996923D01*
X61219Y997760D01*
D02*
G37*
G36*
X247165Y996679D02*
X244977D01*
X242955Y995842D01*
X241408Y994294D01*
X240571Y992273D01*
Y990085D01*
X241408Y988064D01*
X242955Y986516D01*
X244977Y985679D01*
X247165D01*
X249186Y986516D01*
X250734Y988064D01*
X251571Y990085D01*
Y992273D01*
X250734Y994294D01*
X249186Y995842D01*
X247165Y996679D01*
D02*
G37*
G36*
X227844Y990250D02*
X225656D01*
X223634Y989413D01*
X222087Y987866D01*
X221317Y986007D01*
X221034Y985755D01*
X219980Y985322D01*
X218344Y986000D01*
X216156D01*
X214135Y985163D01*
X212587Y983615D01*
X211750Y981594D01*
Y979406D01*
X212587Y977384D01*
X214135Y975837D01*
X216156Y975000D01*
X218344D01*
X220366Y975837D01*
X221913Y977384D01*
X222683Y979243D01*
X222966Y979495D01*
X224020Y979928D01*
X225656Y979250D01*
X227844D01*
X229865Y980087D01*
X231413Y981635D01*
X232250Y983656D01*
Y985844D01*
X231413Y987866D01*
X229865Y989413D01*
X227844Y990250D01*
D02*
G37*
G36*
X171844Y994500D02*
X169656D01*
X167635Y993663D01*
X166087Y992115D01*
X165250Y990094D01*
Y987906D01*
X166087Y985884D01*
X167635Y984337D01*
X169656Y983500D01*
X171844D01*
X173866Y984337D01*
X175413Y985884D01*
X176250Y987906D01*
Y990094D01*
X175413Y992115D01*
X173866Y993663D01*
X171844Y994500D01*
D02*
G37*
G36*
X173094Y979500D02*
X170906D01*
X168885Y978663D01*
X167337Y977115D01*
X166500Y975094D01*
Y972906D01*
X167337Y970884D01*
X168885Y969337D01*
X170906Y968500D01*
X173094D01*
X175116Y969337D01*
X176663Y970884D01*
X177500Y972906D01*
Y975094D01*
X176663Y977115D01*
X175116Y978663D01*
X173094Y979500D01*
D02*
G37*
G36*
X129844Y976875D02*
X127656D01*
X125634Y976038D01*
X124087Y974491D01*
X123250Y972469D01*
Y970281D01*
X124087Y968260D01*
X125634Y966712D01*
X127656Y965875D01*
X129844D01*
X131866Y966712D01*
X133413Y968260D01*
X134250Y970281D01*
Y972469D01*
X133413Y974491D01*
X131866Y976038D01*
X129844Y976875D01*
D02*
G37*
G36*
X84094Y982250D02*
X81906D01*
X79885Y981413D01*
X78337Y979865D01*
X77500Y977844D01*
Y975656D01*
X78337Y973634D01*
X79531Y972441D01*
X79759Y971650D01*
X79531Y970859D01*
X78337Y969666D01*
X77500Y967644D01*
Y965456D01*
X78337Y963435D01*
X79885Y961887D01*
X81906Y961050D01*
X84094D01*
X86116Y961887D01*
X87663Y963435D01*
X88500Y965456D01*
Y967644D01*
X87663Y969666D01*
X86469Y970859D01*
X86241Y971650D01*
X86469Y972441D01*
X87663Y973634D01*
X88500Y975656D01*
Y977844D01*
X87663Y979865D01*
X86116Y981413D01*
X84094Y982250D01*
D02*
G37*
G36*
X173094Y964500D02*
X170906D01*
X168885Y963663D01*
X167337Y962115D01*
X166500Y960094D01*
Y957906D01*
X167337Y955884D01*
X168885Y954337D01*
X170906Y953500D01*
X173094D01*
X175116Y954337D01*
X176663Y955884D01*
X177500Y957906D01*
Y960094D01*
X176663Y962115D01*
X175116Y963663D01*
X173094Y964500D01*
D02*
G37*
G36*
X209094Y958000D02*
X206906D01*
X204884Y957163D01*
X203337Y955615D01*
X202500Y953594D01*
Y951406D01*
X203337Y949385D01*
X204884Y947837D01*
X206906Y947000D01*
X209094D01*
X211115Y947837D01*
X212663Y949385D01*
X213500Y951406D01*
Y953594D01*
X212663Y955615D01*
X211115Y957163D01*
X209094Y958000D01*
D02*
G37*
G36*
X173094Y949250D02*
X170906D01*
X168885Y948413D01*
X167337Y946865D01*
X166500Y944844D01*
Y942656D01*
X167337Y940635D01*
X168885Y939087D01*
X170906Y938250D01*
X173094D01*
X175116Y939087D01*
X176663Y940635D01*
X177500Y942656D01*
Y944844D01*
X176663Y946865D01*
X175116Y948413D01*
X173094Y949250D01*
D02*
G37*
G36*
X111344Y936250D02*
X109156D01*
X107135Y935413D01*
X105587Y933866D01*
X104750Y931844D01*
Y929656D01*
X105587Y927635D01*
X107135Y926087D01*
X109156Y925250D01*
X111344D01*
X113365Y926087D01*
X114913Y927635D01*
X115750Y929656D01*
Y931844D01*
X114913Y933866D01*
X113365Y935413D01*
X111344Y936250D01*
D02*
G37*
G36*
X173094Y934500D02*
X170906D01*
X168885Y933663D01*
X167337Y932115D01*
X166500Y930094D01*
Y927906D01*
X167337Y925884D01*
X168885Y924337D01*
X170906Y923500D01*
X173094D01*
X175116Y924337D01*
X176663Y925884D01*
X177500Y927906D01*
Y930094D01*
X176663Y932115D01*
X175116Y933663D01*
X173094Y934500D01*
D02*
G37*
G36*
X86194Y950900D02*
X83906D01*
X81793Y950025D01*
X80175Y948407D01*
X79300Y946294D01*
Y944006D01*
X80175Y941893D01*
X81793Y940275D01*
X83906Y939400D01*
X84092Y938157D01*
X82268Y937401D01*
X80701Y936199D01*
X79499Y934632D01*
X78743Y932808D01*
X78485Y930850D01*
X78743Y928892D01*
X79499Y927068D01*
X80701Y925501D01*
X82268Y924299D01*
X84092Y923543D01*
X86050Y923285D01*
X94050D01*
X96008Y923543D01*
X97832Y924299D01*
X99399Y925501D01*
X100601Y927068D01*
X101357Y928892D01*
X101615Y930850D01*
X101357Y932808D01*
X100601Y934632D01*
X99399Y936199D01*
X97832Y937401D01*
X96008Y938157D01*
X94050Y938415D01*
X87134D01*
X86881Y939685D01*
X88307Y940275D01*
X89925Y941893D01*
X90800Y944006D01*
Y946294D01*
X89925Y948407D01*
X88307Y950025D01*
X86194Y950900D01*
D02*
G37*
G36*
X52250Y938415D02*
X44250D01*
X42292Y938157D01*
X40468Y937401D01*
X38901Y936199D01*
X37699Y934632D01*
X36943Y932808D01*
X36685Y930850D01*
X36943Y928892D01*
X37699Y927068D01*
X38901Y925501D01*
X40468Y924299D01*
X42292Y923543D01*
X44250Y923285D01*
X52250D01*
X54208Y923543D01*
X56032Y924299D01*
X57599Y925501D01*
X58801Y927068D01*
X59557Y928892D01*
X59815Y930850D01*
X59557Y932808D01*
X58801Y934632D01*
X57599Y936199D01*
X56032Y937401D01*
X54208Y938157D01*
X52250Y938415D01*
D02*
G37*
G36*
X209094Y945625D02*
X206906D01*
X204884Y944788D01*
X203337Y943240D01*
X202500Y941219D01*
Y939031D01*
X203337Y937010D01*
X204347Y936000D01*
X203587Y935240D01*
X202750Y933219D01*
Y931031D01*
X203587Y929009D01*
X205135Y927462D01*
X206806Y926770D01*
X206553Y925500D01*
X206156D01*
X204135Y924663D01*
X202587Y923115D01*
X201750Y921094D01*
Y918906D01*
X202587Y916885D01*
X204135Y915337D01*
X206156Y914500D01*
X208344D01*
X210366Y915337D01*
X211913Y916885D01*
X212750Y918906D01*
Y921094D01*
X211913Y923115D01*
X210366Y924663D01*
X208694Y925355D01*
X208947Y926625D01*
X209344D01*
X211366Y927462D01*
X212913Y929009D01*
X213750Y931031D01*
Y933219D01*
X212913Y935240D01*
X211903Y936250D01*
X212663Y937010D01*
X213500Y939031D01*
Y941219D01*
X212663Y943240D01*
X211115Y944788D01*
X209094Y945625D01*
D02*
G37*
G36*
X173344Y919500D02*
X171156D01*
X169135Y918663D01*
X167587Y917115D01*
X166750Y915094D01*
Y912906D01*
X167587Y910884D01*
X169135Y909337D01*
X171156Y908500D01*
X173344D01*
X175366Y909337D01*
X176913Y910884D01*
X177750Y912906D01*
Y915094D01*
X176913Y917115D01*
X175366Y918663D01*
X173344Y919500D01*
D02*
G37*
G36*
X264944Y898250D02*
X262756D01*
X260735Y897413D01*
X259187Y895865D01*
X258350Y893844D01*
Y891656D01*
X259187Y889634D01*
X260735Y888087D01*
X262756Y887250D01*
X264944D01*
X266966Y888087D01*
X268513Y889634D01*
X269350Y891656D01*
Y893844D01*
X268513Y895865D01*
X266966Y897413D01*
X264944Y898250D01*
D02*
G37*
G36*
X113094Y882500D02*
X110906D01*
X108884Y881663D01*
X107337Y880116D01*
X106812Y878848D01*
X105438D01*
X104913Y880116D01*
X103365Y881663D01*
X101344Y882500D01*
X99156D01*
X97135Y881663D01*
X96250Y880778D01*
X95365Y881663D01*
X93344Y882500D01*
X91156D01*
X89135Y881663D01*
X88250Y880778D01*
X87366Y881663D01*
X85344Y882500D01*
X83156D01*
X81135Y881663D01*
X79587Y880116D01*
X78750Y878094D01*
Y875906D01*
X79587Y873885D01*
X81135Y872337D01*
X83156Y871500D01*
X85344D01*
X87366Y872337D01*
X88250Y873222D01*
X89135Y872337D01*
X91156Y871500D01*
X93344D01*
X95365Y872337D01*
X96250Y873222D01*
X97135Y872337D01*
X99156Y871500D01*
X101344D01*
X103365Y872337D01*
X104913Y873885D01*
X105438Y875152D01*
X106812D01*
X107337Y873885D01*
X108884Y872337D01*
X110906Y871500D01*
X113094D01*
X115115Y872337D01*
X116663Y873885D01*
X117500Y875906D01*
Y878094D01*
X116663Y880116D01*
X115115Y881663D01*
X113094Y882500D01*
D02*
G37*
G36*
X132094Y880000D02*
X129906D01*
X127885Y879163D01*
X126337Y877616D01*
X125500Y875594D01*
Y873406D01*
X126337Y871385D01*
X127885Y869837D01*
X129906Y869000D01*
X132094D01*
X134115Y869837D01*
X135663Y871385D01*
X136500Y873406D01*
Y875594D01*
X135663Y877616D01*
X134115Y879163D01*
X132094Y880000D01*
D02*
G37*
G36*
X171344Y878500D02*
X169156D01*
X167134Y877663D01*
X165587Y876115D01*
X164750Y874094D01*
Y871906D01*
X165587Y869884D01*
X167134Y868337D01*
X169156Y867500D01*
X171344D01*
X173365Y868337D01*
X174913Y869884D01*
X175750Y871906D01*
Y874094D01*
X174913Y876115D01*
X173365Y877663D01*
X171344Y878500D01*
D02*
G37*
G36*
X60844Y866000D02*
X58656D01*
X56634Y865163D01*
X55750Y864278D01*
X54865Y865163D01*
X52844Y866000D01*
X50656D01*
X48635Y865163D01*
X47087Y863615D01*
X46250Y861594D01*
Y859406D01*
X47087Y857384D01*
X47972Y856500D01*
X47087Y855615D01*
X46250Y853594D01*
Y851406D01*
X47087Y849385D01*
X48635Y847837D01*
X50656Y847000D01*
X52844D01*
X54865Y847837D01*
X55750Y848722D01*
X56634Y847837D01*
X58656Y847000D01*
X60844D01*
X62866Y847837D01*
X64413Y849385D01*
X65250Y851406D01*
Y853594D01*
X64413Y855615D01*
X63528Y856500D01*
X64413Y857384D01*
X65250Y859406D01*
Y861594D01*
X64413Y863615D01*
X62866Y865163D01*
X60844Y866000D01*
D02*
G37*
G36*
X143594Y854250D02*
X141406D01*
X139384Y853413D01*
X138500Y852528D01*
X137615Y853413D01*
X135594Y854250D01*
X133406D01*
X131384Y853413D01*
X129837Y851865D01*
X129000Y849844D01*
Y847656D01*
X129837Y845635D01*
X131384Y844087D01*
X133406Y843250D01*
X135594D01*
X137615Y844087D01*
X138500Y844972D01*
X139384Y844087D01*
X141406Y843250D01*
X143594D01*
X145616Y844087D01*
X146500Y844972D01*
X147576Y843896D01*
X149598Y843058D01*
X151785D01*
X153807Y843896D01*
X155354Y845443D01*
X156192Y847465D01*
Y849652D01*
X155354Y851674D01*
X153807Y853221D01*
X151785Y854059D01*
X149598D01*
X147576Y853221D01*
X146692Y852337D01*
X145616Y853413D01*
X143594Y854250D01*
D02*
G37*
G36*
X249198Y871650D02*
X246302D01*
X243504Y870900D01*
X240996Y869452D01*
X238948Y867404D01*
X237500Y864896D01*
X236750Y862098D01*
Y859202D01*
X237500Y856404D01*
X238948Y853896D01*
X240996Y851848D01*
X243504Y850400D01*
X246302Y849650D01*
X249198D01*
X251996Y850400D01*
X254504Y851848D01*
X256552Y853896D01*
X258000Y856404D01*
X258750Y859202D01*
Y862098D01*
X258000Y864896D01*
X256552Y867404D01*
X254504Y869452D01*
X251996Y870900D01*
X249198Y871650D01*
D02*
G37*
G36*
X252750Y845642D02*
Y840250D01*
X258142D01*
X256952Y842311D01*
X254811Y844452D01*
X252750Y845642D01*
D02*
G37*
G36*
X242750D02*
X240689Y844452D01*
X238548Y842311D01*
X237358Y840250D01*
X242750D01*
Y845642D01*
D02*
G37*
G36*
X258142Y830250D02*
X252750D01*
Y824858D01*
X254811Y826048D01*
X256952Y828189D01*
X258142Y830250D01*
D02*
G37*
G36*
X242750D02*
X237358D01*
X238548Y828189D01*
X240689Y826048D01*
X242750Y824858D01*
Y830250D01*
D02*
G37*
G36*
X454344Y1249500D02*
X452156D01*
X450135Y1248663D01*
X448587Y1247115D01*
X447750Y1245094D01*
Y1242906D01*
X448587Y1240884D01*
X450135Y1239337D01*
X452156Y1238500D01*
X454344D01*
X456366Y1239337D01*
X457913Y1240884D01*
X458750Y1242906D01*
Y1245094D01*
X457913Y1247115D01*
X456366Y1248663D01*
X454344Y1249500D01*
D02*
G37*
G36*
X626844Y1247500D02*
X624656D01*
X622635Y1246663D01*
X621087Y1245116D01*
X620250Y1243094D01*
Y1240906D01*
X621087Y1238885D01*
X622635Y1237337D01*
X624656Y1236500D01*
X626844D01*
X628866Y1237337D01*
X630413Y1238885D01*
X631250Y1240906D01*
Y1243094D01*
X630413Y1245116D01*
X628866Y1246663D01*
X626844Y1247500D01*
D02*
G37*
G36*
X439612Y1241950D02*
X436189D01*
X432882Y1241064D01*
X429918Y1239353D01*
X427497Y1236932D01*
X425786Y1233968D01*
X424900Y1230661D01*
Y1227238D01*
X425786Y1223932D01*
X427497Y1220968D01*
X429918Y1218547D01*
X432882Y1216836D01*
X436189Y1215950D01*
X439612D01*
X442918Y1216836D01*
X445882Y1218547D01*
X448303Y1220968D01*
X450014Y1223932D01*
X450900Y1227238D01*
Y1230661D01*
X450014Y1233968D01*
X448303Y1236932D01*
X445882Y1239353D01*
X442918Y1241064D01*
X439612Y1241950D01*
D02*
G37*
G36*
X549848Y1236000D02*
X546952D01*
X544154Y1235250D01*
X541646Y1233802D01*
X539598Y1231754D01*
X538150Y1229246D01*
X537400Y1226448D01*
Y1223552D01*
X538150Y1220754D01*
X539598Y1218246D01*
X541646Y1216198D01*
X544154Y1214750D01*
X546952Y1214000D01*
X549848D01*
X552646Y1214750D01*
X555154Y1216198D01*
X557202Y1218246D01*
X558650Y1220754D01*
X559400Y1223552D01*
Y1226448D01*
X558650Y1229246D01*
X557202Y1231754D01*
X555154Y1233802D01*
X552646Y1235250D01*
X549848Y1236000D01*
D02*
G37*
G36*
X524448D02*
X521552D01*
X518754Y1235250D01*
X516246Y1233802D01*
X514198Y1231754D01*
X512750Y1229246D01*
X512000Y1226448D01*
Y1223552D01*
X512750Y1220754D01*
X514198Y1218246D01*
X516246Y1216198D01*
X518754Y1214750D01*
X521552Y1214000D01*
X524448D01*
X527246Y1214750D01*
X529754Y1216198D01*
X531802Y1218246D01*
X533250Y1220754D01*
X534000Y1223552D01*
Y1226448D01*
X533250Y1229246D01*
X531802Y1231754D01*
X529754Y1233802D01*
X527246Y1235250D01*
X524448Y1236000D01*
D02*
G37*
G36*
X499048D02*
X496152D01*
X493354Y1235250D01*
X490846Y1233802D01*
X488798Y1231754D01*
X487350Y1229246D01*
X486600Y1226448D01*
Y1223552D01*
X487350Y1220754D01*
X488798Y1218246D01*
X490846Y1216198D01*
X493354Y1214750D01*
X496152Y1214000D01*
X499048D01*
X501846Y1214750D01*
X504354Y1216198D01*
X506402Y1218246D01*
X507850Y1220754D01*
X508600Y1223552D01*
Y1226448D01*
X507850Y1229246D01*
X506402Y1231754D01*
X504354Y1233802D01*
X501846Y1235250D01*
X499048Y1236000D01*
D02*
G37*
G36*
X597771Y1227713D02*
X592656D01*
X587603Y1226913D01*
X582738Y1225332D01*
X578180Y1223010D01*
X574041Y1220003D01*
X570424Y1216386D01*
X567417Y1212247D01*
X565095Y1207689D01*
X563514Y1202824D01*
X562714Y1197771D01*
Y1192656D01*
X563514Y1187603D01*
X565095Y1182738D01*
X567417Y1178180D01*
X570424Y1174041D01*
X574041Y1170424D01*
X578180Y1167417D01*
X582738Y1165095D01*
X587603Y1163514D01*
X592656Y1162713D01*
X597771D01*
X602824Y1163514D01*
X607689Y1165095D01*
X612247Y1167417D01*
X616386Y1170424D01*
X620003Y1174041D01*
X623010Y1178180D01*
X625332Y1182738D01*
X626913Y1187603D01*
X627714Y1192656D01*
Y1197771D01*
X626913Y1202824D01*
X625332Y1207689D01*
X623010Y1212247D01*
X620003Y1216386D01*
X616386Y1220003D01*
X612247Y1223010D01*
X607689Y1225332D01*
X602824Y1226913D01*
X597771Y1227713D01*
D02*
G37*
G36*
X563662Y1128363D02*
X560765D01*
X557968Y1127614D01*
X555459Y1126166D01*
X553411Y1124118D01*
X551963Y1121609D01*
X551213Y1118812D01*
Y1115915D01*
X551963Y1113118D01*
X553411Y1110609D01*
X555459Y1108561D01*
X557968Y1107113D01*
X560765Y1106364D01*
X563662D01*
X566459Y1107113D01*
X568968Y1108561D01*
X571016Y1110609D01*
X572464Y1113118D01*
X573214Y1115915D01*
Y1118812D01*
X572464Y1121609D01*
X571016Y1124118D01*
X568968Y1126166D01*
X566459Y1127614D01*
X563662Y1128363D01*
D02*
G37*
G36*
X359844Y1116000D02*
X357656D01*
X355634Y1115163D01*
X354087Y1113615D01*
X353250Y1111594D01*
Y1109406D01*
X354087Y1107384D01*
X355634Y1105837D01*
X357656Y1105000D01*
X359844D01*
X361866Y1105837D01*
X363413Y1107384D01*
X364250Y1109406D01*
Y1111594D01*
X363413Y1113615D01*
X361866Y1115163D01*
X359844Y1116000D01*
D02*
G37*
G36*
X343344Y1093500D02*
X341156D01*
X339134Y1092663D01*
X337587Y1091115D01*
X336750Y1089094D01*
Y1086906D01*
X337587Y1084884D01*
X339134Y1083337D01*
X341156Y1082500D01*
X343344D01*
X345365Y1083337D01*
X346913Y1084884D01*
X347750Y1086906D01*
Y1089094D01*
X346913Y1091115D01*
X345365Y1092663D01*
X343344Y1093500D01*
D02*
G37*
G36*
X563662Y1102963D02*
X560765D01*
X557968Y1102214D01*
X555459Y1100766D01*
X553411Y1098718D01*
X551963Y1096209D01*
X551213Y1093412D01*
Y1090515D01*
X551963Y1087718D01*
X553411Y1085209D01*
X555459Y1083161D01*
X557968Y1081713D01*
X560765Y1080964D01*
X563662D01*
X566459Y1081713D01*
X568968Y1083161D01*
X571016Y1085209D01*
X572464Y1087718D01*
X573214Y1090515D01*
Y1093412D01*
X572464Y1096209D01*
X571016Y1098718D01*
X568968Y1100766D01*
X566459Y1102214D01*
X563662Y1102963D01*
D02*
G37*
G36*
X583094Y1072250D02*
X580906D01*
X578885Y1071413D01*
X577337Y1069865D01*
X576500Y1067844D01*
Y1065656D01*
X577337Y1063634D01*
X578885Y1062087D01*
X580906Y1061250D01*
X583094D01*
X585116Y1062087D01*
X586663Y1063634D01*
X587500Y1065656D01*
Y1067844D01*
X586663Y1069865D01*
X585116Y1071413D01*
X583094Y1072250D01*
D02*
G37*
G36*
X563662Y1077563D02*
X560765D01*
X557968Y1076814D01*
X555459Y1075366D01*
X553411Y1073318D01*
X551963Y1070809D01*
X551213Y1068012D01*
Y1065115D01*
X551963Y1062318D01*
X553411Y1059809D01*
X555459Y1057761D01*
X557968Y1056313D01*
X560765Y1055564D01*
X563662D01*
X566459Y1056313D01*
X568968Y1057761D01*
X571016Y1059809D01*
X572464Y1062318D01*
X573214Y1065115D01*
Y1068012D01*
X572464Y1070809D01*
X571016Y1073318D01*
X568968Y1075366D01*
X566459Y1076814D01*
X563662Y1077563D01*
D02*
G37*
G36*
Y1052163D02*
X560765D01*
X557968Y1051414D01*
X555459Y1049966D01*
X553411Y1047918D01*
X551963Y1045409D01*
X551213Y1042612D01*
Y1039715D01*
X551963Y1036918D01*
X553411Y1034409D01*
X555459Y1032361D01*
X557968Y1030913D01*
X560765Y1030163D01*
X563662D01*
X566459Y1030913D01*
X568968Y1032361D01*
X571016Y1034409D01*
X572464Y1036918D01*
X573214Y1039715D01*
Y1042612D01*
X572464Y1045409D01*
X571016Y1047918D01*
X568968Y1049966D01*
X566459Y1051414D01*
X563662Y1052163D01*
D02*
G37*
G36*
X342094Y1037000D02*
X339906D01*
X337884Y1036163D01*
X336337Y1034615D01*
X335500Y1032594D01*
Y1030406D01*
X336337Y1028384D01*
X337884Y1026837D01*
X339906Y1026000D01*
X342094D01*
X344115Y1026837D01*
X345663Y1028384D01*
X346500Y1030406D01*
Y1032594D01*
X345663Y1034615D01*
X344115Y1036163D01*
X342094Y1037000D01*
D02*
G37*
G36*
X563662Y1026764D02*
X560765D01*
X557968Y1026014D01*
X555459Y1024566D01*
X553411Y1022518D01*
X551963Y1020009D01*
X551213Y1017212D01*
Y1014315D01*
X551963Y1011518D01*
X553411Y1009009D01*
X555459Y1006961D01*
X557968Y1005513D01*
X560765Y1004763D01*
X563662D01*
X566459Y1005513D01*
X568968Y1006961D01*
X571016Y1009009D01*
X572464Y1011518D01*
X573214Y1014315D01*
Y1017212D01*
X572464Y1020009D01*
X571016Y1022518D01*
X568968Y1024566D01*
X566459Y1026014D01*
X563662Y1026764D01*
D02*
G37*
G36*
Y1001364D02*
X560765D01*
X557968Y1000614D01*
X555459Y999166D01*
X553411Y997118D01*
X551963Y994609D01*
X551213Y991812D01*
Y988915D01*
X551963Y986118D01*
X553411Y983609D01*
X555459Y981561D01*
X557968Y980113D01*
X560765Y979363D01*
X563662D01*
X566459Y980113D01*
X568968Y981561D01*
X571016Y983609D01*
X572464Y986118D01*
X573214Y988915D01*
Y991812D01*
X572464Y994609D01*
X571016Y997118D01*
X568968Y999166D01*
X566459Y1000614D01*
X563662Y1001364D01*
D02*
G37*
G36*
Y925964D02*
X560765D01*
X557968Y925214D01*
X555459Y923766D01*
X553411Y921718D01*
X551963Y919209D01*
X551213Y916412D01*
Y913515D01*
X551963Y910718D01*
X553411Y908209D01*
X555459Y906161D01*
X557968Y904713D01*
X560765Y903963D01*
X563662D01*
X566459Y904713D01*
X568968Y906161D01*
X571016Y908209D01*
X572464Y910718D01*
X573214Y913515D01*
Y916412D01*
X572464Y919209D01*
X571016Y921718D01*
X568968Y923766D01*
X566459Y925214D01*
X563662Y925964D01*
D02*
G37*
G36*
Y900564D02*
X560765D01*
X557968Y899814D01*
X555459Y898366D01*
X553411Y896318D01*
X551963Y893809D01*
X551213Y891012D01*
Y888115D01*
X551963Y885318D01*
X553411Y882809D01*
X555459Y880761D01*
X557968Y879313D01*
X560765Y878564D01*
X563662D01*
X566459Y879313D01*
X568968Y880761D01*
X571016Y882809D01*
X572464Y885318D01*
X573214Y888115D01*
Y891012D01*
X572464Y893809D01*
X571016Y896318D01*
X568968Y898366D01*
X566459Y899814D01*
X563662Y900564D01*
D02*
G37*
G36*
X583094Y870250D02*
X580906D01*
X578885Y869413D01*
X577337Y867866D01*
X576500Y865844D01*
Y863656D01*
X577337Y861635D01*
X578885Y860087D01*
X580906Y859250D01*
X583094D01*
X585116Y860087D01*
X586663Y861635D01*
X587500Y863656D01*
Y865844D01*
X586663Y867866D01*
X585116Y869413D01*
X583094Y870250D01*
D02*
G37*
G36*
X563662Y875163D02*
X560765D01*
X557968Y874414D01*
X555459Y872966D01*
X553411Y870918D01*
X551963Y868409D01*
X551213Y865612D01*
Y862715D01*
X551963Y859918D01*
X553411Y857409D01*
X555459Y855361D01*
X557968Y853913D01*
X560765Y853164D01*
X563662D01*
X566459Y853913D01*
X568968Y855361D01*
X571016Y857409D01*
X572464Y859918D01*
X573214Y862715D01*
Y865612D01*
X572464Y868409D01*
X571016Y870918D01*
X568968Y872966D01*
X566459Y874414D01*
X563662Y875163D01*
D02*
G37*
G36*
X299998Y871650D02*
X297102D01*
X294304Y870900D01*
X291796Y869452D01*
X289748Y867404D01*
X288300Y864896D01*
X287550Y862098D01*
Y859202D01*
X288300Y856404D01*
X289748Y853896D01*
X291796Y851848D01*
X294304Y850400D01*
X297102Y849650D01*
X299998D01*
X302796Y850400D01*
X305304Y851848D01*
X307352Y853896D01*
X308800Y856404D01*
X309550Y859202D01*
Y862098D01*
X308800Y864896D01*
X307352Y867404D01*
X305304Y869452D01*
X302796Y870900D01*
X299998Y871650D01*
D02*
G37*
G36*
X563662Y849763D02*
X560765D01*
X557968Y849014D01*
X555459Y847566D01*
X553411Y845518D01*
X551963Y843009D01*
X551213Y840212D01*
Y837315D01*
X551963Y834518D01*
X553411Y832009D01*
X555459Y829961D01*
X557968Y828513D01*
X560765Y827764D01*
X563662D01*
X566459Y828513D01*
X568968Y829961D01*
X571016Y832009D01*
X572464Y834518D01*
X573214Y837315D01*
Y840212D01*
X572464Y843009D01*
X571016Y845518D01*
X568968Y847566D01*
X566459Y849014D01*
X563662Y849763D01*
D02*
G37*
G36*
X299998Y846250D02*
X297102D01*
X294304Y845500D01*
X291796Y844052D01*
X289748Y842004D01*
X288300Y839496D01*
X287550Y836698D01*
Y833802D01*
X288300Y831004D01*
X289748Y828496D01*
X291796Y826448D01*
X294304Y825000D01*
X297102Y824250D01*
X299998D01*
X302796Y825000D01*
X305304Y826448D01*
X307352Y828496D01*
X308800Y831004D01*
X309550Y833802D01*
Y836698D01*
X308800Y839496D01*
X307352Y842004D01*
X305304Y844052D01*
X302796Y845500D01*
X299998Y846250D01*
D02*
G37*
G36*
X563662Y824363D02*
X560765D01*
X557968Y823614D01*
X555459Y822166D01*
X553411Y820118D01*
X551963Y817609D01*
X551213Y814812D01*
Y811915D01*
X551963Y809118D01*
X553411Y806609D01*
X555459Y804561D01*
X557968Y803113D01*
X560765Y802364D01*
X563662D01*
X566459Y803113D01*
X568968Y804561D01*
X571016Y806609D01*
X572464Y809118D01*
X573214Y811915D01*
Y814812D01*
X572464Y817609D01*
X571016Y820118D01*
X568968Y822166D01*
X566459Y823614D01*
X563662Y824363D01*
D02*
G37*
G36*
Y798963D02*
X560765D01*
X557968Y798214D01*
X555459Y796766D01*
X553411Y794718D01*
X551963Y792209D01*
X551213Y789412D01*
Y786515D01*
X551963Y783718D01*
X553411Y781209D01*
X555459Y779161D01*
X557968Y777713D01*
X560765Y776964D01*
X563662D01*
X566459Y777713D01*
X568968Y779161D01*
X571016Y781209D01*
X572464Y783718D01*
X573214Y786515D01*
Y789412D01*
X572464Y792209D01*
X571016Y794718D01*
X568968Y796766D01*
X566459Y798214D01*
X563662Y798963D01*
D02*
G37*
G36*
X311344Y785250D02*
X309156D01*
X307134Y784413D01*
X305587Y782866D01*
X304750Y780844D01*
Y778656D01*
X305587Y776635D01*
X307134Y775087D01*
X309156Y774250D01*
X311344D01*
X313365Y775087D01*
X314913Y776635D01*
X315750Y778656D01*
Y780844D01*
X314913Y782866D01*
X313365Y784413D01*
X311344Y785250D01*
D02*
G37*
G36*
X268594Y768750D02*
X266406D01*
X264384Y767913D01*
X262837Y766366D01*
X262000Y764344D01*
Y762156D01*
X262837Y760135D01*
X264384Y758587D01*
X266406Y757750D01*
X268594D01*
X270616Y758587D01*
X272163Y760135D01*
X273000Y762156D01*
Y764344D01*
X272163Y766366D01*
X270616Y767913D01*
X268594Y768750D01*
D02*
G37*
G36*
X203344Y763250D02*
X201156D01*
X199135Y762413D01*
X197587Y760865D01*
X196750Y758844D01*
Y756656D01*
X197587Y754634D01*
X199135Y753087D01*
X201156Y752250D01*
X203344D01*
X205366Y753087D01*
X206913Y754634D01*
X207750Y756656D01*
Y758844D01*
X206913Y760865D01*
X205366Y762413D01*
X203344Y763250D01*
D02*
G37*
G36*
X268594Y733250D02*
X266406D01*
X264384Y732413D01*
X262837Y730865D01*
X262000Y728844D01*
Y726656D01*
X262837Y724634D01*
X264384Y723087D01*
X266406Y722250D01*
X268594D01*
X270616Y723087D01*
X272163Y724634D01*
X273000Y726656D01*
Y728844D01*
X272163Y730865D01*
X270616Y732413D01*
X268594Y733250D01*
D02*
G37*
G36*
X47469Y713750D02*
X45281D01*
X43260Y712913D01*
X41712Y711366D01*
X40875Y709344D01*
Y707688D01*
X40594Y707500D01*
X38406D01*
X38125Y707688D01*
Y709344D01*
X37288Y711366D01*
X35740Y712913D01*
X33719Y713750D01*
X31531D01*
X29509Y712913D01*
X27962Y711366D01*
X27125Y709344D01*
Y707156D01*
X27962Y705135D01*
X29509Y703587D01*
X31531Y702750D01*
X33719D01*
X33917Y702618D01*
Y702438D01*
X32702Y701250D01*
X31531D01*
X29509Y700413D01*
X27962Y698866D01*
X27125Y696844D01*
Y694656D01*
X27962Y692635D01*
X29509Y691087D01*
X31531Y690250D01*
X33719D01*
X33917Y690118D01*
Y689938D01*
X32702Y688750D01*
X31531D01*
X29509Y687913D01*
X27962Y686366D01*
X27125Y684344D01*
Y682156D01*
X27962Y680135D01*
X29509Y678587D01*
X31531Y677750D01*
X33719D01*
X33917Y677618D01*
Y677438D01*
X32702Y676250D01*
X31531D01*
X29509Y675413D01*
X27962Y673866D01*
X27125Y671844D01*
Y669656D01*
X27962Y667635D01*
X29509Y666087D01*
X31531Y665250D01*
X33719D01*
X35740Y666087D01*
X37288Y667635D01*
X38125Y669656D01*
Y671312D01*
X38406Y671500D01*
X40594D01*
X40875Y671312D01*
Y669656D01*
X41712Y667635D01*
X43260Y666087D01*
X45281Y665250D01*
X47469D01*
X49490Y666087D01*
X51038Y667635D01*
X51875Y669656D01*
Y671844D01*
X51038Y673866D01*
X49490Y675413D01*
X47469Y676250D01*
X45281D01*
X45083Y676382D01*
Y676562D01*
X46298Y677750D01*
X47469D01*
X49490Y678587D01*
X51038Y680135D01*
X51875Y682156D01*
Y684344D01*
X51038Y686366D01*
X49490Y687913D01*
X47469Y688750D01*
X45281D01*
X45083Y688882D01*
Y689062D01*
X46298Y690250D01*
X47469D01*
X49490Y691087D01*
X51038Y692635D01*
X51875Y694656D01*
Y696844D01*
X51038Y698866D01*
X49490Y700413D01*
X47469Y701250D01*
X45281D01*
X45083Y701382D01*
Y701562D01*
X46298Y702750D01*
X47469D01*
X49490Y703587D01*
X51038Y705135D01*
X51875Y707156D01*
Y709344D01*
X51038Y711366D01*
X49490Y712913D01*
X47469Y713750D01*
D02*
G37*
G36*
X110594Y717500D02*
X108406D01*
X106384Y716663D01*
X104837Y715116D01*
X104000Y713094D01*
Y710906D01*
X104837Y708885D01*
X106384Y707337D01*
X108406Y706500D01*
X110594D01*
X112615Y707337D01*
X114163Y708885D01*
X115000Y710906D01*
Y713094D01*
X114163Y715116D01*
X112615Y716663D01*
X110594Y717500D01*
D02*
G37*
G36*
X138344Y703500D02*
X136156D01*
X134135Y702663D01*
X132587Y701115D01*
X131750Y699094D01*
Y696906D01*
X132587Y694884D01*
X134135Y693337D01*
X136156Y692500D01*
X138344D01*
X140365Y693337D01*
X141913Y694884D01*
X142750Y696906D01*
Y699094D01*
X141913Y701115D01*
X140365Y702663D01*
X138344Y703500D01*
D02*
G37*
G36*
X268594Y697750D02*
X266406D01*
X264384Y696913D01*
X262837Y695366D01*
X262000Y693344D01*
Y691156D01*
X262837Y689135D01*
X264384Y687587D01*
X266406Y686750D01*
X268594D01*
X270616Y687587D01*
X272163Y689135D01*
X273000Y691156D01*
Y693344D01*
X272163Y695366D01*
X270616Y696913D01*
X268594Y697750D01*
D02*
G37*
G36*
X203344Y692250D02*
X201156D01*
X199135Y691413D01*
X197587Y689865D01*
X196750Y687844D01*
Y685656D01*
X197587Y683634D01*
X199135Y682087D01*
X201156Y681250D01*
X203344D01*
X205366Y682087D01*
X206913Y683634D01*
X207750Y685656D01*
Y687844D01*
X206913Y689865D01*
X205366Y691413D01*
X203344Y692250D01*
D02*
G37*
G36*
X138344Y686500D02*
X136156D01*
X134135Y685663D01*
X132587Y684116D01*
X131750Y682094D01*
Y679906D01*
X132587Y677885D01*
X134135Y676337D01*
X136156Y675500D01*
X138344D01*
X140365Y676337D01*
X141913Y677885D01*
X142750Y679906D01*
Y682094D01*
X141913Y684116D01*
X140365Y685663D01*
X138344Y686500D01*
D02*
G37*
G36*
X183365Y670750D02*
X181177D01*
X179155Y669913D01*
X177608Y668365D01*
X176771Y666344D01*
Y664156D01*
X177608Y662134D01*
X179155Y660587D01*
X181177Y659750D01*
X183365D01*
X185386Y660587D01*
X186933Y662134D01*
X187771Y664156D01*
Y666344D01*
X186933Y668365D01*
X185386Y669913D01*
X183365Y670750D01*
D02*
G37*
G36*
X225594Y661000D02*
X223406D01*
X221385Y660163D01*
X219837Y658615D01*
X219000Y656594D01*
Y656164D01*
X217944Y655459D01*
X217844Y655500D01*
X215656D01*
X215556Y655459D01*
X214500Y656164D01*
Y656594D01*
X213663Y658615D01*
X212115Y660163D01*
X210094Y661000D01*
X207906D01*
X205884Y660163D01*
X204337Y658615D01*
X203500Y656594D01*
Y656164D01*
X202444Y655459D01*
X202344Y655500D01*
X200156D01*
X200056Y655459D01*
X199000Y656164D01*
Y656594D01*
X198163Y658615D01*
X196616Y660163D01*
X194594Y661000D01*
X192406D01*
X190385Y660163D01*
X188837Y658615D01*
X188000Y656594D01*
Y656164D01*
X186944Y655459D01*
X186844Y655500D01*
X184656D01*
X182635Y654663D01*
X181087Y653115D01*
X180250Y651094D01*
Y648906D01*
X181087Y646885D01*
X182635Y645337D01*
X184656Y644500D01*
X186844D01*
X186944Y644541D01*
X188000Y643836D01*
Y643406D01*
X188837Y641385D01*
X190385Y639837D01*
X192406Y639000D01*
X194594D01*
X196616Y639837D01*
X198163Y641385D01*
X199000Y643406D01*
Y643836D01*
X200056Y644541D01*
X200156Y644500D01*
X202344D01*
X202444Y644541D01*
X203500Y643836D01*
Y643406D01*
X204337Y641385D01*
X205884Y639837D01*
X207906Y639000D01*
X210094D01*
X212115Y639837D01*
X213663Y641385D01*
X214500Y643406D01*
Y643836D01*
X215556Y644541D01*
X215656Y644500D01*
X217844D01*
X217944Y644541D01*
X219000Y643836D01*
Y643406D01*
X219837Y641385D01*
X221385Y639837D01*
X223406Y639000D01*
X225594D01*
X227616Y639837D01*
X229163Y641385D01*
X230000Y643406D01*
Y643836D01*
X231056Y644541D01*
X231156Y644500D01*
X233344D01*
X235366Y645337D01*
X236913Y646885D01*
X237750Y648906D01*
Y651094D01*
X236913Y653115D01*
X235366Y654663D01*
X233344Y655500D01*
X231156D01*
X231056Y655459D01*
X230000Y656164D01*
Y656594D01*
X229163Y658615D01*
X227616Y660163D01*
X225594Y661000D01*
D02*
G37*
G36*
X181448Y628000D02*
X178552D01*
X175754Y627250D01*
X173246Y625802D01*
X171198Y623754D01*
X169750Y621246D01*
X169000Y618448D01*
Y615552D01*
X169750Y612754D01*
X171198Y610246D01*
X173246Y608198D01*
X175754Y606750D01*
X178552Y606000D01*
X181448D01*
X184246Y606750D01*
X186754Y608198D01*
X188802Y610246D01*
X190250Y612754D01*
X191000Y615552D01*
Y618448D01*
X190250Y621246D01*
X188802Y623754D01*
X186754Y625802D01*
X184246Y627250D01*
X181448Y628000D01*
D02*
G37*
G36*
X156048D02*
X153152D01*
X150354Y627250D01*
X147846Y625802D01*
X145798Y623754D01*
X144350Y621246D01*
X143600Y618448D01*
Y615552D01*
X144350Y612754D01*
X145798Y610246D01*
X147846Y608198D01*
X150354Y606750D01*
X153152Y606000D01*
X156048D01*
X158846Y606750D01*
X161354Y608198D01*
X163402Y610246D01*
X164850Y612754D01*
X165600Y615552D01*
Y618448D01*
X164850Y621246D01*
X163402Y623754D01*
X161354Y625802D01*
X158846Y627250D01*
X156048Y628000D01*
D02*
G37*
G36*
X130648D02*
X127752D01*
X124954Y627250D01*
X122446Y625802D01*
X120398Y623754D01*
X118950Y621246D01*
X118200Y618448D01*
Y615552D01*
X118950Y612754D01*
X120398Y610246D01*
X122446Y608198D01*
X124954Y606750D01*
X127752Y606000D01*
X130648D01*
X133446Y606750D01*
X135954Y608198D01*
X138002Y610246D01*
X139450Y612754D01*
X140200Y615552D01*
Y618448D01*
X139450Y621246D01*
X138002Y623754D01*
X135954Y625802D01*
X133446Y627250D01*
X130648Y628000D01*
D02*
G37*
G36*
X216712Y629600D02*
X213288D01*
X209982Y628714D01*
X207018Y627003D01*
X204597Y624582D01*
X202886Y621618D01*
X202000Y618312D01*
Y614888D01*
X202886Y611582D01*
X204597Y608618D01*
X207018Y606197D01*
X209982Y604486D01*
X213288Y603600D01*
X216712D01*
X220018Y604486D01*
X222982Y606197D01*
X225403Y608618D01*
X227114Y611582D01*
X228000Y614888D01*
Y618312D01*
X227114Y621618D01*
X225403Y624582D01*
X222982Y627003D01*
X220018Y628714D01*
X216712Y629600D01*
D02*
G37*
G36*
X47219Y587250D02*
X45031D01*
X43010Y586413D01*
X41462Y584865D01*
X40625Y582844D01*
Y581188D01*
X40344Y581000D01*
X38156D01*
X37875Y581188D01*
Y582844D01*
X37038Y584865D01*
X35491Y586413D01*
X33469Y587250D01*
X31281D01*
X29260Y586413D01*
X27712Y584865D01*
X26875Y582844D01*
Y580656D01*
X27712Y578634D01*
X29260Y577087D01*
X31281Y576250D01*
X33469D01*
X33667Y576118D01*
Y575938D01*
X32452Y574750D01*
X31281D01*
X29260Y573913D01*
X27712Y572365D01*
X26875Y570344D01*
Y568156D01*
X27712Y566134D01*
X29260Y564587D01*
X31281Y563750D01*
X33469D01*
X33667Y563618D01*
Y563438D01*
X32452Y562250D01*
X31281D01*
X29260Y561413D01*
X27712Y559865D01*
X26875Y557844D01*
Y555656D01*
X27712Y553634D01*
X29260Y552087D01*
X31281Y551250D01*
X33469D01*
X33667Y551118D01*
Y550938D01*
X32452Y549750D01*
X31281D01*
X29260Y548913D01*
X27712Y547365D01*
X26875Y545344D01*
Y543156D01*
X27712Y541134D01*
X29260Y539587D01*
X31281Y538750D01*
X33469D01*
X35491Y539587D01*
X37038Y541134D01*
X37875Y543156D01*
Y544812D01*
X38156Y545000D01*
X40344D01*
X40625Y544812D01*
Y543156D01*
X41462Y541134D01*
X43010Y539587D01*
X45031Y538750D01*
X47219D01*
X49240Y539587D01*
X50788Y541134D01*
X51625Y543156D01*
Y545344D01*
X50788Y547365D01*
X49240Y548913D01*
X47219Y549750D01*
X45031D01*
X44833Y549882D01*
Y550062D01*
X46048Y551250D01*
X47219D01*
X49240Y552087D01*
X50788Y553634D01*
X51625Y555656D01*
Y557844D01*
X50788Y559865D01*
X49240Y561413D01*
X47219Y562250D01*
X45031D01*
X44833Y562382D01*
Y562562D01*
X46048Y563750D01*
X47219D01*
X49240Y564587D01*
X50788Y566134D01*
X51625Y568156D01*
Y570344D01*
X50788Y572365D01*
X49240Y573913D01*
X47219Y574750D01*
X45031D01*
X44833Y574882D01*
Y575062D01*
X46048Y576250D01*
X47219D01*
X49240Y577087D01*
X50788Y578634D01*
X51625Y580656D01*
Y582844D01*
X50788Y584865D01*
X49240Y586413D01*
X47219Y587250D01*
D02*
G37*
G36*
X216712Y594000D02*
X213288D01*
X209982Y593114D01*
X207018Y591403D01*
X204597Y588982D01*
X202886Y586018D01*
X202000Y582711D01*
Y579288D01*
X202886Y575982D01*
X204597Y573018D01*
X207018Y570597D01*
X209982Y568886D01*
X213288Y568000D01*
X216712D01*
X220018Y568886D01*
X222982Y570597D01*
X225403Y573018D01*
X227114Y575982D01*
X228000Y579288D01*
Y582711D01*
X227114Y586018D01*
X225403Y588982D01*
X222982Y591403D01*
X220018Y593114D01*
X216712Y594000D01*
D02*
G37*
G36*
X113094Y583500D02*
X110906D01*
X108884Y582663D01*
X107337Y581115D01*
X106500Y579094D01*
Y576906D01*
X107337Y574884D01*
X108884Y573337D01*
X109247Y573187D01*
Y571813D01*
X108884Y571663D01*
X107337Y570116D01*
X106500Y568094D01*
Y565906D01*
X107337Y563885D01*
X108884Y562337D01*
X110906Y561500D01*
X113094D01*
X115115Y562337D01*
X116663Y563885D01*
X117500Y565906D01*
Y568094D01*
X116663Y570116D01*
X115115Y571663D01*
X114753Y571813D01*
Y573187D01*
X115115Y573337D01*
X116663Y574884D01*
X117500Y576906D01*
Y579094D01*
X116663Y581115D01*
X115115Y582663D01*
X113094Y583500D01*
D02*
G37*
G36*
X184332Y583120D02*
X181668D01*
X179094Y582430D01*
X176786Y581098D01*
X174902Y579214D01*
X173570Y576906D01*
X172880Y574332D01*
Y571668D01*
X173570Y569094D01*
X174902Y566786D01*
X176786Y564902D01*
X178339Y564006D01*
X178311Y562556D01*
X176479Y561498D01*
X174502Y559521D01*
X173104Y557099D01*
X173077Y557000D01*
X192923D01*
X192896Y557099D01*
X191498Y559521D01*
X189521Y561498D01*
X187689Y562556D01*
X187661Y564006D01*
X189214Y564902D01*
X191098Y566786D01*
X192430Y569094D01*
X193120Y571668D01*
Y574332D01*
X192430Y576906D01*
X191098Y579214D01*
X189214Y581098D01*
X186906Y582430D01*
X184332Y583120D01*
D02*
G37*
G36*
X192923Y549000D02*
X187000D01*
Y543077D01*
X187099Y543104D01*
X189521Y544502D01*
X191498Y546479D01*
X192896Y548901D01*
X192923Y549000D01*
D02*
G37*
G36*
X179000D02*
X173077D01*
X173104Y548901D01*
X174502Y546479D01*
X176479Y544502D01*
X178901Y543104D01*
X179000Y543077D01*
Y549000D01*
D02*
G37*
G36*
X228500Y559500D02*
X201250D01*
Y538500D01*
X208750Y531000D01*
X221250D01*
X228500Y538250D01*
Y559500D01*
D02*
G37*
G36*
X116844Y539750D02*
X114656D01*
X112634Y538913D01*
X111087Y537365D01*
X110250Y535344D01*
Y533156D01*
X111087Y531134D01*
X112634Y529587D01*
X114656Y528750D01*
X116844D01*
X118865Y529587D01*
X120413Y531134D01*
X121250Y533156D01*
Y535344D01*
X120413Y537365D01*
X118865Y538913D01*
X116844Y539750D01*
D02*
G37*
G36*
X300094Y520750D02*
X297906D01*
X295884Y519913D01*
X294337Y518366D01*
X293500Y516344D01*
Y515914D01*
X292444Y515209D01*
X292344Y515250D01*
X290156D01*
X290056Y515209D01*
X289000Y515914D01*
Y516344D01*
X288163Y518366D01*
X286616Y519913D01*
X284594Y520750D01*
X282406D01*
X280385Y519913D01*
X278837Y518366D01*
X278000Y516344D01*
Y515914D01*
X276944Y515209D01*
X276844Y515250D01*
X274656D01*
X274556Y515209D01*
X273500Y515914D01*
Y516344D01*
X272663Y518366D01*
X271115Y519913D01*
X269094Y520750D01*
X266906D01*
X264884Y519913D01*
X263337Y518366D01*
X262500Y516344D01*
Y515914D01*
X261444Y515209D01*
X261344Y515250D01*
X259156D01*
X259056Y515209D01*
X258000Y515914D01*
Y516344D01*
X257163Y518366D01*
X255616Y519913D01*
X253594Y520750D01*
X251406D01*
X249384Y519913D01*
X247837Y518366D01*
X247000Y516344D01*
Y515914D01*
X245944Y515209D01*
X245844Y515250D01*
X243656D01*
X243556Y515209D01*
X242500Y515914D01*
Y516344D01*
X241663Y518366D01*
X240116Y519913D01*
X238094Y520750D01*
X235906D01*
X233885Y519913D01*
X232337Y518366D01*
X231500Y516344D01*
Y515914D01*
X230444Y515209D01*
X230344Y515250D01*
X228156D01*
X226134Y514413D01*
X224587Y512865D01*
X223750Y510844D01*
Y508656D01*
X224587Y506634D01*
X226134Y505087D01*
X228156Y504250D01*
X230344D01*
X230444Y504291D01*
X231500Y503586D01*
Y503156D01*
X232337Y501134D01*
X233885Y499587D01*
X235906Y498750D01*
X238094D01*
X240116Y499587D01*
X241663Y501134D01*
X242500Y503156D01*
Y503586D01*
X243556Y504291D01*
X243656Y504250D01*
X245844D01*
X245944Y504291D01*
X247000Y503586D01*
Y503156D01*
X247837Y501134D01*
X249384Y499587D01*
X251406Y498750D01*
X253594D01*
X255616Y499587D01*
X257163Y501134D01*
X258000Y503156D01*
Y503586D01*
X259056Y504291D01*
X259156Y504250D01*
X261344D01*
X261444Y504291D01*
X262500Y503586D01*
Y503156D01*
X263337Y501134D01*
X264884Y499587D01*
X266906Y498750D01*
X269094D01*
X271115Y499587D01*
X272663Y501134D01*
X273500Y503156D01*
Y503586D01*
X274556Y504291D01*
X274656Y504250D01*
X276844D01*
X276944Y504291D01*
X278000Y503586D01*
Y503156D01*
X278837Y501134D01*
X280385Y499587D01*
X282406Y498750D01*
X284594D01*
X286616Y499587D01*
X288163Y501134D01*
X289000Y503156D01*
Y503586D01*
X290056Y504291D01*
X290156Y504250D01*
X292344D01*
X292444Y504291D01*
X293500Y503586D01*
Y503156D01*
X294337Y501134D01*
X295884Y499587D01*
X297906Y498750D01*
X300094D01*
X302115Y499587D01*
X303663Y501134D01*
X304359Y502817D01*
X305370Y503187D01*
X305770Y503202D01*
X306635Y502337D01*
X308656Y501500D01*
X310844D01*
X312866Y502337D01*
X314413Y503885D01*
X315250Y505906D01*
Y508094D01*
X314413Y510116D01*
X312866Y511663D01*
X310844Y512500D01*
X308656D01*
X306635Y511663D01*
X305087Y510116D01*
X304391Y508433D01*
X303379Y508063D01*
X302980Y508048D01*
X302115Y508913D01*
X301753Y509063D01*
Y510437D01*
X302115Y510587D01*
X303663Y512135D01*
X304500Y514156D01*
Y516344D01*
X303663Y518366D01*
X302115Y519913D01*
X300094Y520750D01*
D02*
G37*
G36*
X147594Y549250D02*
X145406D01*
X143385Y548413D01*
X141837Y546866D01*
X141000Y544844D01*
Y542656D01*
X141837Y540634D01*
X142892Y539580D01*
X143242Y538750D01*
X142892Y537920D01*
X141837Y536866D01*
X141000Y534844D01*
Y532656D01*
X141837Y530634D01*
X142892Y529580D01*
X143242Y528750D01*
X142892Y527920D01*
X141837Y526866D01*
X141000Y524844D01*
Y522656D01*
X141837Y520634D01*
X142892Y519580D01*
X143242Y518750D01*
X142892Y517920D01*
X141837Y516866D01*
X141000Y514844D01*
Y512656D01*
X141837Y510634D01*
X143385Y509087D01*
X145406Y508250D01*
X147594D01*
X149615Y509087D01*
X150670Y510142D01*
X151428Y510523D01*
X152330Y510142D01*
X152892Y509580D01*
X153212Y508822D01*
X152915Y507944D01*
X151837Y506866D01*
X151000Y504844D01*
Y502656D01*
X151837Y500634D01*
X153385Y499087D01*
X155406Y498250D01*
X157594D01*
X159615Y499087D01*
X160670Y500142D01*
X161500Y500492D01*
X162330Y500142D01*
X163384Y499087D01*
X165406Y498250D01*
X167594D01*
X169615Y499087D01*
X170670Y500142D01*
X171500Y500492D01*
X172330Y500142D01*
X173384Y499087D01*
X175406Y498250D01*
X177594D01*
X179615Y499087D01*
X180670Y500142D01*
X181500Y500492D01*
X182330Y500142D01*
X183384Y499087D01*
X185406Y498250D01*
X187594D01*
X189615Y499087D01*
X191163Y500634D01*
X192000Y502656D01*
Y504844D01*
X191163Y506866D01*
X189615Y508413D01*
X187594Y509250D01*
X185406D01*
X183384Y508413D01*
X182330Y507358D01*
X181500Y507008D01*
X180670Y507358D01*
X180108Y507920D01*
X179758Y508750D01*
X180108Y509580D01*
X181163Y510634D01*
X182000Y512656D01*
Y514844D01*
X181163Y516866D01*
X179615Y518413D01*
X177594Y519250D01*
X175406D01*
X173384Y518413D01*
X172330Y517358D01*
X171500Y517008D01*
X170670Y517358D01*
X170108Y517920D01*
X169758Y518750D01*
X170108Y519580D01*
X171163Y520634D01*
X172000Y522656D01*
Y524844D01*
X171163Y526866D01*
X169615Y528413D01*
X167594Y529250D01*
X165406D01*
X163384Y528413D01*
X162330Y527358D01*
X161500Y527008D01*
X160670Y527358D01*
X160108Y527920D01*
X159758Y528750D01*
X160108Y529580D01*
X161163Y530634D01*
X162000Y532656D01*
Y534844D01*
X161163Y536866D01*
X159615Y538413D01*
X157594Y539250D01*
X155406D01*
X153385Y538413D01*
X152330Y537358D01*
X151500Y537008D01*
X150670Y537358D01*
X150108Y537920D01*
X149758Y538750D01*
X150108Y539580D01*
X151163Y540634D01*
X152000Y542656D01*
Y544844D01*
X151163Y546866D01*
X149615Y548413D01*
X147594Y549250D01*
D02*
G37*
G36*
X90594Y475750D02*
X88406D01*
X86384Y474913D01*
X84837Y473366D01*
X84000Y471344D01*
Y469156D01*
X84837Y467135D01*
X86384Y465587D01*
X88406Y464750D01*
X90594D01*
X92615Y465587D01*
X94163Y467135D01*
X95000Y469156D01*
Y471344D01*
X94163Y473366D01*
X92615Y474913D01*
X90594Y475750D01*
D02*
G37*
G36*
X264598Y482900D02*
X261702D01*
X258904Y482150D01*
X256396Y480702D01*
X254348Y478654D01*
X252900Y476146D01*
X252150Y473348D01*
Y470452D01*
X252900Y467654D01*
X254348Y465146D01*
X256396Y463098D01*
X258904Y461650D01*
X261702Y460900D01*
X264598D01*
X267396Y461650D01*
X269904Y463098D01*
X271952Y465146D01*
X273400Y467654D01*
X274150Y470452D01*
Y473348D01*
X273400Y476146D01*
X271952Y478654D01*
X269904Y480702D01*
X267396Y482150D01*
X264598Y482900D01*
D02*
G37*
G36*
X239198D02*
X236302D01*
X233504Y482150D01*
X230996Y480702D01*
X228948Y478654D01*
X227500Y476146D01*
X226750Y473348D01*
Y470452D01*
X227500Y467654D01*
X228948Y465146D01*
X230996Y463098D01*
X233504Y461650D01*
X236302Y460900D01*
X239198D01*
X241996Y461650D01*
X244504Y463098D01*
X246552Y465146D01*
X248000Y467654D01*
X248750Y470452D01*
Y473348D01*
X248000Y476146D01*
X246552Y478654D01*
X244504Y480702D01*
X241996Y482150D01*
X239198Y482900D01*
D02*
G37*
G36*
X123517Y469826D02*
X121328D01*
X119307Y468988D01*
X117760Y467441D01*
X116923Y465420D01*
Y463868D01*
X115990D01*
X113968Y463031D01*
X112421Y461483D01*
X111583Y459462D01*
Y457686D01*
X111535Y457621D01*
X110609Y456965D01*
X110410Y456902D01*
X108844Y457551D01*
X106656D01*
X104635Y456714D01*
X103087Y455167D01*
X102250Y453145D01*
Y450957D01*
X103087Y448936D01*
X104635Y447388D01*
X106656Y446551D01*
X108844D01*
X110865Y447388D01*
X112413Y448936D01*
X113250Y450957D01*
Y452733D01*
X113298Y452798D01*
X114225Y453454D01*
X114423Y453517D01*
X115990Y452868D01*
X118177D01*
X120199Y453705D01*
X121746Y455252D01*
X122584Y457274D01*
Y458826D01*
X123517D01*
X125538Y459663D01*
X127085Y461210D01*
X127922Y463232D01*
Y465420D01*
X127085Y467441D01*
X125538Y468988D01*
X123517Y469826D01*
D02*
G37*
G36*
X563662Y473163D02*
X560765D01*
X557968Y472414D01*
X555459Y470966D01*
X553411Y468918D01*
X551963Y466409D01*
X551213Y463612D01*
Y460715D01*
X551963Y457918D01*
X553411Y455409D01*
X555459Y453361D01*
X557968Y451913D01*
X560765Y451163D01*
X563662D01*
X566459Y451913D01*
X568968Y453361D01*
X571016Y455409D01*
X572464Y457918D01*
X573214Y460715D01*
Y463612D01*
X572464Y466409D01*
X571016Y468918D01*
X568968Y470966D01*
X566459Y472414D01*
X563662Y473163D01*
D02*
G37*
G36*
X350344Y462500D02*
X348156D01*
X346134Y461663D01*
X344587Y460116D01*
X343750Y458094D01*
Y455906D01*
X344587Y453885D01*
X345472Y453000D01*
X344587Y452116D01*
X343750Y450094D01*
Y447906D01*
X344587Y445885D01*
X345472Y445000D01*
X344587Y444115D01*
X343750Y442094D01*
Y439906D01*
X344587Y437884D01*
X346134Y436337D01*
X348156Y435500D01*
X350344D01*
X352365Y436337D01*
X353913Y437884D01*
X354750Y439906D01*
Y442094D01*
X353913Y444115D01*
X353028Y445000D01*
X353913Y445885D01*
X354750Y447906D01*
Y450094D01*
X353913Y452116D01*
X353028Y453000D01*
X353913Y453885D01*
X354750Y455906D01*
Y458094D01*
X353913Y460116D01*
X352365Y461663D01*
X350344Y462500D01*
D02*
G37*
G36*
X360544Y437500D02*
X358356D01*
X356334Y436663D01*
X354787Y435116D01*
X353950Y433094D01*
Y430906D01*
X354787Y428885D01*
X356334Y427337D01*
X358356Y426500D01*
X360544D01*
X362565Y427337D01*
X364113Y428885D01*
X364950Y430906D01*
Y433094D01*
X364113Y435116D01*
X362565Y436663D01*
X360544Y437500D01*
D02*
G37*
G36*
X563662Y447763D02*
X560765D01*
X557968Y447014D01*
X555459Y445566D01*
X553411Y443518D01*
X551963Y441009D01*
X551213Y438212D01*
Y435315D01*
X551963Y432518D01*
X553411Y430009D01*
X555459Y427961D01*
X557968Y426513D01*
X560765Y425764D01*
X563662D01*
X566459Y426513D01*
X568968Y427961D01*
X571016Y430009D01*
X572464Y432518D01*
X573214Y435315D01*
Y438212D01*
X572464Y441009D01*
X571016Y443518D01*
X568968Y445566D01*
X566459Y447014D01*
X563662Y447763D01*
D02*
G37*
G36*
X182923Y482561D02*
X177807D01*
X172755Y481761D01*
X167889Y480180D01*
X163331Y477858D01*
X159193Y474851D01*
X155576Y471234D01*
X152569Y467095D01*
X150246Y462537D01*
X148665Y457672D01*
X147865Y452619D01*
Y447504D01*
X148665Y442451D01*
X150246Y437586D01*
X152569Y433028D01*
X155576Y428889D01*
X159193Y425272D01*
X163331Y422265D01*
X167889Y419943D01*
X172755Y418362D01*
X177807Y417561D01*
X182923D01*
X187976Y418362D01*
X192841Y419943D01*
X197399Y422265D01*
X201537Y425272D01*
X205155Y428889D01*
X208162Y433028D01*
X210484Y437586D01*
X212065Y442451D01*
X212865Y447504D01*
Y452619D01*
X212065Y457672D01*
X210484Y462537D01*
X208162Y467095D01*
X205155Y471234D01*
X201537Y474851D01*
X197399Y477858D01*
X192841Y480180D01*
X187976Y481761D01*
X182923Y482561D01*
D02*
G37*
G36*
X136416Y420006D02*
X134228D01*
X132207Y419169D01*
X130660Y417622D01*
X129822Y415600D01*
Y413412D01*
X130660Y411391D01*
X132207Y409843D01*
X134228Y409006D01*
X136416D01*
X138438Y409843D01*
X139985Y411391D01*
X140822Y413412D01*
Y415600D01*
X139985Y417622D01*
X138438Y419169D01*
X136416Y420006D01*
D02*
G37*
G36*
X582594Y417000D02*
X580406D01*
X578385Y416163D01*
X576837Y414616D01*
X576000Y412594D01*
Y410406D01*
X576837Y408385D01*
X578385Y406837D01*
X580406Y406000D01*
X582594D01*
X584616Y406837D01*
X586163Y408385D01*
X587000Y410406D01*
Y412594D01*
X586163Y414616D01*
X584616Y416163D01*
X582594Y417000D01*
D02*
G37*
G36*
X349844Y413000D02*
X347656D01*
X345634Y412163D01*
X344087Y410616D01*
X343250Y408594D01*
Y406406D01*
X344087Y404384D01*
X345634Y402837D01*
X347656Y402000D01*
X349844D01*
X351866Y402837D01*
X353413Y404384D01*
X354250Y406406D01*
Y408594D01*
X353413Y410616D01*
X351866Y412163D01*
X349844Y413000D01*
D02*
G37*
G36*
X563662Y422364D02*
X560765D01*
X557968Y421614D01*
X555459Y420166D01*
X553411Y418118D01*
X551963Y415609D01*
X551213Y412812D01*
Y409915D01*
X551963Y407118D01*
X553411Y404609D01*
X555459Y402561D01*
X557968Y401113D01*
X560765Y400364D01*
X563662D01*
X566459Y401113D01*
X568968Y402561D01*
X571016Y404609D01*
X572464Y407118D01*
X573214Y409915D01*
Y412812D01*
X572464Y415609D01*
X571016Y418118D01*
X568968Y420166D01*
X566459Y421614D01*
X563662Y422364D01*
D02*
G37*
G36*
X150737Y416643D02*
X148549D01*
X146528Y415806D01*
X144981Y414259D01*
X144143Y412237D01*
Y410049D01*
X144981Y408028D01*
X146528Y406481D01*
X146167Y405256D01*
X145411Y403430D01*
Y401242D01*
X146249Y399220D01*
X147796Y397673D01*
X149817Y396836D01*
X152005D01*
X154027Y397673D01*
X155574Y399220D01*
X156411Y401242D01*
Y403430D01*
X155574Y405451D01*
X154027Y406998D01*
X154387Y408224D01*
X155143Y410049D01*
Y412237D01*
X154306Y414259D01*
X152759Y415806D01*
X150737Y416643D01*
D02*
G37*
G36*
X96594Y390500D02*
X94406D01*
X92385Y389663D01*
X90837Y388116D01*
X90000Y386094D01*
Y383906D01*
X90837Y381884D01*
X92385Y380337D01*
X94406Y379500D01*
X96594D01*
X98616Y380337D01*
X100163Y381884D01*
X101000Y383906D01*
Y386094D01*
X100163Y388116D01*
X98616Y389663D01*
X96594Y390500D01*
D02*
G37*
G36*
X563662Y396964D02*
X560765D01*
X557968Y396214D01*
X555459Y394766D01*
X553411Y392718D01*
X551963Y390209D01*
X551213Y387412D01*
Y384515D01*
X551963Y381718D01*
X553411Y379209D01*
X555459Y377161D01*
X557968Y375713D01*
X560765Y374963D01*
X563662D01*
X566459Y375713D01*
X568968Y377161D01*
X571016Y379209D01*
X572464Y381718D01*
X573214Y384515D01*
Y387412D01*
X572464Y390209D01*
X571016Y392718D01*
X568968Y394766D01*
X566459Y396214D01*
X563662Y396964D01*
D02*
G37*
G36*
X129594Y369008D02*
X127406D01*
X125385Y368171D01*
X123837Y366624D01*
X123000Y364602D01*
Y362414D01*
X123837Y360393D01*
X125385Y358845D01*
X127406Y358008D01*
X129594D01*
X131615Y358845D01*
X133163Y360393D01*
X134000Y362414D01*
Y364602D01*
X133163Y366624D01*
X131615Y368171D01*
X129594Y369008D01*
D02*
G37*
G36*
X563662Y371563D02*
X560765D01*
X557968Y370814D01*
X555459Y369366D01*
X553411Y367318D01*
X551963Y364809D01*
X551213Y362012D01*
Y359115D01*
X551963Y356318D01*
X553411Y353809D01*
X555459Y351761D01*
X557968Y350313D01*
X560765Y349563D01*
X563662D01*
X566459Y350313D01*
X568968Y351761D01*
X571016Y353809D01*
X572464Y356318D01*
X573214Y359115D01*
Y362012D01*
X572464Y364809D01*
X571016Y367318D01*
X568968Y369366D01*
X566459Y370814D01*
X563662Y371563D01*
D02*
G37*
G36*
X173094Y339750D02*
X170906D01*
X168885Y338913D01*
X167337Y337365D01*
X166500Y335344D01*
Y333156D01*
X167337Y331134D01*
X168885Y329587D01*
X170906Y328750D01*
X173094D01*
X175116Y329587D01*
X176663Y331134D01*
X177500Y333156D01*
Y335344D01*
X176663Y337365D01*
X175116Y338913D01*
X173094Y339750D01*
D02*
G37*
G36*
X563662Y346163D02*
X560765D01*
X557968Y345414D01*
X555459Y343966D01*
X553411Y341918D01*
X551963Y339409D01*
X551213Y336612D01*
Y333715D01*
X551963Y330918D01*
X553411Y328409D01*
X555459Y326361D01*
X557968Y324913D01*
X560765Y324164D01*
X563662D01*
X566459Y324913D01*
X568968Y326361D01*
X571016Y328409D01*
X572464Y330918D01*
X573214Y333715D01*
Y336612D01*
X572464Y339409D01*
X571016Y341918D01*
X568968Y343966D01*
X566459Y345414D01*
X563662Y346163D01*
D02*
G37*
G36*
X316594Y274500D02*
X314406D01*
X312384Y273663D01*
X310837Y272115D01*
X310000Y270094D01*
Y267906D01*
X310837Y265884D01*
X312384Y264337D01*
X314406Y263500D01*
X316594D01*
X318615Y264337D01*
X320163Y265884D01*
X321000Y267906D01*
Y270094D01*
X320163Y272115D01*
X318615Y273663D01*
X316594Y274500D01*
D02*
G37*
G36*
X563662Y280763D02*
X560765D01*
X557968Y280014D01*
X555459Y278566D01*
X553411Y276518D01*
X551963Y274009D01*
X551213Y271212D01*
Y268315D01*
X551963Y265518D01*
X553411Y263009D01*
X555459Y260961D01*
X557968Y259513D01*
X560765Y258764D01*
X563662D01*
X566459Y259513D01*
X568968Y260961D01*
X571016Y263009D01*
X572464Y265518D01*
X573214Y268315D01*
Y271212D01*
X572464Y274009D01*
X571016Y276518D01*
X568968Y278566D01*
X566459Y280014D01*
X563662Y280763D01*
D02*
G37*
G36*
X352344Y246000D02*
X350156D01*
X348134Y245163D01*
X346587Y243615D01*
X345750Y241594D01*
Y239406D01*
X346587Y237384D01*
X348134Y235837D01*
X350156Y235000D01*
X352344D01*
X354366Y235837D01*
X355913Y237384D01*
X356750Y239406D01*
Y241594D01*
X355913Y243615D01*
X354366Y245163D01*
X352344Y246000D01*
D02*
G37*
G36*
X563662Y255364D02*
X560765D01*
X557968Y254614D01*
X555459Y253166D01*
X553411Y251118D01*
X551963Y248609D01*
X551213Y245812D01*
Y242915D01*
X551963Y240118D01*
X553411Y237609D01*
X555459Y235561D01*
X557968Y234113D01*
X560765Y233363D01*
X563662D01*
X566459Y234113D01*
X568968Y235561D01*
X571016Y237609D01*
X572464Y240118D01*
X573214Y242915D01*
Y245812D01*
X572464Y248609D01*
X571016Y251118D01*
X568968Y253166D01*
X566459Y254614D01*
X563662Y255364D01*
D02*
G37*
G36*
X582344Y224500D02*
X580156D01*
X578134Y223663D01*
X576587Y222115D01*
X575750Y220094D01*
Y217906D01*
X576587Y215884D01*
X578134Y214337D01*
X580156Y213500D01*
X582344D01*
X584366Y214337D01*
X585913Y215884D01*
X586750Y217906D01*
Y220094D01*
X585913Y222115D01*
X584366Y223663D01*
X582344Y224500D01*
D02*
G37*
G36*
X563662Y229963D02*
X560765D01*
X557968Y229214D01*
X555459Y227766D01*
X553411Y225718D01*
X551963Y223209D01*
X551213Y220412D01*
Y217515D01*
X551963Y214718D01*
X553411Y212209D01*
X555459Y210161D01*
X557968Y208713D01*
X560765Y207964D01*
X563662D01*
X566459Y208713D01*
X568968Y210161D01*
X571016Y212209D01*
X572464Y214718D01*
X573214Y217515D01*
Y220412D01*
X572464Y223209D01*
X571016Y225718D01*
X568968Y227766D01*
X566459Y229214D01*
X563662Y229963D01*
D02*
G37*
G36*
X362556Y217712D02*
X360368D01*
X358347Y216875D01*
X356800Y215328D01*
X355962Y213306D01*
Y211118D01*
X356800Y209097D01*
X358347Y207550D01*
X360368Y206712D01*
X362556D01*
X364578Y207550D01*
X366125Y209097D01*
X366962Y211118D01*
Y213306D01*
X366125Y215328D01*
X364578Y216875D01*
X362556Y217712D01*
D02*
G37*
G36*
X563662Y204564D02*
X560765D01*
X557968Y203814D01*
X555459Y202366D01*
X553411Y200318D01*
X551963Y197809D01*
X551213Y195012D01*
Y192115D01*
X551963Y189318D01*
X553411Y186809D01*
X555459Y184761D01*
X557968Y183313D01*
X560765Y182563D01*
X563662D01*
X566459Y183313D01*
X568968Y184761D01*
X571016Y186809D01*
X572464Y189318D01*
X573214Y192115D01*
Y195012D01*
X572464Y197809D01*
X571016Y200318D01*
X568968Y202366D01*
X566459Y203814D01*
X563662Y204564D01*
D02*
G37*
G36*
X362344Y180500D02*
X360156D01*
X358134Y179663D01*
X356587Y178116D01*
X355750Y176094D01*
Y173906D01*
X356587Y171884D01*
X358134Y170337D01*
X360156Y169500D01*
X362344D01*
X364366Y170337D01*
X365913Y171884D01*
X366750Y173906D01*
Y176094D01*
X365913Y178116D01*
X364366Y179663D01*
X362344Y180500D01*
D02*
G37*
G36*
X563662Y179163D02*
X560765D01*
X557968Y178414D01*
X555459Y176966D01*
X553411Y174918D01*
X551963Y172409D01*
X551213Y169612D01*
Y166715D01*
X551963Y163918D01*
X553411Y161409D01*
X555459Y159361D01*
X557968Y157913D01*
X560765Y157163D01*
X563662D01*
X566459Y157913D01*
X568968Y159361D01*
X571016Y161409D01*
X572464Y163918D01*
X573214Y166715D01*
Y169612D01*
X572464Y172409D01*
X571016Y174918D01*
X568968Y176966D01*
X566459Y178414D01*
X563662Y179163D01*
D02*
G37*
G36*
Y153764D02*
X560765D01*
X557968Y153014D01*
X555459Y151566D01*
X553411Y149518D01*
X551963Y147009D01*
X551213Y144212D01*
Y141315D01*
X551963Y138518D01*
X553411Y136009D01*
X555459Y133961D01*
X557968Y132513D01*
X560765Y131763D01*
X563662D01*
X566459Y132513D01*
X568968Y133961D01*
X571016Y136009D01*
X572464Y138518D01*
X573214Y141315D01*
Y144212D01*
X572464Y147009D01*
X571016Y149518D01*
X568968Y151566D01*
X566459Y153014D01*
X563662Y153764D01*
D02*
G37*
G36*
X500248Y137800D02*
X497352D01*
X494554Y137050D01*
X492046Y135602D01*
X489998Y133554D01*
X488550Y131046D01*
X487800Y128248D01*
Y125352D01*
X488550Y122554D01*
X489998Y120046D01*
X492046Y117998D01*
X494554Y116550D01*
X497352Y115800D01*
X500248D01*
X503046Y116550D01*
X505554Y117998D01*
X507602Y120046D01*
X509050Y122554D01*
X509800Y125352D01*
Y128248D01*
X509050Y131046D01*
X507602Y133554D01*
X505554Y135602D01*
X503046Y137050D01*
X500248Y137800D01*
D02*
G37*
G36*
X474848D02*
X471952D01*
X469154Y137050D01*
X466646Y135602D01*
X464598Y133554D01*
X463150Y131046D01*
X462400Y128248D01*
Y125352D01*
X463150Y122554D01*
X464598Y120046D01*
X466646Y117998D01*
X469154Y116550D01*
X471952Y115800D01*
X474848D01*
X477646Y116550D01*
X480154Y117998D01*
X482202Y120046D01*
X483650Y122554D01*
X484400Y125352D01*
Y128248D01*
X483650Y131046D01*
X482202Y133554D01*
X480154Y135602D01*
X477646Y137050D01*
X474848Y137800D01*
D02*
G37*
G36*
X449448D02*
X446552D01*
X443754Y137050D01*
X441246Y135602D01*
X439198Y133554D01*
X437750Y131046D01*
X437000Y128248D01*
Y125352D01*
X437750Y122554D01*
X439198Y120046D01*
X441246Y117998D01*
X443754Y116550D01*
X446552Y115800D01*
X449448D01*
X452246Y116550D01*
X454754Y117998D01*
X456802Y120046D01*
X458250Y122554D01*
X459000Y125352D01*
Y128248D01*
X458250Y131046D01*
X456802Y133554D01*
X454754Y135602D01*
X452246Y137050D01*
X449448Y137800D01*
D02*
G37*
G36*
X424048D02*
X421152D01*
X418354Y137050D01*
X415846Y135602D01*
X413798Y133554D01*
X412350Y131046D01*
X411600Y128248D01*
Y125352D01*
X412350Y122554D01*
X413798Y120046D01*
X415846Y117998D01*
X418354Y116550D01*
X421152Y115800D01*
X424048D01*
X426846Y116550D01*
X429354Y117998D01*
X431402Y120046D01*
X432850Y122554D01*
X433600Y125352D01*
Y128248D01*
X432850Y131046D01*
X431402Y133554D01*
X429354Y135602D01*
X426846Y137050D01*
X424048Y137800D01*
D02*
G37*
G36*
X398648D02*
X395752D01*
X392954Y137050D01*
X390446Y135602D01*
X388398Y133554D01*
X386950Y131046D01*
X386200Y128248D01*
Y125352D01*
X386950Y122554D01*
X388398Y120046D01*
X390446Y117998D01*
X392954Y116550D01*
X395752Y115800D01*
X398648D01*
X401446Y116550D01*
X403954Y117998D01*
X406002Y120046D01*
X407450Y122554D01*
X408200Y125352D01*
Y128248D01*
X407450Y131046D01*
X406002Y133554D01*
X403954Y135602D01*
X401446Y137050D01*
X398648Y137800D01*
D02*
G37*
G36*
X387859Y113515D02*
X385671D01*
X383650Y112678D01*
X382103Y111131D01*
X381265Y109109D01*
Y106921D01*
X382103Y104900D01*
X383650Y103353D01*
X385671Y102515D01*
X387859D01*
X389881Y103353D01*
X391428Y104900D01*
X392265Y106921D01*
Y109109D01*
X391428Y111131D01*
X389881Y112678D01*
X387859Y113515D01*
D02*
G37*
G36*
X459844Y92750D02*
X457656D01*
X455634Y91913D01*
X454087Y90365D01*
X453250Y88344D01*
Y88248D01*
X452162Y87250D01*
X450406D01*
X450250Y88219D01*
Y88344D01*
X449413Y90365D01*
X447865Y91913D01*
X445844Y92750D01*
X443656D01*
X441634Y91913D01*
X440087Y90365D01*
X439250Y88344D01*
Y87855D01*
X438344Y87250D01*
X436156D01*
X434134Y86413D01*
X432587Y84866D01*
X431750Y82844D01*
Y80656D01*
X432587Y78635D01*
X434134Y77087D01*
X436156Y76250D01*
X438344D01*
X440365Y77087D01*
X441913Y78635D01*
X442750Y80656D01*
Y80871D01*
X443769Y81750D01*
X445844D01*
X446000Y80781D01*
Y80656D01*
X446837Y78635D01*
X448385Y77087D01*
X450406Y76250D01*
X452594D01*
X454616Y77087D01*
X456163Y78635D01*
X457000Y80656D01*
Y81312D01*
X457656Y81750D01*
X459844D01*
X460500Y81312D01*
Y80656D01*
X461337Y78635D01*
X462884Y77087D01*
X464906Y76250D01*
X467094D01*
X469115Y77087D01*
X470663Y78635D01*
X471500Y80656D01*
Y82844D01*
X470663Y84866D01*
X469115Y86413D01*
X467094Y87250D01*
X464906D01*
X464250Y87688D01*
Y88344D01*
X463413Y90365D01*
X461866Y91913D01*
X459844Y92750D01*
D02*
G37*
G36*
X597771Y97414D02*
X592656D01*
X587603Y96613D01*
X582738Y95032D01*
X578180Y92710D01*
X574041Y89703D01*
X570424Y86086D01*
X567417Y81947D01*
X565095Y77389D01*
X563514Y72524D01*
X562714Y67471D01*
Y62356D01*
X563514Y57303D01*
X565095Y52438D01*
X567417Y47880D01*
X570424Y43741D01*
X574041Y40124D01*
X578180Y37117D01*
X582738Y34794D01*
X587603Y33214D01*
X592656Y32413D01*
X597771D01*
X602824Y33214D01*
X607689Y34794D01*
X612247Y37117D01*
X616386Y40124D01*
X620003Y43741D01*
X623010Y47880D01*
X625332Y52438D01*
X626913Y57303D01*
X627714Y62356D01*
Y67471D01*
X626913Y72524D01*
X625332Y77389D01*
X623010Y81947D01*
X620003Y86086D01*
X616386Y89703D01*
X612247Y92710D01*
X607689Y95032D01*
X602824Y96613D01*
X597771Y97414D01*
D02*
G37*
G36*
X500048Y53000D02*
X497152D01*
X494354Y52250D01*
X491846Y50802D01*
X489798Y48754D01*
X488350Y46246D01*
X487600Y43448D01*
Y40552D01*
X488350Y37754D01*
X489798Y35246D01*
X491846Y33198D01*
X494354Y31750D01*
X497152Y31000D01*
X500048D01*
X502846Y31750D01*
X505354Y33198D01*
X507402Y35246D01*
X508850Y37754D01*
X509600Y40552D01*
Y43448D01*
X508850Y46246D01*
X507402Y48754D01*
X505354Y50802D01*
X502846Y52250D01*
X500048Y53000D01*
D02*
G37*
G36*
X474648D02*
X471752D01*
X468954Y52250D01*
X466446Y50802D01*
X464398Y48754D01*
X462950Y46246D01*
X462200Y43448D01*
Y40552D01*
X462950Y37754D01*
X464398Y35246D01*
X466446Y33198D01*
X468954Y31750D01*
X471752Y31000D01*
X474648D01*
X477446Y31750D01*
X479954Y33198D01*
X482002Y35246D01*
X483450Y37754D01*
X484200Y40552D01*
Y43448D01*
X483450Y46246D01*
X482002Y48754D01*
X479954Y50802D01*
X477446Y52250D01*
X474648Y53000D01*
D02*
G37*
G36*
X449248D02*
X446352D01*
X443554Y52250D01*
X441046Y50802D01*
X438998Y48754D01*
X437550Y46246D01*
X436800Y43448D01*
Y40552D01*
X437550Y37754D01*
X438998Y35246D01*
X441046Y33198D01*
X443554Y31750D01*
X446352Y31000D01*
X449248D01*
X452046Y31750D01*
X454554Y33198D01*
X456602Y35246D01*
X458050Y37754D01*
X458800Y40552D01*
Y43448D01*
X458050Y46246D01*
X456602Y48754D01*
X454554Y50802D01*
X452046Y52250D01*
X449248Y53000D01*
D02*
G37*
G36*
X423848D02*
X420952D01*
X418154Y52250D01*
X415646Y50802D01*
X413598Y48754D01*
X412150Y46246D01*
X411400Y43448D01*
Y40552D01*
X412150Y37754D01*
X413598Y35246D01*
X415646Y33198D01*
X418154Y31750D01*
X420952Y31000D01*
X423848D01*
X426646Y31750D01*
X429154Y33198D01*
X431202Y35246D01*
X432650Y37754D01*
X433400Y40552D01*
Y43448D01*
X432650Y46246D01*
X431202Y48754D01*
X429154Y50802D01*
X426646Y52250D01*
X423848Y53000D01*
D02*
G37*
G36*
X398448D02*
X395552D01*
X392754Y52250D01*
X390246Y50802D01*
X388198Y48754D01*
X386750Y46246D01*
X386000Y43448D01*
Y40552D01*
X386750Y37754D01*
X388198Y35246D01*
X390246Y33198D01*
X392754Y31750D01*
X395552Y31000D01*
X398448D01*
X401246Y31750D01*
X403754Y33198D01*
X405802Y35246D01*
X407250Y37754D01*
X408000Y40552D01*
Y43448D01*
X407250Y46246D01*
X405802Y48754D01*
X403754Y50802D01*
X401246Y52250D01*
X398448Y53000D01*
D02*
G37*
G36*
X443900Y1169874D02*
Y1163750D01*
X450024D01*
X448703Y1166039D01*
X446189Y1168553D01*
X443900Y1169874D01*
D02*
G37*
G36*
X431900D02*
X429611Y1168553D01*
X427097Y1166039D01*
X425776Y1163750D01*
X431900D01*
Y1169874D01*
D02*
G37*
G36*
X485201Y1177120D02*
X482799D01*
X480480Y1176498D01*
X478400Y1175298D01*
X476702Y1173600D01*
X475502Y1171520D01*
X474880Y1169201D01*
Y1166799D01*
X475502Y1164480D01*
X476702Y1162400D01*
X478400Y1160702D01*
X480480Y1159501D01*
X482799Y1158880D01*
X485201D01*
X487520Y1159501D01*
X489600Y1160702D01*
X491298Y1162400D01*
X492499Y1164480D01*
X493120Y1166799D01*
Y1169201D01*
X492499Y1171520D01*
X491298Y1173600D01*
X489600Y1175298D01*
X487520Y1176498D01*
X485201Y1177120D01*
D02*
G37*
G36*
X465201D02*
X462799D01*
X460480Y1176498D01*
X458400Y1175298D01*
X456702Y1173600D01*
X455502Y1171520D01*
X454880Y1169201D01*
Y1166799D01*
X455502Y1164480D01*
X456702Y1162400D01*
X458400Y1160702D01*
X460480Y1159501D01*
X462799Y1158880D01*
X465201D01*
X467520Y1159501D01*
X469600Y1160702D01*
X471298Y1162400D01*
X472499Y1164480D01*
X473120Y1166799D01*
Y1169201D01*
X472499Y1171520D01*
X471298Y1173600D01*
X469600Y1175298D01*
X467520Y1176498D01*
X465201Y1177120D01*
D02*
G37*
G36*
X450024Y1151750D02*
X443900D01*
Y1145626D01*
X446189Y1146947D01*
X448703Y1149461D01*
X450024Y1151750D01*
D02*
G37*
G36*
X431900D02*
X425776D01*
X427097Y1149461D01*
X429611Y1146947D01*
X431900Y1145626D01*
Y1151750D01*
D02*
G37*
G36*
X480595Y1089250D02*
X478905D01*
X477343Y1088603D01*
X476147Y1087407D01*
X475500Y1085845D01*
Y1084155D01*
X476147Y1082593D01*
X477343Y1081397D01*
X478905Y1080750D01*
X480595D01*
X482157Y1081397D01*
X483353Y1082593D01*
X484000Y1084155D01*
Y1085845D01*
X483353Y1087407D01*
X482157Y1088603D01*
X480595Y1089250D01*
D02*
G37*
G36*
X400845Y1076250D02*
X399155D01*
X397593Y1075603D01*
X396397Y1074407D01*
X395750Y1072845D01*
Y1071155D01*
X396397Y1069593D01*
X397593Y1068397D01*
X399155Y1067750D01*
X400845D01*
X402407Y1068397D01*
X403603Y1069593D01*
X404250Y1071155D01*
Y1072845D01*
X403603Y1074407D01*
X402407Y1075603D01*
X400845Y1076250D01*
D02*
G37*
G36*
Y1064250D02*
X399155D01*
X397593Y1063603D01*
X396397Y1062407D01*
X395750Y1060845D01*
Y1059155D01*
X396397Y1057593D01*
X397182Y1056808D01*
X397457Y1056000D01*
X397182Y1055192D01*
X396397Y1054407D01*
X395750Y1052845D01*
Y1051155D01*
X396397Y1049593D01*
X397593Y1048397D01*
X399155Y1047750D01*
X400845D01*
X402407Y1048397D01*
X403603Y1049593D01*
X404250Y1051155D01*
Y1052845D01*
X403603Y1054407D01*
X402818Y1055192D01*
X402543Y1056000D01*
X402818Y1056808D01*
X403603Y1057593D01*
X404250Y1059155D01*
Y1060845D01*
X403603Y1062407D01*
X402407Y1063603D01*
X400845Y1064250D01*
D02*
G37*
G36*
X401194Y1042000D02*
X398806D01*
X396601Y1041087D01*
X394913Y1039399D01*
X394000Y1037194D01*
Y1034807D01*
X394913Y1032601D01*
X396601Y1030913D01*
X398806Y1030000D01*
X401194D01*
X403399Y1030913D01*
X405087Y1032601D01*
X406000Y1034807D01*
Y1037194D01*
X405087Y1039399D01*
X403399Y1041087D01*
X401194Y1042000D01*
D02*
G37*
G36*
X476000Y1063000D02*
X422000D01*
Y1009000D01*
X476000D01*
Y1063000D01*
D02*
G37*
G36*
X400845Y1024250D02*
X399155D01*
X397593Y1023603D01*
X396397Y1022407D01*
X395750Y1020845D01*
Y1019155D01*
X396397Y1017593D01*
X397182Y1016808D01*
X397457Y1016000D01*
X397182Y1015192D01*
X396397Y1014407D01*
X395750Y1012845D01*
Y1011155D01*
X396397Y1009593D01*
X397593Y1008397D01*
X399155Y1007750D01*
X400845D01*
X402407Y1008397D01*
X403603Y1009593D01*
X404250Y1011155D01*
Y1012845D01*
X403603Y1014407D01*
X402818Y1015192D01*
X402543Y1016000D01*
X402818Y1016808D01*
X403603Y1017593D01*
X404250Y1019155D01*
Y1020845D01*
X403603Y1022407D01*
X402407Y1023603D01*
X400845Y1024250D01*
D02*
G37*
G36*
X499193Y1066000D02*
X496806D01*
X494601Y1065087D01*
X492913Y1063399D01*
X492000Y1061193D01*
Y1058807D01*
X492913Y1056601D01*
X493515Y1056000D01*
X492913Y1055399D01*
X492000Y1053194D01*
Y1050807D01*
X492913Y1048601D01*
X493515Y1048000D01*
X492913Y1047399D01*
X492000Y1045193D01*
Y1042806D01*
X492913Y1040601D01*
X494601Y1038913D01*
X494120Y1037738D01*
X493750Y1036845D01*
Y1035155D01*
X494120Y1034262D01*
X494601Y1033086D01*
X492913Y1031399D01*
X492000Y1029193D01*
Y1026806D01*
X492913Y1024601D01*
X493640Y1023875D01*
X493163Y1023399D01*
X492250Y1021193D01*
Y1018807D01*
X493163Y1016601D01*
X493640Y1016125D01*
X492913Y1015399D01*
X492000Y1013194D01*
Y1010807D01*
X492913Y1008601D01*
X494601Y1006914D01*
X496806Y1006000D01*
X499193D01*
X501399Y1006914D01*
X503087Y1008601D01*
X503562Y1009750D01*
X505443D01*
X507649Y1010663D01*
X509337Y1012351D01*
X510250Y1014557D01*
Y1016944D01*
X509337Y1019149D01*
X508610Y1019875D01*
X509337Y1020601D01*
X510250Y1022806D01*
Y1025193D01*
X509337Y1027399D01*
X507649Y1029087D01*
X505443Y1030000D01*
X503666D01*
X503087Y1031399D01*
X501399Y1033087D01*
X501880Y1034262D01*
X502250Y1035155D01*
Y1036845D01*
X501880Y1037738D01*
X501399Y1038913D01*
X503087Y1040601D01*
X503666Y1042000D01*
X505443D01*
X507649Y1042914D01*
X509337Y1044601D01*
X510250Y1046806D01*
Y1049193D01*
X509337Y1051399D01*
X508610Y1052125D01*
X509337Y1052851D01*
X510250Y1055057D01*
Y1057443D01*
X509337Y1059649D01*
X507649Y1061337D01*
X505443Y1062250D01*
X503562D01*
X503087Y1063399D01*
X501399Y1065087D01*
X499193Y1066000D01*
D02*
G37*
G36*
X473845Y991250D02*
X472155D01*
X470593Y990603D01*
X469397Y989407D01*
X468750Y987845D01*
Y986155D01*
X469397Y984593D01*
X470593Y983397D01*
X472155Y982750D01*
X473845D01*
X475407Y983397D01*
X476603Y984593D01*
X477250Y986155D01*
Y987845D01*
X476603Y989407D01*
X475407Y990603D01*
X473845Y991250D01*
D02*
G37*
G36*
X425845D02*
X424155D01*
X422593Y990603D01*
X421397Y989407D01*
X420750Y987845D01*
Y986155D01*
X421397Y984593D01*
X422593Y983397D01*
X424155Y982750D01*
X425845D01*
X427407Y983397D01*
X428603Y984593D01*
X429250Y986155D01*
Y987845D01*
X428603Y989407D01*
X427407Y990603D01*
X425845Y991250D01*
D02*
G37*
G36*
X363069Y956750D02*
X360681D01*
X358476Y955836D01*
X356788Y954149D01*
X355875Y951944D01*
Y950500D01*
X354125D01*
Y951944D01*
X353212Y954149D01*
X351524Y955836D01*
X349319Y956750D01*
X346931D01*
X344726Y955836D01*
X343038Y954149D01*
X342125Y951944D01*
Y949557D01*
X343038Y947351D01*
X344726Y945663D01*
X345876Y945187D01*
Y943813D01*
X344726Y943336D01*
X343038Y941649D01*
X342125Y939444D01*
Y937057D01*
X343038Y934851D01*
X344726Y933163D01*
X345876Y932687D01*
Y931313D01*
X344726Y930836D01*
X343038Y929149D01*
X342125Y926944D01*
Y924557D01*
X343038Y922351D01*
X344726Y920663D01*
X345876Y920187D01*
Y918813D01*
X344726Y918336D01*
X343038Y916649D01*
X342125Y914444D01*
Y912057D01*
X343038Y909851D01*
X344726Y908163D01*
X346931Y907250D01*
X349319D01*
X351524Y908163D01*
X353212Y909851D01*
X354125Y912057D01*
Y913500D01*
X355875D01*
Y912057D01*
X356788Y909851D01*
X358476Y908163D01*
X360681Y907250D01*
X363069D01*
X365274Y908163D01*
X366962Y909851D01*
X367875Y912057D01*
Y914444D01*
X366962Y916649D01*
X365274Y918336D01*
X364124Y918813D01*
Y920187D01*
X365274Y920663D01*
X366962Y922351D01*
X367875Y924557D01*
Y926944D01*
X366962Y929149D01*
X365274Y930836D01*
X364124Y931313D01*
Y932687D01*
X365274Y933163D01*
X366962Y934851D01*
X367875Y937057D01*
Y939444D01*
X366962Y941649D01*
X365274Y943336D01*
X364124Y943813D01*
Y945187D01*
X365274Y945663D01*
X366962Y947351D01*
X367875Y949557D01*
Y951944D01*
X366962Y954149D01*
X365274Y955836D01*
X363069Y956750D01*
D02*
G37*
G36*
X425845Y956750D02*
X424155D01*
X422593Y956103D01*
X421397Y954907D01*
X420750Y953345D01*
Y951655D01*
X421397Y950093D01*
X422593Y948897D01*
X424155Y948250D01*
X425845D01*
X427407Y948897D01*
X428603Y950093D01*
X429250Y951655D01*
Y953345D01*
X428603Y954907D01*
X427407Y956103D01*
X425845Y956750D01*
D02*
G37*
G36*
X454095Y944500D02*
X452405D01*
X450843Y943853D01*
X449647Y942657D01*
X449000Y941095D01*
Y939405D01*
X449647Y937843D01*
X450843Y936647D01*
X452405Y936000D01*
X454095D01*
X455657Y936647D01*
X456853Y937843D01*
X457500Y939405D01*
Y941095D01*
X456853Y942657D01*
X455657Y943853D01*
X454095Y944500D01*
D02*
G37*
G36*
X480595Y891250D02*
X478905D01*
X477343Y890603D01*
X476147Y889407D01*
X475500Y887845D01*
Y886155D01*
X476147Y884593D01*
X477343Y883397D01*
X478905Y882750D01*
X480595D01*
X482157Y883397D01*
X483353Y884593D01*
X484000Y886155D01*
Y887845D01*
X483353Y889407D01*
X482157Y890603D01*
X480595Y891250D01*
D02*
G37*
G36*
X343443Y894000D02*
X341057D01*
X338851Y893087D01*
X337163Y891399D01*
X336250Y889193D01*
Y886807D01*
X337163Y884601D01*
X338851Y882914D01*
X341057Y882000D01*
X343443D01*
X345649Y882914D01*
X347337Y884601D01*
X348250Y886807D01*
Y889193D01*
X347337Y891399D01*
X345649Y893087D01*
X343443Y894000D01*
D02*
G37*
G36*
X401845Y878250D02*
X400155D01*
X398593Y877603D01*
X397397Y876407D01*
X396750Y874845D01*
Y873155D01*
X397397Y871593D01*
X398593Y870397D01*
X400155Y869750D01*
X401845D01*
X403407Y870397D01*
X404603Y871593D01*
X405250Y873155D01*
Y874845D01*
X404603Y876407D01*
X403407Y877603D01*
X401845Y878250D01*
D02*
G37*
G36*
Y866250D02*
X400155D01*
X398593Y865603D01*
X397397Y864407D01*
X396750Y862845D01*
Y861155D01*
X397397Y859593D01*
X398182Y858808D01*
X398457Y858000D01*
X398182Y857192D01*
X397397Y856407D01*
X396750Y854845D01*
Y853155D01*
X397397Y851593D01*
X398593Y850397D01*
X400155Y849750D01*
X401845D01*
X403407Y850397D01*
X404603Y851593D01*
X405250Y853155D01*
Y854845D01*
X404603Y856407D01*
X403818Y857192D01*
X403543Y858000D01*
X403818Y858808D01*
X404603Y859593D01*
X405250Y861155D01*
Y862845D01*
X404603Y864407D01*
X403407Y865603D01*
X401845Y866250D01*
D02*
G37*
G36*
X402193Y844000D02*
X399807D01*
X397601Y843087D01*
X395914Y841399D01*
X395000Y839193D01*
Y836806D01*
X395914Y834601D01*
X397601Y832913D01*
X399807Y832000D01*
X402193D01*
X404399Y832913D01*
X406087Y834601D01*
X407000Y836806D01*
Y839193D01*
X406087Y841399D01*
X404399Y843087D01*
X402193Y844000D01*
D02*
G37*
G36*
X477000Y865000D02*
X423000D01*
Y811000D01*
X477000D01*
Y865000D01*
D02*
G37*
G36*
X401845Y826250D02*
X400155D01*
X398593Y825603D01*
X397397Y824407D01*
X396750Y822845D01*
Y821155D01*
X397397Y819593D01*
X398182Y818808D01*
X398457Y818000D01*
X398182Y817192D01*
X397397Y816407D01*
X396750Y814845D01*
Y813155D01*
X397397Y811593D01*
X398593Y810397D01*
X400155Y809750D01*
X401845D01*
X403407Y810397D01*
X404603Y811593D01*
X405250Y813155D01*
Y814845D01*
X404603Y816407D01*
X403818Y817192D01*
X403543Y818000D01*
X403818Y818808D01*
X404603Y819593D01*
X405250Y821155D01*
Y822845D01*
X404603Y824407D01*
X403407Y825603D01*
X401845Y826250D01*
D02*
G37*
G36*
X500193Y868000D02*
X497807D01*
X495601Y867087D01*
X493913Y865399D01*
X493000Y863194D01*
Y860807D01*
X493913Y858601D01*
X494515Y858000D01*
X493913Y857399D01*
X493000Y855193D01*
Y852806D01*
X493913Y850601D01*
X494515Y850000D01*
X493913Y849399D01*
X493000Y847194D01*
Y844807D01*
X493913Y842601D01*
X495601Y840913D01*
X495120Y839738D01*
X494750Y838845D01*
Y837155D01*
X495120Y836262D01*
X495601Y835087D01*
X493913Y833399D01*
X493000Y831193D01*
Y828807D01*
X493913Y826601D01*
X494640Y825875D01*
X494164Y825399D01*
X493250Y823194D01*
Y820807D01*
X494164Y818601D01*
X494640Y818125D01*
X493913Y817399D01*
X493000Y815193D01*
Y812807D01*
X493913Y810601D01*
X495601Y808913D01*
X497807Y808000D01*
X500193D01*
X502399Y808913D01*
X504086Y810601D01*
X504562Y811750D01*
X506443D01*
X508649Y812663D01*
X510336Y814351D01*
X511250Y816556D01*
Y818943D01*
X510336Y821149D01*
X509610Y821875D01*
X510336Y822601D01*
X511250Y824807D01*
Y827194D01*
X510336Y829399D01*
X508649Y831087D01*
X506443Y832000D01*
X504666D01*
X504086Y833399D01*
X502399Y835087D01*
X502880Y836262D01*
X503250Y837155D01*
Y838845D01*
X502880Y839738D01*
X502399Y840913D01*
X504086Y842601D01*
X504666Y844000D01*
X506443D01*
X508649Y844913D01*
X510336Y846601D01*
X511250Y848807D01*
Y851193D01*
X510336Y853399D01*
X509610Y854125D01*
X510336Y854851D01*
X511250Y857057D01*
Y859444D01*
X510336Y861649D01*
X508649Y863337D01*
X506443Y864250D01*
X504562D01*
X504086Y865399D01*
X502399Y867087D01*
X500193Y868000D01*
D02*
G37*
G36*
X343656Y819212D02*
X341269D01*
X339064Y818299D01*
X337376Y816611D01*
X336462Y814406D01*
Y812019D01*
X337376Y809814D01*
X339064Y808126D01*
X341269Y807212D01*
X343656D01*
X345861Y808126D01*
X347549Y809814D01*
X348462Y812019D01*
Y814406D01*
X347549Y816611D01*
X345861Y818299D01*
X343656Y819212D01*
D02*
G37*
G36*
X474845Y793250D02*
X473155D01*
X471593Y792603D01*
X470397Y791407D01*
X469750Y789845D01*
Y788155D01*
X470397Y786593D01*
X471593Y785397D01*
X473155Y784750D01*
X474845D01*
X476408Y785397D01*
X477603Y786593D01*
X478250Y788155D01*
Y789845D01*
X477603Y791407D01*
X476408Y792603D01*
X474845Y793250D01*
D02*
G37*
G36*
X426845D02*
X425155D01*
X423593Y792603D01*
X422397Y791407D01*
X421750Y789845D01*
Y788155D01*
X422397Y786593D01*
X423593Y785397D01*
X425155Y784750D01*
X426845D01*
X428407Y785397D01*
X429603Y786593D01*
X430250Y788155D01*
Y789845D01*
X429603Y791407D01*
X428407Y792603D01*
X426845Y793250D01*
D02*
G37*
G36*
X343443Y782000D02*
X341057D01*
X338851Y781087D01*
X337163Y779399D01*
X336250Y777194D01*
Y774807D01*
X337163Y772601D01*
X338851Y770913D01*
X341057Y770000D01*
X343443D01*
X345649Y770913D01*
X347337Y772601D01*
X348250Y774807D01*
Y777194D01*
X347337Y779399D01*
X345649Y781087D01*
X343443Y782000D01*
D02*
G37*
G36*
X426845Y758750D02*
X425155D01*
X423593Y758103D01*
X422397Y756908D01*
X421750Y755345D01*
Y753655D01*
X422397Y752093D01*
X423593Y750897D01*
X425155Y750250D01*
X426845D01*
X428407Y750897D01*
X429603Y752093D01*
X430250Y753655D01*
Y755345D01*
X429603Y756908D01*
X428407Y758103D01*
X426845Y758750D01*
D02*
G37*
G36*
X474845Y745500D02*
X473155D01*
X471593Y744853D01*
X470397Y743657D01*
X469750Y742095D01*
Y740405D01*
X470397Y738843D01*
X471593Y737647D01*
X473155Y737000D01*
X474845D01*
X476408Y737647D01*
X477603Y738843D01*
X478250Y740405D01*
Y742095D01*
X477603Y743657D01*
X476408Y744853D01*
X474845Y745500D01*
D02*
G37*
G36*
X422250Y710419D02*
Y702250D01*
X430419D01*
X430201Y702776D01*
X428232Y705724D01*
X425724Y708232D01*
X422776Y710201D01*
X422250Y710419D01*
D02*
G37*
G36*
X406250D02*
X405724Y710201D01*
X402776Y708232D01*
X400269Y705724D01*
X398299Y702776D01*
X398081Y702250D01*
X406250D01*
Y710419D01*
D02*
G37*
G36*
X430419Y686250D02*
X422250D01*
Y678081D01*
X422776Y678299D01*
X425724Y680268D01*
X428232Y682776D01*
X430201Y685724D01*
X430419Y686250D01*
D02*
G37*
G36*
X406250D02*
X398081D01*
X398299Y685724D01*
X400269Y682776D01*
X402776Y680268D01*
X405724Y678299D01*
X406250Y678081D01*
Y686250D01*
D02*
G37*
G36*
X483000Y721603D02*
X445500D01*
X444543Y721207D01*
X440293Y716957D01*
X439897Y716000D01*
X439897Y657060D01*
X422940Y640103D01*
X396250Y640103D01*
X395293Y639707D01*
X377793Y622207D01*
X377397Y621250D01*
Y589500D01*
X377793Y588543D01*
X388293Y578043D01*
X389250Y577647D01*
X461500D01*
X462457Y578043D01*
X494957Y610543D01*
X495353Y611500D01*
Y627079D01*
X496623Y627605D01*
X497766Y626461D01*
X500161Y625079D01*
X502831Y624364D01*
X505596D01*
X508266Y625079D01*
X510661Y626461D01*
X512616Y628416D01*
X513998Y630811D01*
X514714Y633481D01*
Y636246D01*
X513998Y638916D01*
X512616Y641311D01*
X510661Y643266D01*
X508266Y644648D01*
X505596Y645363D01*
X502831D01*
X500161Y644648D01*
X497766Y643266D01*
X496623Y642122D01*
X495353Y642648D01*
Y675406D01*
X495353Y709250D01*
X494957Y710207D01*
X483957Y721207D01*
X483000Y721603D01*
D02*
G37*
G36*
X405986Y572864D02*
X402441D01*
X398963Y572172D01*
X395687Y570815D01*
X392739Y568845D01*
X390232Y566338D01*
X388262Y563390D01*
X386905Y560114D01*
X386213Y556636D01*
Y553091D01*
X386905Y549613D01*
X388262Y546337D01*
X390232Y543389D01*
X392739Y540882D01*
X395687Y538912D01*
X398963Y537555D01*
X402441Y536864D01*
X405986D01*
X409464Y537555D01*
X412740Y538912D01*
X415688Y540882D01*
X418195Y543389D01*
X420165Y546337D01*
X421522Y549613D01*
X422214Y553091D01*
Y556636D01*
X421522Y560114D01*
X420165Y563390D01*
X418195Y566338D01*
X415688Y568845D01*
X412740Y570815D01*
X409464Y572172D01*
X405986Y572864D01*
D02*
G37*
G36*
X505596Y535364D02*
X502831D01*
X500161Y534648D01*
X497766Y533266D01*
X495812Y531311D01*
X494429Y528916D01*
X493713Y526246D01*
Y523481D01*
X494429Y520811D01*
X495812Y518416D01*
X497766Y516461D01*
X500161Y515079D01*
X502831Y514364D01*
X505596D01*
X508266Y515079D01*
X510661Y516461D01*
X512616Y518416D01*
X513998Y520811D01*
X514714Y523481D01*
Y526246D01*
X513998Y528916D01*
X512616Y531311D01*
X510661Y533266D01*
X508266Y534648D01*
X505596Y535364D01*
D02*
G37*
G36*
X496595Y470250D02*
X494905D01*
X493343Y469603D01*
X492147Y468407D01*
X491500Y466845D01*
Y465155D01*
X492147Y463593D01*
X493343Y462397D01*
X494905Y461750D01*
X496595D01*
X498157Y462397D01*
X499353Y463593D01*
X500000Y465155D01*
Y466845D01*
X499353Y468407D01*
X498157Y469603D01*
X496595Y470250D01*
D02*
G37*
G36*
X417845Y458250D02*
X416155D01*
X414593Y457603D01*
X413397Y456407D01*
X412750Y454845D01*
Y453155D01*
X413397Y451593D01*
X414593Y450397D01*
X416155Y449750D01*
X417845D01*
X419407Y450397D01*
X420603Y451593D01*
X421250Y453155D01*
Y454845D01*
X420603Y456407D01*
X419407Y457603D01*
X417845Y458250D01*
D02*
G37*
G36*
Y445250D02*
X416155D01*
X414593Y444603D01*
X413397Y443407D01*
X412750Y441845D01*
Y440155D01*
X413397Y438593D01*
X414182Y437808D01*
X414457Y437000D01*
X414182Y436192D01*
X413397Y435407D01*
X412750Y433845D01*
Y432155D01*
X413397Y430593D01*
X414593Y429397D01*
X416155Y428750D01*
X417845D01*
X419407Y429397D01*
X420603Y430593D01*
X421250Y432155D01*
Y433845D01*
X420603Y435407D01*
X419818Y436192D01*
X419543Y437000D01*
X419818Y437808D01*
X420603Y438593D01*
X421250Y440155D01*
Y441845D01*
X420603Y443407D01*
X419407Y444603D01*
X417845Y445250D01*
D02*
G37*
G36*
X418194Y423000D02*
X415807D01*
X413601Y422087D01*
X411913Y420399D01*
X411000Y418194D01*
Y415807D01*
X411913Y413601D01*
X413601Y411913D01*
X415807Y411000D01*
X418194D01*
X420399Y411913D01*
X422087Y413601D01*
X423000Y415807D01*
Y418194D01*
X422087Y420399D01*
X420399Y422087D01*
X418194Y423000D01*
D02*
G37*
G36*
X493000Y444000D02*
X439000D01*
Y390000D01*
X493000D01*
Y444000D01*
D02*
G37*
G36*
X417845Y405250D02*
X416155D01*
X414593Y404603D01*
X413397Y403407D01*
X412750Y401845D01*
Y400155D01*
X413397Y398593D01*
X414182Y397808D01*
X414457Y397000D01*
X414182Y396192D01*
X413397Y395407D01*
X412750Y393845D01*
Y392155D01*
X413397Y390593D01*
X414593Y389397D01*
X416155Y388750D01*
X417845D01*
X419407Y389397D01*
X420603Y390593D01*
X421250Y392155D01*
Y393845D01*
X420603Y395407D01*
X419818Y396192D01*
X419543Y397000D01*
X419818Y397808D01*
X420603Y398593D01*
X421250Y400155D01*
Y401845D01*
X420603Y403407D01*
X419407Y404603D01*
X417845Y405250D01*
D02*
G37*
G36*
X516194Y447000D02*
X513806D01*
X511601Y446087D01*
X509913Y444399D01*
X509000Y442193D01*
Y439807D01*
X509913Y437601D01*
X510515Y437000D01*
X509913Y436399D01*
X509000Y434193D01*
Y431807D01*
X509913Y429601D01*
X510515Y429000D01*
X509913Y428399D01*
X509000Y426194D01*
Y423806D01*
X509913Y421601D01*
X511601Y419913D01*
X511120Y418738D01*
X510750Y417845D01*
Y416155D01*
X511120Y415262D01*
X511395Y414589D01*
X510854Y413339D01*
X509913Y412399D01*
X509000Y410193D01*
Y407807D01*
X509913Y405601D01*
X510640Y404875D01*
X510163Y404399D01*
X509250Y402193D01*
Y399807D01*
X510163Y397601D01*
X510640Y397125D01*
X509913Y396399D01*
X509000Y394193D01*
Y391807D01*
X509913Y389601D01*
X511601Y387914D01*
X513806Y387000D01*
X516194D01*
X518399Y387914D01*
X520087Y389601D01*
X520562Y390750D01*
X522444D01*
X524649Y391664D01*
X526337Y393351D01*
X527250Y395556D01*
Y397943D01*
X526337Y400149D01*
X525610Y400875D01*
X526337Y401601D01*
X527250Y403807D01*
Y406194D01*
X526337Y408399D01*
X524649Y410087D01*
X522444Y411000D01*
X520666D01*
X520087Y412399D01*
X519146Y413339D01*
X518605Y414589D01*
X518880Y415262D01*
X519250Y416155D01*
Y417845D01*
X518880Y418738D01*
X518399Y419913D01*
X520087Y421601D01*
X520666Y423000D01*
X522444D01*
X524649Y423913D01*
X526337Y425601D01*
X527250Y427807D01*
Y430193D01*
X526337Y432399D01*
X525610Y433125D01*
X526337Y433851D01*
X527250Y436057D01*
Y438443D01*
X526337Y440649D01*
X524649Y442337D01*
X522444Y443250D01*
X520562D01*
X520087Y444399D01*
X518399Y446087D01*
X516194Y447000D01*
D02*
G37*
G36*
X490845Y372250D02*
X489155D01*
X487593Y371603D01*
X486397Y370407D01*
X485750Y368845D01*
Y367155D01*
X486397Y365593D01*
X487593Y364397D01*
X489155Y363750D01*
X490845D01*
X492407Y364397D01*
X493603Y365593D01*
X494250Y367155D01*
Y368845D01*
X493603Y370407D01*
X492407Y371603D01*
X490845Y372250D01*
D02*
G37*
G36*
X442845D02*
X441155D01*
X439593Y371603D01*
X438397Y370407D01*
X437750Y368845D01*
Y367155D01*
X438397Y365593D01*
X439593Y364397D01*
X441155Y363750D01*
X442845D01*
X444407Y364397D01*
X445603Y365593D01*
X446250Y367155D01*
Y368845D01*
X445603Y370407D01*
X444407Y371603D01*
X442845Y372250D01*
D02*
G37*
G36*
X378443Y340500D02*
X376057D01*
X373851Y339586D01*
X372163Y337899D01*
X371250Y335694D01*
Y334250D01*
X369500D01*
Y335694D01*
X368587Y337899D01*
X366899Y339586D01*
X364693Y340500D01*
X362307D01*
X360101Y339586D01*
X358414Y337899D01*
X357500Y335694D01*
Y334250D01*
X355432D01*
X353226Y333336D01*
X351539Y331649D01*
X350625Y329444D01*
Y327057D01*
X351539Y324851D01*
X353226Y323163D01*
X354376Y322687D01*
Y321313D01*
X353226Y320836D01*
X351539Y319149D01*
X350625Y316943D01*
Y314557D01*
X351539Y312351D01*
X353226Y310663D01*
X355432Y309750D01*
X357500D01*
Y308307D01*
X358414Y306101D01*
X360101Y304413D01*
X362307Y303500D01*
X364693D01*
X366899Y304413D01*
X368587Y306101D01*
X369500Y308307D01*
Y309750D01*
X371250D01*
Y308307D01*
X372163Y306101D01*
X373851Y304413D01*
X376057Y303500D01*
X378443D01*
X380649Y304413D01*
X382337Y306101D01*
X383250Y308307D01*
Y309750D01*
X385318D01*
X387524Y310663D01*
X389212Y312351D01*
X390125Y314557D01*
Y316943D01*
X389212Y319149D01*
X387524Y320836D01*
X386374Y321313D01*
Y322687D01*
X387524Y323163D01*
X389212Y324851D01*
X390125Y327057D01*
Y329444D01*
X389212Y331649D01*
X387524Y333336D01*
X385318Y334250D01*
X383250D01*
Y335694D01*
X382337Y337899D01*
X380649Y339586D01*
X378443Y340500D01*
D02*
G37*
G36*
X442845Y337750D02*
X441155D01*
X439593Y337103D01*
X438397Y335907D01*
X437750Y334345D01*
Y332655D01*
X438397Y331093D01*
X439593Y329897D01*
X441155Y329250D01*
X442845D01*
X444407Y329897D01*
X445603Y331093D01*
X446250Y332655D01*
Y334345D01*
X445603Y335907D01*
X444407Y337103D01*
X442845Y337750D01*
D02*
G37*
G36*
X478595Y325250D02*
X476905D01*
X475343Y324603D01*
X474147Y323407D01*
X473500Y321845D01*
Y320155D01*
X474147Y318593D01*
X475343Y317397D01*
X476905Y316750D01*
X478595D01*
X480157Y317397D01*
X481353Y318593D01*
X482000Y320155D01*
Y321845D01*
X481353Y323407D01*
X480157Y324603D01*
X478595Y325250D01*
D02*
G37*
G36*
X504595Y284250D02*
X502905D01*
X501343Y283603D01*
X500147Y282407D01*
X499500Y280845D01*
Y279155D01*
X500147Y277593D01*
X501343Y276397D01*
X502905Y275750D01*
X504595D01*
X506157Y276397D01*
X507353Y277593D01*
X508000Y279155D01*
Y280845D01*
X507353Y282407D01*
X506157Y283603D01*
X504595Y284250D01*
D02*
G37*
G36*
X425845Y272250D02*
X424155D01*
X422593Y271603D01*
X421397Y270407D01*
X420750Y268845D01*
Y267155D01*
X421397Y265593D01*
X422593Y264397D01*
X424155Y263750D01*
X425845D01*
X427407Y264397D01*
X428603Y265593D01*
X429250Y267155D01*
Y268845D01*
X428603Y270407D01*
X427407Y271603D01*
X425845Y272250D01*
D02*
G37*
G36*
Y259250D02*
X424155D01*
X422593Y258603D01*
X421397Y257407D01*
X420750Y255845D01*
Y254155D01*
X421397Y252593D01*
X422182Y251808D01*
X422457Y251000D01*
X422182Y250192D01*
X421397Y249408D01*
X420750Y247845D01*
Y246155D01*
X421397Y244593D01*
X422593Y243397D01*
X424155Y242750D01*
X425845D01*
X427407Y243397D01*
X428603Y244593D01*
X429250Y246155D01*
Y247845D01*
X428603Y249408D01*
X427818Y250192D01*
X427543Y251000D01*
X427818Y251808D01*
X428603Y252593D01*
X429250Y254155D01*
Y255845D01*
X428603Y257407D01*
X427407Y258603D01*
X425845Y259250D01*
D02*
G37*
G36*
X426194Y237000D02*
X423806D01*
X421601Y236087D01*
X419913Y234399D01*
X419000Y232194D01*
Y229806D01*
X419913Y227601D01*
X421601Y225913D01*
X423806Y225000D01*
X426194D01*
X428399Y225913D01*
X430087Y227601D01*
X431000Y229806D01*
Y232194D01*
X430087Y234399D01*
X428399Y236087D01*
X426194Y237000D01*
D02*
G37*
G36*
X501000Y258000D02*
X447000D01*
Y204000D01*
X501000D01*
Y258000D01*
D02*
G37*
G36*
X425845Y219250D02*
X424155D01*
X422593Y218603D01*
X421397Y217407D01*
X420750Y215845D01*
Y214155D01*
X421397Y212593D01*
X422182Y211808D01*
X422457Y211000D01*
X422182Y210192D01*
X421397Y209407D01*
X420750Y207845D01*
Y206155D01*
X421397Y204593D01*
X422593Y203397D01*
X424155Y202750D01*
X425845D01*
X427407Y203397D01*
X428603Y204593D01*
X429250Y206155D01*
Y207845D01*
X428603Y209407D01*
X427818Y210192D01*
X427543Y211000D01*
X427818Y211808D01*
X428603Y212593D01*
X429250Y214155D01*
Y215845D01*
X428603Y217407D01*
X427407Y218603D01*
X425845Y219250D01*
D02*
G37*
G36*
X450845Y186250D02*
X449155D01*
X447593Y185603D01*
X446397Y184408D01*
X445750Y182845D01*
Y181155D01*
X446397Y179593D01*
X447593Y178397D01*
X449155Y177750D01*
X450845D01*
X452407Y178397D01*
X453603Y179593D01*
X454250Y181155D01*
Y182845D01*
X453603Y184408D01*
X452407Y185603D01*
X450845Y186250D01*
D02*
G37*
G36*
X507095Y185750D02*
X505405D01*
X503843Y185103D01*
X502647Y183907D01*
X502000Y182345D01*
Y180655D01*
X502647Y179093D01*
X503843Y177897D01*
X505405Y177250D01*
X507095D01*
X508657Y177897D01*
X509853Y179093D01*
X510500Y180655D01*
Y182345D01*
X509853Y183907D01*
X508657Y185103D01*
X507095Y185750D01*
D02*
G37*
%LPD*%
G36*
X494000Y709250D02*
X494000Y675406D01*
Y637315D01*
X493713Y636246D01*
Y633481D01*
X494000Y632412D01*
Y611500D01*
X461500Y579000D01*
X389250D01*
X378750Y589500D01*
Y621250D01*
X396250Y638750D01*
X423500Y638750D01*
X441250Y656500D01*
X441250Y716000D01*
X445500Y720250D01*
X483000D01*
X494000Y709250D01*
D02*
G37*
%LPC*%
G36*
X472250Y710419D02*
Y702250D01*
X480419D01*
X480201Y702776D01*
X478232Y705724D01*
X475724Y708232D01*
X472776Y710201D01*
X472250Y710419D01*
D02*
G37*
G36*
X456250D02*
X455724Y710201D01*
X452776Y708232D01*
X450269Y705724D01*
X448299Y702776D01*
X448081Y702250D01*
X456250D01*
Y710419D01*
D02*
G37*
G36*
X480419Y686250D02*
X472250D01*
Y678081D01*
X472776Y678299D01*
X475724Y680268D01*
X478232Y682776D01*
X480201Y685724D01*
X480419Y686250D01*
D02*
G37*
G36*
X456250D02*
X448081D01*
X448299Y685724D01*
X450269Y682776D01*
X452776Y680268D01*
X455724Y678299D01*
X456250Y678081D01*
Y686250D01*
D02*
G37*
G36*
X412214Y621033D02*
Y612864D01*
X420383D01*
X420165Y613390D01*
X418195Y616338D01*
X415688Y618845D01*
X412740Y620815D01*
X412214Y621033D01*
D02*
G37*
G36*
X396214Y621033D02*
X395687Y620815D01*
X392739Y618845D01*
X390232Y616338D01*
X388262Y613390D01*
X388044Y612864D01*
X396214D01*
Y621033D01*
D02*
G37*
G36*
X420383Y596864D02*
X412214D01*
Y588694D01*
X412740Y588912D01*
X415688Y590882D01*
X418195Y593389D01*
X420165Y596337D01*
X420383Y596864D01*
D02*
G37*
G36*
X396214D02*
X388044D01*
X388262Y596337D01*
X390232Y593389D01*
X392739Y590882D01*
X395687Y588912D01*
X396214Y588694D01*
Y596864D01*
D02*
G37*
G36*
X268150Y431492D02*
Y426100D01*
X273542D01*
X272352Y428161D01*
X270211Y430302D01*
X268150Y431492D01*
D02*
G37*
G36*
X258150D02*
X256089Y430302D01*
X253948Y428161D01*
X252758Y426100D01*
X258150D01*
Y431492D01*
D02*
G37*
G36*
X273542Y416100D02*
X268150D01*
Y410708D01*
X270211Y411898D01*
X272352Y414039D01*
X273542Y416100D01*
D02*
G37*
G36*
X258150D02*
X252758D01*
X253948Y414039D01*
X256089Y411898D01*
X258150Y410708D01*
Y416100D01*
D02*
G37*
G36*
X239198Y432100D02*
X236302D01*
X233504Y431350D01*
X230996Y429902D01*
X228948Y427854D01*
X227500Y425346D01*
X226750Y422548D01*
Y419652D01*
X227500Y416854D01*
X228948Y414346D01*
X230996Y412298D01*
X233504Y410850D01*
X236302Y410100D01*
X239198D01*
X241996Y410850D01*
X244504Y412298D01*
X246552Y414346D01*
X248000Y416854D01*
X248750Y419652D01*
Y422548D01*
X248000Y425346D01*
X246552Y427854D01*
X244504Y429902D01*
X241996Y431350D01*
X239198Y432100D01*
D02*
G37*
G36*
X32844Y352750D02*
X30656D01*
X28635Y351913D01*
X27087Y350365D01*
X26250Y348344D01*
Y346156D01*
X27087Y344134D01*
X28635Y342587D01*
X30656Y341750D01*
X32844D01*
X34866Y342587D01*
X36413Y344134D01*
X37250Y346156D01*
Y348344D01*
X36413Y350365D01*
X34866Y351913D01*
X32844Y352750D01*
D02*
G37*
G36*
X53344Y351750D02*
X51156D01*
X49134Y350913D01*
X47587Y349366D01*
X46750Y347344D01*
Y345156D01*
X47587Y343134D01*
X49134Y341587D01*
X51156Y340750D01*
X53344D01*
X55366Y341587D01*
X56913Y343134D01*
X57750Y345156D01*
Y347344D01*
X56913Y349366D01*
X55366Y350913D01*
X53344Y351750D01*
D02*
G37*
G36*
X110594Y334900D02*
X108406D01*
X106384Y334063D01*
X104837Y332515D01*
X104000Y330494D01*
Y328306D01*
X104837Y326284D01*
X106384Y324737D01*
X108406Y323900D01*
X110594D01*
X112615Y324737D01*
X114163Y326284D01*
X115000Y328306D01*
Y330494D01*
X114163Y332515D01*
X112615Y334063D01*
X110594Y334900D01*
D02*
G37*
G36*
X52250Y336965D02*
X44250D01*
X42292Y336707D01*
X40468Y335951D01*
X38901Y334749D01*
X37699Y333182D01*
X36943Y331358D01*
X36685Y329400D01*
X36943Y327442D01*
X37699Y325618D01*
X38901Y324051D01*
X40468Y322849D01*
X42292Y322093D01*
X44250Y321835D01*
X52250D01*
X54208Y322093D01*
X56032Y322849D01*
X57599Y324051D01*
X58801Y325618D01*
X59557Y327442D01*
X59815Y329400D01*
X59557Y331358D01*
X58801Y333182D01*
X57599Y334749D01*
X56032Y335951D01*
X54208Y336707D01*
X52250Y336965D01*
D02*
G37*
G36*
X94050D02*
X86050D01*
X84092Y336707D01*
X82268Y335951D01*
X80701Y334749D01*
X79499Y333182D01*
X78743Y331358D01*
X78485Y329400D01*
X78743Y327442D01*
X79499Y325618D01*
X80701Y324051D01*
X82268Y322849D01*
X84092Y322093D01*
X83906Y320850D01*
X81793Y319975D01*
X80175Y318357D01*
X79300Y316244D01*
Y313956D01*
X80175Y311843D01*
X81793Y310225D01*
X83906Y309350D01*
X86194D01*
X88307Y310225D01*
X89925Y311843D01*
X90800Y313956D01*
Y316244D01*
X89925Y318357D01*
X88307Y319975D01*
X86881Y320565D01*
X87134Y321835D01*
X94050D01*
X96008Y322093D01*
X97832Y322849D01*
X99399Y324051D01*
X100601Y325618D01*
X101357Y327442D01*
X101615Y329400D01*
X101357Y331358D01*
X100601Y333182D01*
X99399Y334749D01*
X97832Y335951D01*
X96008Y336707D01*
X94050Y336965D01*
D02*
G37*
G36*
X63094Y310750D02*
X60906D01*
X58885Y309913D01*
X57337Y308365D01*
X56500Y306344D01*
Y304688D01*
X56219Y304500D01*
X54031D01*
X53750Y304688D01*
Y306344D01*
X52913Y308365D01*
X51365Y309913D01*
X49344Y310750D01*
X47156D01*
X45135Y309913D01*
X43587Y308365D01*
X42750Y306344D01*
Y304678D01*
X42469Y304490D01*
X40281D01*
X40000Y304678D01*
Y306334D01*
X39163Y308356D01*
X37615Y309903D01*
X35594Y310740D01*
X33406D01*
X31384Y309903D01*
X29837Y308356D01*
X29000Y306334D01*
Y304146D01*
X29837Y302125D01*
X31384Y300577D01*
X33406Y299740D01*
X35594D01*
X35792Y299608D01*
Y299428D01*
X34577Y298240D01*
X33406D01*
X31384Y297403D01*
X29837Y295856D01*
X29000Y293834D01*
Y291646D01*
X29837Y289625D01*
X31384Y288077D01*
X33406Y287240D01*
X35594D01*
X35792Y287108D01*
Y286928D01*
X34577Y285740D01*
X33406D01*
X31384Y284903D01*
X29837Y283356D01*
X29000Y281334D01*
Y279146D01*
X29837Y277125D01*
X31384Y275577D01*
X33406Y274740D01*
X35594D01*
X35792Y274608D01*
Y274428D01*
X34577Y273240D01*
X33406D01*
X31384Y272403D01*
X29837Y270856D01*
X29000Y268834D01*
Y266646D01*
X29837Y264625D01*
X31384Y263077D01*
X33406Y262240D01*
X35594D01*
X37615Y263077D01*
X39163Y264625D01*
X40000Y266646D01*
Y268302D01*
X40281Y268490D01*
X42469D01*
X42750Y268302D01*
Y266656D01*
X43587Y264634D01*
X45135Y263087D01*
X47156Y262250D01*
X49344D01*
X51365Y263087D01*
X52913Y264634D01*
X53750Y266656D01*
Y268312D01*
X54031Y268500D01*
X56219D01*
X56500Y268312D01*
Y266656D01*
X57337Y264634D01*
X58885Y263087D01*
X60906Y262250D01*
X63094D01*
X65115Y263087D01*
X66663Y264634D01*
X67500Y266656D01*
Y268844D01*
X66663Y270865D01*
X65115Y272413D01*
X63094Y273250D01*
X60906D01*
X60708Y273382D01*
Y273562D01*
X61923Y274750D01*
X63094D01*
X65115Y275587D01*
X66663Y277134D01*
X67500Y279156D01*
Y281344D01*
X66663Y283365D01*
X65115Y284913D01*
X63094Y285750D01*
X60906D01*
X60708Y285882D01*
Y286062D01*
X61923Y287250D01*
X63094D01*
X65115Y288087D01*
X66663Y289634D01*
X67500Y291656D01*
Y293844D01*
X66663Y295865D01*
X65115Y297413D01*
X63094Y298250D01*
X60906D01*
X60708Y298382D01*
Y298562D01*
X61923Y299750D01*
X63094D01*
X65115Y300587D01*
X66663Y302134D01*
X67500Y304156D01*
Y306344D01*
X66663Y308365D01*
X65115Y309913D01*
X63094Y310750D01*
D02*
G37*
G36*
X276582Y305120D02*
X273918D01*
X271344Y304430D01*
X269036Y303098D01*
X267152Y301214D01*
X266256Y299661D01*
X264805Y299690D01*
X263748Y301521D01*
X261771Y303498D01*
X259349Y304896D01*
X259250Y304923D01*
Y295000D01*
Y285077D01*
X259349Y285104D01*
X261771Y286502D01*
X263748Y288479D01*
X264805Y290310D01*
X266256Y290339D01*
X267152Y288786D01*
X269036Y286902D01*
X271344Y285570D01*
X273918Y284880D01*
X276582D01*
X279156Y285570D01*
X281464Y286902D01*
X283348Y288786D01*
X284680Y291094D01*
X285370Y293668D01*
Y296332D01*
X284680Y298906D01*
X283348Y301214D01*
X281464Y303098D01*
X279156Y304430D01*
X276582Y305120D01*
D02*
G37*
G36*
X251250Y304923D02*
X251151Y304896D01*
X248729Y303498D01*
X246752Y301521D01*
X245354Y299099D01*
X245327Y299000D01*
X251250D01*
Y304923D01*
D02*
G37*
G36*
Y291000D02*
X245327D01*
X245354Y290901D01*
X246752Y288479D01*
X248729Y286502D01*
X251151Y285104D01*
X251250Y285077D01*
Y291000D01*
D02*
G37*
G36*
X125844Y289250D02*
X123656D01*
X121635Y288413D01*
X120087Y286866D01*
X119250Y284844D01*
Y282656D01*
X120087Y280634D01*
X121635Y279087D01*
X123656Y278250D01*
X125844D01*
X127865Y279087D01*
X129413Y280634D01*
X130250Y282656D01*
Y284844D01*
X129413Y286866D01*
X127865Y288413D01*
X125844Y289250D01*
D02*
G37*
G36*
X83844Y294250D02*
X81656D01*
X79634Y293413D01*
X78087Y291866D01*
X77250Y289844D01*
Y287656D01*
X78087Y285634D01*
X79175Y284547D01*
X79494Y283725D01*
X79175Y282903D01*
X78087Y281815D01*
X77250Y279794D01*
Y277606D01*
X78087Y275585D01*
X79634Y274037D01*
X81656Y273200D01*
X83844D01*
X85865Y274037D01*
X87413Y275585D01*
X88250Y277606D01*
Y279794D01*
X87413Y281815D01*
X86325Y282903D01*
X86006Y283725D01*
X86325Y284547D01*
X87413Y285634D01*
X88250Y287656D01*
Y289844D01*
X87413Y291866D01*
X85865Y293413D01*
X83844Y294250D01*
D02*
G37*
G36*
X231187Y281150D02*
X228999D01*
X226978Y280313D01*
X225430Y278766D01*
X224593Y276744D01*
Y274556D01*
X225430Y272535D01*
X226978Y270987D01*
X228999Y270150D01*
X231187D01*
X233209Y270987D01*
X234756Y272535D01*
X235593Y274556D01*
Y276744D01*
X234756Y278766D01*
X233209Y280313D01*
X231187Y281150D01*
D02*
G37*
G36*
X126113Y252019D02*
X123925D01*
X121904Y251182D01*
X120357Y249635D01*
X119519Y247613D01*
Y246750D01*
X117906D01*
X115885Y245913D01*
X115535Y245563D01*
X114289Y245811D01*
X114163Y246115D01*
X112615Y247663D01*
X110594Y248500D01*
X108406D01*
X106384Y247663D01*
X104837Y246115D01*
X104000Y244094D01*
Y241906D01*
X104837Y239884D01*
X106384Y238337D01*
X108406Y237500D01*
X110594D01*
X112615Y238337D01*
X112965Y238687D01*
X114211Y238440D01*
X114337Y238134D01*
X115885Y236587D01*
X117906Y235750D01*
X120094D01*
X122115Y236587D01*
X123663Y238134D01*
X124500Y240156D01*
Y241019D01*
X126113D01*
X128135Y241857D01*
X129682Y243404D01*
X130519Y245425D01*
Y247613D01*
X129682Y249635D01*
X128135Y251182D01*
X126113Y252019D01*
D02*
G37*
G36*
X250594Y251250D02*
X248406D01*
X246385Y250413D01*
X244837Y248866D01*
X244000Y246844D01*
Y244656D01*
X244837Y242635D01*
X246385Y241087D01*
X248406Y240250D01*
X250594D01*
X252616Y241087D01*
X254163Y242635D01*
X255000Y244656D01*
Y246844D01*
X254163Y248866D01*
X252616Y250413D01*
X250594Y251250D01*
D02*
G37*
G36*
X86194Y263050D02*
X83906D01*
X81793Y262175D01*
X80175Y260557D01*
X79300Y258444D01*
Y256156D01*
X80175Y254043D01*
X81793Y252425D01*
X83906Y251550D01*
X84092Y250307D01*
X82268Y249551D01*
X80701Y248349D01*
X79499Y246782D01*
X78743Y244958D01*
X78485Y243000D01*
X78743Y241042D01*
X79499Y239218D01*
X80701Y237651D01*
X82268Y236449D01*
X84092Y235693D01*
X86050Y235435D01*
X94050D01*
X96008Y235693D01*
X97832Y236449D01*
X99399Y237651D01*
X100601Y239218D01*
X101357Y241042D01*
X101615Y243000D01*
X101357Y244958D01*
X100601Y246782D01*
X99399Y248349D01*
X97832Y249551D01*
X96008Y250307D01*
X94050Y250565D01*
X87134D01*
X86881Y251835D01*
X88307Y252425D01*
X89925Y254043D01*
X90800Y256156D01*
Y258444D01*
X89925Y260557D01*
X88307Y262175D01*
X86194Y263050D01*
D02*
G37*
G36*
X52250Y250565D02*
X44250D01*
X42292Y250307D01*
X40468Y249551D01*
X38901Y248349D01*
X37699Y246782D01*
X36943Y244958D01*
X36685Y243000D01*
X36943Y241042D01*
X37699Y239218D01*
X38901Y237651D01*
X40468Y236449D01*
X42292Y235693D01*
X44250Y235435D01*
X52250D01*
X54208Y235693D01*
X56032Y236449D01*
X57599Y237651D01*
X58801Y239218D01*
X59557Y241042D01*
X59815Y243000D01*
X59557Y244958D01*
X58801Y246782D01*
X57599Y248349D01*
X56032Y249551D01*
X54208Y250307D01*
X52250Y250565D01*
D02*
G37*
G36*
X191344Y235500D02*
X189156D01*
X187134Y234663D01*
X185587Y233116D01*
X184750Y231094D01*
Y228906D01*
X185587Y226884D01*
X187134Y225337D01*
X189156Y224500D01*
X191344D01*
X193365Y225337D01*
X194913Y226884D01*
X195750Y228906D01*
Y231094D01*
X194913Y233116D01*
X193365Y234663D01*
X191344Y235500D01*
D02*
G37*
G36*
X126594Y227000D02*
X124406D01*
X122385Y226163D01*
X120837Y224615D01*
X120000Y222594D01*
Y220406D01*
X120837Y218384D01*
X122385Y216837D01*
X124406Y216000D01*
X126594D01*
X128616Y216837D01*
X130163Y218384D01*
X131000Y220406D01*
Y222594D01*
X130163Y224615D01*
X128616Y226163D01*
X126594Y227000D01*
D02*
G37*
G36*
X206344Y238250D02*
X204156D01*
X202134Y237413D01*
X200587Y235865D01*
X199750Y233844D01*
Y231656D01*
X200587Y229634D01*
X202134Y228087D01*
X204156Y227250D01*
X204765D01*
Y225406D01*
X205603Y223384D01*
X207150Y221837D01*
X209171Y221000D01*
X209858Y219973D01*
X209490Y219084D01*
Y216896D01*
X210327Y214874D01*
X211874Y213327D01*
X213896Y212490D01*
X216084D01*
X218105Y213327D01*
X219652Y214874D01*
X220490Y216896D01*
Y219084D01*
X219652Y221105D01*
X218105Y222652D01*
X216308Y223397D01*
X215723Y224030D01*
X215397Y224517D01*
X215765Y225406D01*
Y227594D01*
X214928Y229615D01*
X213381Y231163D01*
X211359Y232000D01*
X210750D01*
Y233844D01*
X209913Y235865D01*
X208365Y237413D01*
X206344Y238250D01*
D02*
G37*
G36*
X185594Y222250D02*
X183406D01*
X181385Y221413D01*
X179837Y219865D01*
X179000Y217844D01*
Y215656D01*
X179837Y213634D01*
X181385Y212087D01*
X183406Y211250D01*
X185594D01*
X187616Y212087D01*
X189163Y213634D01*
X190000Y215656D01*
Y217844D01*
X189163Y219865D01*
X187616Y221413D01*
X185594Y222250D01*
D02*
G37*
G36*
X121069Y204774D02*
X118882D01*
X116860Y203937D01*
X115313Y202390D01*
X114628Y202748D01*
X114553Y202824D01*
X112531Y203661D01*
X110343D01*
X108322Y202824D01*
X106775Y201276D01*
X105937Y199255D01*
Y197067D01*
X106775Y195046D01*
X108138Y193682D01*
X108134Y193663D01*
X106587Y192115D01*
X106025Y192004D01*
X104866Y193163D01*
X102844Y194000D01*
X100656D01*
X98635Y193163D01*
X97087Y191616D01*
X96250Y189594D01*
Y187406D01*
X97087Y185385D01*
X98097Y184375D01*
X97087Y183365D01*
X96250Y181344D01*
Y179156D01*
X97087Y177134D01*
X98635Y175587D01*
X100656Y174750D01*
X102844D01*
X104866Y175587D01*
X106413Y177134D01*
X107250Y179156D01*
Y181344D01*
X106413Y183365D01*
X105403Y184375D01*
X106413Y185385D01*
X106975Y185496D01*
X108134Y184337D01*
X110156Y183500D01*
X112344D01*
X114366Y184337D01*
X115913Y185884D01*
X116750Y187906D01*
Y190094D01*
X115913Y192115D01*
X115435Y192594D01*
X115436Y194011D01*
X116523Y194824D01*
X116785Y194687D01*
X116860Y194612D01*
X118882Y193775D01*
X121069D01*
X123091Y194612D01*
X124638Y196159D01*
X125476Y198181D01*
Y200368D01*
X124638Y202390D01*
X123091Y203937D01*
X121069Y204774D01*
D02*
G37*
G36*
X19094Y209500D02*
X16906D01*
X14885Y208663D01*
X13337Y207115D01*
X12500Y205094D01*
Y202906D01*
X13337Y200884D01*
X14885Y199337D01*
X16906Y198500D01*
X19094D01*
X21116Y199337D01*
X22663Y200884D01*
X23500Y202906D01*
Y205094D01*
X22663Y207115D01*
X21116Y208663D01*
X19094Y209500D01*
D02*
G37*
G36*
X297844Y204000D02*
X295656D01*
X293634Y203163D01*
X292087Y201616D01*
X291250Y199594D01*
Y197406D01*
X292087Y195385D01*
X293634Y193837D01*
X295656Y193000D01*
X297844D01*
X299865Y193837D01*
X301413Y195385D01*
X302250Y197406D01*
Y199594D01*
X301413Y201616D01*
X299865Y203163D01*
X297844Y204000D01*
D02*
G37*
G36*
X72594Y207750D02*
X70406D01*
X68384Y206913D01*
X66837Y205366D01*
X66000Y203344D01*
Y201156D01*
X66837Y199135D01*
X67140Y198832D01*
X66949Y197227D01*
X65837Y196115D01*
X65000Y194094D01*
Y191906D01*
X65837Y189884D01*
X67385Y188337D01*
X69406Y187500D01*
X71594D01*
X73615Y188337D01*
X75163Y189884D01*
X76000Y191906D01*
Y194094D01*
X75163Y196115D01*
X74860Y196418D01*
X75051Y198023D01*
X76163Y199135D01*
X77000Y201156D01*
Y203344D01*
X76163Y205366D01*
X74616Y206913D01*
X72594Y207750D01*
D02*
G37*
G36*
X128618Y173856D02*
X126430D01*
X124408Y173019D01*
X122861Y171471D01*
X122024Y169450D01*
Y167262D01*
X122861Y165240D01*
X124408Y163693D01*
X126430Y162856D01*
X128618D01*
X130639Y163693D01*
X131342Y164396D01*
X132400Y163337D01*
X134422Y162500D01*
X136610D01*
X138631Y163337D01*
X140178Y164884D01*
X141016Y166906D01*
Y169094D01*
X140178Y171115D01*
X138631Y172663D01*
X136610Y173500D01*
X134422D01*
X132400Y172663D01*
X131698Y171960D01*
X130639Y173019D01*
X128618Y173856D01*
D02*
G37*
G36*
X272344Y172750D02*
X270156D01*
X268134Y171913D01*
X266587Y170366D01*
X265750Y168344D01*
Y166156D01*
X266587Y164135D01*
X268134Y162587D01*
X270156Y161750D01*
X272344D01*
X274366Y162587D01*
X275913Y164135D01*
X276750Y166156D01*
Y168344D01*
X275913Y170366D01*
X274366Y171913D01*
X272344Y172750D01*
D02*
G37*
G36*
X255844D02*
X253656D01*
X251635Y171913D01*
X250087Y170366D01*
X249250Y168344D01*
Y166156D01*
X250087Y164135D01*
X251635Y162587D01*
X253656Y161750D01*
X255844D01*
X257866Y162587D01*
X259413Y164135D01*
X260250Y166156D01*
Y168344D01*
X259413Y170366D01*
X257866Y171913D01*
X255844Y172750D01*
D02*
G37*
G36*
X148344Y167250D02*
X146156D01*
X144135Y166413D01*
X142587Y164865D01*
X141750Y162844D01*
Y160656D01*
X142587Y158635D01*
X144135Y157087D01*
X146156Y156250D01*
X148344D01*
X150365Y157087D01*
X151913Y158635D01*
X152750Y160656D01*
Y162844D01*
X151913Y164865D01*
X150365Y166413D01*
X148344Y167250D01*
D02*
G37*
G36*
X202882Y161538D02*
X200694D01*
X198672Y160700D01*
X197125Y159153D01*
X196288Y157132D01*
Y154944D01*
X197125Y152922D01*
X198672Y151375D01*
X200694Y150538D01*
X202882D01*
X204903Y151375D01*
X206450Y152922D01*
X207288Y154944D01*
Y157132D01*
X206450Y159153D01*
X204903Y160700D01*
X202882Y161538D01*
D02*
G37*
G36*
X241094Y158000D02*
X238906D01*
X236884Y157163D01*
X235337Y155616D01*
X234500Y153594D01*
Y151406D01*
X235337Y149384D01*
X236884Y147837D01*
X238906Y147000D01*
X241094D01*
X243116Y147837D01*
X244663Y149384D01*
X245500Y151406D01*
Y153594D01*
X244663Y155616D01*
X243116Y157163D01*
X241094Y158000D01*
D02*
G37*
G36*
X141594Y156750D02*
X139406D01*
X137385Y155913D01*
X135837Y154366D01*
X135000Y152344D01*
Y150156D01*
X135837Y148134D01*
X137385Y146587D01*
X138360Y146183D01*
X137809Y144853D01*
Y142665D01*
X138646Y140644D01*
X140193Y139097D01*
X142215Y138259D01*
X144403D01*
X146424Y139097D01*
X147971Y140644D01*
X148809Y142665D01*
Y144853D01*
X147971Y146875D01*
X146424Y148422D01*
X145449Y148826D01*
X146000Y150156D01*
Y152344D01*
X145163Y154366D01*
X143616Y155913D01*
X141594Y156750D01*
D02*
G37*
G36*
X187094Y147750D02*
X184906D01*
X182885Y146913D01*
X181337Y145365D01*
X180500Y143344D01*
Y141156D01*
X181337Y139135D01*
X182885Y137587D01*
X184906Y136750D01*
X187094D01*
X189116Y137587D01*
X190663Y139135D01*
X191500Y141156D01*
Y143344D01*
X190663Y145365D01*
X189116Y146913D01*
X187094Y147750D01*
D02*
G37*
G36*
X249844Y129000D02*
X247656D01*
X245634Y128163D01*
X244087Y126615D01*
X243250Y124594D01*
Y122406D01*
X244087Y120385D01*
X245634Y118837D01*
X247656Y118000D01*
X249844D01*
X251866Y118837D01*
X252875Y119847D01*
X254135Y118587D01*
X256156Y117750D01*
X258344D01*
X260366Y118587D01*
X261913Y120134D01*
X262750Y122156D01*
Y124344D01*
X261913Y126365D01*
X260366Y127913D01*
X258344Y128750D01*
X256156D01*
X254135Y127913D01*
X253125Y126903D01*
X251866Y128163D01*
X249844Y129000D01*
D02*
G37*
G36*
X42921Y182563D02*
X37806D01*
X32753Y181763D01*
X27888Y180182D01*
X23330Y177860D01*
X19191Y174853D01*
X15574Y171236D01*
X12567Y167097D01*
X10245Y162539D01*
X8664Y157674D01*
X7864Y152621D01*
Y147506D01*
X8664Y142453D01*
X10245Y137588D01*
X12567Y133030D01*
X15574Y128891D01*
X19191Y125274D01*
X23330Y122267D01*
X27888Y119944D01*
X32753Y118364D01*
X37806Y117563D01*
X42921D01*
X47974Y118364D01*
X52839Y119944D01*
X57397Y122267D01*
X61536Y125274D01*
X65153Y128891D01*
X68160Y133030D01*
X70483Y137588D01*
X72063Y142453D01*
X72863Y147506D01*
Y152621D01*
X72063Y157674D01*
X70483Y162539D01*
X68160Y167097D01*
X65153Y171236D01*
X61536Y174853D01*
X57397Y177860D01*
X52839Y180182D01*
X47974Y181763D01*
X42921Y182563D01*
D02*
G37*
G36*
X215844Y127000D02*
X213656D01*
X211635Y126163D01*
X210087Y124615D01*
X209250Y122594D01*
Y120406D01*
X210087Y118385D01*
X211635Y116837D01*
X213656Y116000D01*
X215844D01*
X217866Y116837D01*
X219413Y118385D01*
X220250Y120406D01*
Y122594D01*
X219413Y124615D01*
X217866Y126163D01*
X215844Y127000D01*
D02*
G37*
G36*
X90594Y122000D02*
X88406D01*
X86384Y121163D01*
X84837Y119615D01*
X84000Y117594D01*
Y115406D01*
X84837Y113385D01*
X86384Y111837D01*
X88406Y111000D01*
X90594D01*
X92615Y111837D01*
X94163Y113385D01*
X95000Y115406D01*
Y117594D01*
X94163Y119615D01*
X92615Y121163D01*
X90594Y122000D01*
D02*
G37*
G36*
X293094Y120000D02*
X290906D01*
X288885Y119163D01*
X287337Y117615D01*
X286500Y115594D01*
Y113406D01*
X287337Y111384D01*
X288885Y109837D01*
X290906Y109000D01*
X293094D01*
X295116Y109837D01*
X296663Y111384D01*
X297500Y113406D01*
Y115594D01*
X296663Y117615D01*
X295116Y119163D01*
X293094Y120000D01*
D02*
G37*
G36*
X160431Y116337D02*
X158243D01*
X156222Y115500D01*
X154675Y113953D01*
X153837Y111931D01*
Y109743D01*
X154675Y107722D01*
X156222Y106175D01*
X158243Y105337D01*
X160431D01*
X162453Y106175D01*
X164000Y107722D01*
X164837Y109743D01*
Y111931D01*
X164000Y113953D01*
X162453Y115500D01*
X160431Y116337D01*
D02*
G37*
G36*
X48094Y115500D02*
X45906D01*
X43885Y114663D01*
X42337Y113116D01*
X41500Y111094D01*
Y108906D01*
X42337Y106884D01*
X43885Y105337D01*
X45906Y104500D01*
X48094D01*
X50115Y105337D01*
X51663Y106884D01*
X52500Y108906D01*
Y111094D01*
X51663Y113116D01*
X50115Y114663D01*
X48094Y115500D01*
D02*
G37*
G36*
X202594Y124000D02*
X200406D01*
X198384Y123163D01*
X196837Y121615D01*
X196000Y119594D01*
Y117406D01*
X196837Y115385D01*
X198384Y113837D01*
X198762Y113681D01*
X199233Y112345D01*
X198500Y110576D01*
Y108388D01*
X199337Y106366D01*
X200884Y104819D01*
X202906Y103982D01*
X205094D01*
X207115Y104819D01*
X208663Y106366D01*
X209500Y108388D01*
Y110576D01*
X208663Y112597D01*
X207115Y114144D01*
X206738Y114301D01*
X206267Y115636D01*
X207000Y117406D01*
Y119594D01*
X206163Y121615D01*
X204615Y123163D01*
X202594Y124000D01*
D02*
G37*
G36*
X215594Y108250D02*
X213406D01*
X211385Y107413D01*
X209837Y105865D01*
X209000Y103844D01*
Y101656D01*
X209837Y99635D01*
X211385Y98087D01*
X213406Y97250D01*
X215594D01*
X217616Y98087D01*
X219163Y99635D01*
X220000Y101656D01*
Y103844D01*
X219163Y105865D01*
X217616Y107413D01*
X215594Y108250D01*
D02*
G37*
G36*
X253020Y114202D02*
X250832D01*
X248811Y113365D01*
X247263Y111818D01*
X246426Y109796D01*
Y107608D01*
X246810Y106682D01*
X245435Y106112D01*
X243888Y104565D01*
X243050Y102544D01*
Y100356D01*
X243888Y98334D01*
X245435Y96787D01*
X247456Y95950D01*
X249644D01*
X251666Y96787D01*
X253213Y98334D01*
X254050Y100356D01*
Y102544D01*
X253666Y103470D01*
X255042Y104040D01*
X256589Y105587D01*
X257426Y107608D01*
Y109796D01*
X256589Y111818D01*
X255042Y113365D01*
X253020Y114202D01*
D02*
G37*
G36*
X170594Y106500D02*
X168406D01*
X166385Y105663D01*
X164837Y104115D01*
X164000Y102094D01*
Y99906D01*
X164837Y97885D01*
X166385Y96337D01*
X168406Y95500D01*
X170594D01*
X172616Y96337D01*
X174163Y97885D01*
X175000Y99906D01*
Y102094D01*
X174163Y104115D01*
X172616Y105663D01*
X170594Y106500D01*
D02*
G37*
G36*
X231344Y95250D02*
X229156D01*
X227134Y94413D01*
X225587Y92865D01*
X224750Y90844D01*
Y88656D01*
X225587Y86635D01*
X227134Y85087D01*
X229156Y84250D01*
X231344D01*
X233365Y85087D01*
X234913Y86635D01*
X235750Y88656D01*
Y90844D01*
X234913Y92865D01*
X233365Y94413D01*
X231344Y95250D01*
D02*
G37*
G36*
X185344Y92500D02*
X183156D01*
X181134Y91663D01*
X179587Y90115D01*
X178750Y88094D01*
Y85906D01*
X179587Y83884D01*
X181134Y82337D01*
X183156Y81500D01*
X185344D01*
X187365Y82337D01*
X188913Y83884D01*
X189750Y85906D01*
Y88094D01*
X188913Y90115D01*
X187365Y91663D01*
X185344Y92500D01*
D02*
G37*
G36*
X116094Y72750D02*
X113906D01*
X111884Y71913D01*
X110337Y70366D01*
X109500Y68344D01*
Y66156D01*
X110337Y64134D01*
X111884Y62587D01*
X113906Y61750D01*
X116094D01*
X118116Y62587D01*
X119663Y64134D01*
X120500Y66156D01*
Y68344D01*
X119663Y70366D01*
X118116Y71913D01*
X116094Y72750D01*
D02*
G37*
G36*
X262594D02*
X260406D01*
X258384Y71913D01*
X256837Y70366D01*
X256000Y68344D01*
Y66156D01*
X256837Y64134D01*
X257722Y63250D01*
X256337Y61866D01*
X256288Y61747D01*
X255865Y61663D01*
X253844Y62500D01*
X251923D01*
X251584Y62580D01*
X250750Y63499D01*
Y64964D01*
X249913Y66985D01*
X248365Y68532D01*
X246344Y69370D01*
X244156D01*
X242134Y68532D01*
X240587Y66985D01*
X239750Y64964D01*
Y62776D01*
X240587Y60754D01*
X242134Y59207D01*
X244156Y58370D01*
X246077D01*
X246416Y58290D01*
X247250Y57370D01*
Y55906D01*
X248087Y53885D01*
X249634Y52337D01*
X251656Y51500D01*
X253844D01*
X255865Y52337D01*
X257413Y53885D01*
X258727Y53738D01*
X259906Y53250D01*
X262094D01*
X264116Y54087D01*
X265663Y55634D01*
X266500Y57656D01*
Y59844D01*
X265663Y61866D01*
X266633Y62589D01*
X266884Y62337D01*
X268906Y61500D01*
X271094D01*
X273116Y62337D01*
X274663Y63885D01*
X275500Y65906D01*
Y68094D01*
X274663Y70115D01*
X273116Y71663D01*
X271094Y72500D01*
X268906D01*
X266884Y71663D01*
X265875Y70653D01*
X264615Y71913D01*
X262594Y72750D01*
D02*
G37*
G36*
X301094Y72500D02*
X298906D01*
X296884Y71663D01*
X295337Y70115D01*
X294500Y68094D01*
Y65906D01*
X295337Y63885D01*
X296884Y62337D01*
X298906Y61500D01*
X301094D01*
X303116Y62337D01*
X304663Y63885D01*
X305500Y65906D01*
Y68094D01*
X304663Y70115D01*
X303116Y71663D01*
X301094Y72500D01*
D02*
G37*
G36*
X286094D02*
X283906D01*
X281884Y71663D01*
X280337Y70115D01*
X279500Y68094D01*
Y65906D01*
X280337Y63885D01*
X281884Y62337D01*
X283906Y61500D01*
X286094D01*
X288116Y62337D01*
X289663Y63885D01*
X290500Y65906D01*
Y68094D01*
X289663Y70115D01*
X288116Y71663D01*
X286094Y72500D01*
D02*
G37*
G36*
X187902Y79766D02*
X185714D01*
X183693Y78928D01*
X182146Y77381D01*
X181308Y75360D01*
Y73172D01*
X182146Y71150D01*
X183693Y69603D01*
X185714Y68766D01*
X187902D01*
X188078Y68839D01*
X189406Y68014D01*
X190089Y66367D01*
X191636Y64820D01*
X193657Y63982D01*
X195845D01*
X196000Y63879D01*
Y62656D01*
X196837Y60634D01*
X198384Y59087D01*
X200406Y58250D01*
X202594D01*
X204615Y59087D01*
X206163Y60634D01*
X207000Y62656D01*
Y64844D01*
X206163Y66866D01*
X204615Y68413D01*
X202594Y69250D01*
X200406D01*
X200251Y69353D01*
Y70576D01*
X199414Y72598D01*
X197867Y74145D01*
X195845Y74982D01*
X193657D01*
X193482Y74909D01*
X192153Y75734D01*
X191471Y77381D01*
X189924Y78928D01*
X187902Y79766D01*
D02*
G37*
G36*
X96844Y64250D02*
X94656D01*
X92634Y63413D01*
X91087Y61866D01*
X90250Y59844D01*
Y57656D01*
X91087Y55634D01*
X92634Y54087D01*
X94656Y53250D01*
X96844D01*
X98865Y54087D01*
X100413Y55634D01*
X101250Y57656D01*
Y59844D01*
X100413Y61866D01*
X98865Y63413D01*
X96844Y64250D01*
D02*
G37*
G36*
X51094Y57500D02*
X48906D01*
X46884Y56663D01*
X45337Y55115D01*
X44500Y53094D01*
Y50906D01*
X45337Y48885D01*
X46884Y47337D01*
X48906Y46500D01*
X51094D01*
X53116Y47337D01*
X54663Y48885D01*
X55500Y50906D01*
Y53094D01*
X54663Y55115D01*
X53116Y56663D01*
X51094Y57500D01*
D02*
G37*
G36*
X182844Y38500D02*
X180656D01*
X178634Y37663D01*
X177087Y36116D01*
X176250Y34094D01*
Y31906D01*
X177087Y29885D01*
X178634Y28337D01*
X180656Y27500D01*
X182844D01*
X184865Y28337D01*
X186413Y29885D01*
X187250Y31906D01*
Y34094D01*
X186413Y36116D01*
X184865Y37663D01*
X182844Y38500D01*
D02*
G37*
G36*
X278094Y36250D02*
X275906D01*
X273885Y35413D01*
X272337Y33865D01*
X271500Y31844D01*
Y29656D01*
X272337Y27634D01*
X273885Y26087D01*
X275906Y25250D01*
X278094D01*
X280116Y26087D01*
X281663Y27634D01*
X282500Y29656D01*
Y31844D01*
X281663Y33865D01*
X280116Y35413D01*
X278094Y36250D01*
D02*
G37*
G36*
X167344Y30250D02*
X165156D01*
X163134Y29413D01*
X161587Y27866D01*
X160750Y25844D01*
Y23656D01*
X161587Y21635D01*
X163134Y20087D01*
X165156Y19250D01*
X167344D01*
X169366Y20087D01*
X170913Y21635D01*
X171750Y23656D01*
Y25844D01*
X170913Y27866D01*
X169366Y29413D01*
X167344Y30250D01*
D02*
G37*
G36*
X160844Y17250D02*
X158656D01*
X156635Y16413D01*
X155087Y14865D01*
X154250Y12844D01*
Y10656D01*
X155087Y8634D01*
X156635Y7087D01*
X158656Y6250D01*
X160844D01*
X162866Y7087D01*
X164413Y8634D01*
X165250Y10656D01*
Y12844D01*
X164413Y14865D01*
X162866Y16413D01*
X160844Y17250D01*
D02*
G37*
G36*
X146094D02*
X143906D01*
X141884Y16413D01*
X140337Y14865D01*
X139500Y12844D01*
Y10656D01*
X140337Y8634D01*
X141884Y7087D01*
X143906Y6250D01*
X146094D01*
X148116Y7087D01*
X149663Y8634D01*
X150500Y10656D01*
Y12844D01*
X149663Y14865D01*
X148116Y16413D01*
X146094Y17250D01*
D02*
G37*
G36*
X131094D02*
X128906D01*
X126884Y16413D01*
X125337Y14865D01*
X124500Y12844D01*
Y10656D01*
X125337Y8634D01*
X126884Y7087D01*
X128906Y6250D01*
X131094D01*
X133116Y7087D01*
X134663Y8634D01*
X135500Y10656D01*
Y12844D01*
X134663Y14865D01*
X133116Y16413D01*
X131094Y17250D01*
D02*
G37*
%LPD*%
D59*
X437900Y1157750D02*
D03*
D63*
X247750Y835250D02*
D03*
X263150Y421100D02*
D03*
D65*
X404213Y604864D02*
D03*
X414250Y694250D02*
D03*
X464250D02*
D03*
D68*
X255250Y295000D02*
D03*
X183000Y553000D02*
D03*
X309500Y1010000D02*
D03*
D70*
X577500Y294000D02*
D03*
X210250Y991750D02*
D03*
X332250Y944750D02*
D03*
Y915750D02*
D03*
Y923000D02*
D03*
X307663Y1062587D02*
D03*
X488500Y664500D02*
D03*
Y627000D02*
D03*
Y652000D02*
D03*
Y639500D02*
D03*
Y614510D02*
D03*
X481625Y658250D02*
D03*
Y620750D02*
D03*
Y645750D02*
D03*
Y633250D02*
D03*
Y608260D02*
D03*
X447250Y614500D02*
D03*
Y602000D02*
D03*
Y589500D02*
D03*
X454125Y620750D02*
D03*
Y608250D02*
D03*
X461000Y614500D02*
D03*
Y602000D02*
D03*
X454125Y595750D02*
D03*
X461000Y589500D02*
D03*
X467875Y620760D02*
D03*
Y608260D02*
D03*
X474750Y614510D02*
D03*
Y602010D02*
D03*
X467875Y595760D02*
D03*
X474750Y639500D02*
D03*
Y652000D02*
D03*
Y627000D02*
D03*
Y664500D02*
D03*
X467875Y633250D02*
D03*
X461000Y627000D02*
D03*
X467875Y645750D02*
D03*
X461000Y639500D02*
D03*
Y652000D02*
D03*
X467875Y658250D02*
D03*
X461000Y664500D02*
D03*
X454125Y633240D02*
D03*
X447250Y626990D02*
D03*
X454125Y645740D02*
D03*
X447250Y639490D02*
D03*
Y651990D02*
D03*
X454125Y658240D02*
D03*
X447250Y664490D02*
D03*
X375500Y99250D02*
D03*
X531000Y63250D02*
D03*
X538250Y75000D02*
D03*
X511750D02*
D03*
X493250Y78250D02*
D03*
X356250Y87250D02*
D03*
X363500Y99250D02*
D03*
X382750Y87250D02*
D03*
X134000Y916500D02*
D03*
X82000Y1136000D02*
D03*
X295500Y230750D02*
D03*
X156000Y673250D02*
D03*
X133000Y515500D02*
D03*
X138500Y1229750D02*
D03*
X27750Y455750D02*
D03*
X200000Y344800D02*
D03*
Y380300D02*
D03*
Y304750D02*
D03*
X37750Y821250D02*
D03*
X109500Y343750D02*
D03*
X348000Y369250D02*
D03*
Y362000D02*
D03*
Y347500D02*
D03*
Y354750D02*
D03*
X572500Y947000D02*
D03*
X543000Y740500D02*
D03*
X332250Y930250D02*
D03*
X331470Y1069638D02*
D03*
X332250Y937500D02*
D03*
X508250Y108750D02*
D03*
X462000Y149000D02*
D03*
X518750Y63250D02*
D03*
X334250Y106250D02*
D03*
X118250Y214500D02*
D03*
X267500Y748250D02*
D03*
X285250Y102250D02*
D03*
X309250Y156250D02*
D03*
X140250Y1025125D02*
D03*
X336500Y1214000D02*
D03*
X225500Y1219000D02*
D03*
X263850Y909000D02*
D03*
X90500Y104250D02*
D03*
X78250Y94500D02*
D03*
X267500Y712750D02*
D03*
X232500Y533250D02*
D03*
X302250Y527750D02*
D03*
X310000Y533250D02*
D03*
X317750Y527750D02*
D03*
X294500Y533250D02*
D03*
X286750Y527750D02*
D03*
X279000Y533250D02*
D03*
X271250Y527750D02*
D03*
X263500Y533250D02*
D03*
X255750Y527750D02*
D03*
X248000Y533250D02*
D03*
X240250Y527750D02*
D03*
X267500Y677250D02*
D03*
X174000Y28750D02*
D03*
M02*
