G04*
G04 #@! TF.GenerationSoftware,Altium Limited,Altium Designer,21.8.1 (53)*
G04*
G04 Layer_Color=16711935*
%FSLAX44Y44*%
%MOMM*%
G71*
G04*
G04 #@! TF.SameCoordinates,C657CB42-8F9E-4DD2-80ED-FFB10F84DBA6*
G04*
G04*
G04 #@! TF.FilePolarity,Positive*
G04*
G01*
G75*
%ADD14C,0.1000*%
D14*
X11492Y213068D02*
G03*
X20064Y234063I-21428J20996D01*
G01*
X63Y92461D02*
G03*
X106635Y63I108586J17584D01*
G01*
X630064D02*
G03*
X660063Y30064I0J30000D01*
G01*
X660063Y100063D02*
G03*
X630064Y130063I-30000J0D01*
G01*
X595214Y160063D02*
G03*
X625214Y130063I30000J0D01*
G01*
X595214Y475042D02*
G03*
X578547Y494762I-20000J0D01*
G01*
X545214Y506761D02*
G03*
X578547Y494762I50000J86603D01*
G01*
X535214Y524081D02*
G03*
X545214Y506761I20000J0D01*
G01*
Y652966D02*
G03*
X535214Y635645I10000J-17320D01*
G01*
X578547Y664965D02*
G03*
X545214Y652966I16667J-98601D01*
G01*
X578547Y664965D02*
G03*
X595214Y684685I-3333J19720D01*
G01*
X625214Y1130063D02*
G03*
X595214Y1100063I0J-30000D01*
G01*
X630064Y1130063D02*
G03*
X660063Y1160063I0J30000D01*
G01*
X660063Y1230063D02*
G03*
X630064Y1260063I-30000J0D01*
G01*
X106635D02*
G03*
X63Y1167666I2014J-109981D01*
G01*
Y1075053D02*
G03*
X11492Y1047059I40000J0D01*
G01*
X20064Y1026064D02*
G03*
X11492Y1047059I-30000J0D01*
G01*
Y213068D02*
G03*
X63Y185074I28571J-27994D01*
G01*
X20064Y234063D02*
Y1026064D01*
X106635Y63D02*
X630064D01*
X660063Y30064D02*
X660063Y100063D01*
X625214Y130063D02*
X630064D01*
X595214Y160063D02*
Y475042D01*
X535214Y524081D02*
Y635645D01*
X595214Y684685D02*
Y1100063D01*
X625214Y1130063D02*
X630064D01*
X660063Y1160063D02*
X660063Y1230063D01*
X106635Y1260063D02*
X630064D01*
X63Y1075053D02*
Y1167666D01*
Y92461D02*
Y185074D01*
M02*
