M48
;Layer_Color=9474304
;FILE_FORMAT=4:4
METRIC,LZ
;TYPE=PLATED
T1F00S00C0.3000
T3F00S00C0.7620
T4F00S00C0.9500
T5F00S00C1.0000
T6F00S00C1.2000
T7F00S00C1.5000
T8F00S00C1.6500
T9F00S00C1.7500
T10F00S00C3.2000
;TYPE=NON_PLATED
T11F00S00C0.6500
%
T01
X0005Y00052
X0009575Y0005875
X00115Y0006725
X000905Y0010425
X000895Y001165
X0007825Y000945
X00047Y0011
X000705Y00193
X000715Y0020225
X0010175Y001885
Y0018025
X0011125Y00189
X00111437Y00198161
X00119976Y00199275
X0011825Y002145
X001255Y002215
X00125019Y00246519
X00119Y0024125
X001095Y00243
X0012475Y0028375
X0008275Y0028875
Y002787
X00062Y0028025
Y0029275
Y0030525
X00055125Y00299
Y002865
Y00274
X00062Y0026775
X0004825
Y0028025
Y0029275
Y0030525
X00041375Y0029899
Y0028649
Y0027399
X000345Y0026774
Y0028024
Y0029274
Y0030524
X0003175Y0034725
X0005225Y0034625
X000835Y003725
X000955Y00385
X001285Y00363508
X001095Y0034375
Y003294
X00172Y0033425
X002Y003448
Y003803
Y0030475
Y0029275
X00230093Y0027565
X002495Y0024575
X0020525Y0023275
X00210265Y002265
X0021499Y0021799
X001845Y0021675
X0019025Y0023
X00201788Y00156038
X00186Y0014225
X002015Y001185
X00204Y00109482
X002145Y0010275
X0021475Y001215
X0024875Y001235
X0025725Y0012325
X00251926Y00108702
X0024855Y0010145
X0023025Y0008975
X0024525Y0006387
X0025275Y00057
X00261Y0005875
X002615Y0006725
X0027Y00067
X00285
X003
X00306375Y00052
Y000395
X0031325Y0004575
X00320125Y000395
Y00052
X00277Y0003075
X0028525Y0010225
X00292Y001145
X0033425Y0010625
X003635Y0009925
X003755
X0038275Y0008725
X00386765Y00108015
X0035625Y0008725
X0036125Y00175
X00361462Y00212212
X0036125Y0025
X0035125Y002555
Y0026375
Y00272
Y002405
X003155Y00269
X002955Y0023075
X0029675Y001985
X0030925Y0015625
X0027125Y0016725
X0025475
X0024Y001525
X001405Y0015125
X00143309Y00143759
X0014725Y0016175
X00135516Y00168
X00127524Y00168356
X00159337Y00110837
X001695Y00101
X0018425Y00087
X00186808Y00074266
X00194751Y00069482
X002015Y0006375
X0018175Y00033
X00174Y0002875
X0016625Y0002475
X0015975Y0001175
X00145
X0013
X00018Y00204
X00356625Y0031575
Y0032825
X003635Y003345
Y00322
Y003095
X00370375Y0031575
Y0032825
X0037725Y00322
Y003345
X00384125Y0032825
Y0031575
X0037725Y003095
X00348Y003475
Y0035475
Y00362
Y0036925
X00359662Y00394212
X00417Y00393
X00447Y00396
X00466
X00485
X00515Y00393
X0052125Y0039675
X0054325Y0037525
X0049Y00368
X00442
Y003335
X0047775Y00321
X0050375Y0028
X00493Y00252
X00474
X00455
X004645Y002415
X004835
X00493Y00231
X00474
X00455
X004645Y002205
X004835Y002205
X00474Y0021
X00455
X0045Y00182
X00462Y00149
X0045875Y0008725
X00466Y0008175
X004515
X0044475Y0008725
X0043725Y0008175
X0049325Y0007825
X0051175Y00075
X0051875Y0006325
X00531
X0053825Y00075
X0050825Y0010875
X0050625Y001815
X00493Y0021
X00523Y00207
X0052325Y00215
X00523Y00223
Y00231
Y00239
Y00247
Y00255
X0052925Y0025125
Y00243
Y00219
Y0021075
X0054325Y001935
X0058125Y00219
X005775Y00294
X00425Y00268
Y00255
Y00247
Y00231
Y00215
Y00207
X00417Y00401
Y00417
Y00433
Y00441
Y00454
X00447Y00438
X00466
X00485
X004755Y004275
X004565
X00466Y00417
X00447
X004565Y004065
X004755Y004065
X00485Y00417
X00515
Y00409
X0051525Y00401
X0052125Y00405
Y00429
Y0043725
X00515Y00441
Y00433
Y00425
X0049575Y00466
X005815Y004115
X004885Y0061451
Y00627
Y006395
Y00652
Y006645
X00481625Y0065825
Y0064575
Y0063325
Y0062075
Y0060826
X0047475Y0061451
Y00627
Y006395
Y00652
Y006645
X00467875Y0065825
Y0064575
Y0063325
Y0062076
Y0060826
Y0059576
X00461Y00602
Y006145
Y00627
Y006395
Y00652
Y006645
X00454125Y0065824
Y0064574
Y0063324
Y0062075
Y0060825
Y0059575
X0044725Y00602
Y006145
Y0062699
Y0063949
Y0065199
Y0066449
Y005895
X00461
X0047475Y0060201
X00474Y0074125
Y00789
X00426
Y007545
X00543Y007405
X0034225Y00776
X0031025Y0077975
X002675Y0076325
Y0074825
Y0072775
Y0071275
Y0069225
Y0067725
X0027125Y00634
X002635Y006285
X0025575Y00634
X00248Y006285
X0024025Y00634
X002325Y006285
X0023225Y0065
X002245Y006555
Y006445
X0021675Y0065
X00209Y006445
Y006555
X0020125Y0065
X001935Y006555
Y006445
X0018575Y0065
X00182271Y0066525
X00156Y0067325
X0013725Y00681
Y00698
X001095Y00712
X00046375Y0070825
Y0069575
Y0068325
Y0067075
X000395Y00677
Y006895
Y00702
X00032625Y0070825
Y0069575
Y0068325
Y0067075
X00032375Y0058175
Y0056925
Y0055675
Y0054425
X0003925Y005505
Y00563
Y005755
X00046125Y0058175
Y0056925
Y0055675
Y0054425
X0004775Y0046725
X0002775Y0045575
X0005175Y004125
Y004045
X0005975
Y004125
X00135322Y00414506
X00149643Y00411143
X00150911Y00402336
X00117084Y00458368
X00122423Y00464326
X0010775Y00452051
X000895Y0047025
X00133Y005155
X001465Y0051375
X00156438Y00513812
X001565Y0052375
Y0053375
X001465
Y0054375
Y0052375
X001665
Y0051375
X001765
Y0050375
X001865
X001665
X001565
X0011575Y0053425
X00112Y00567
Y00578
X002325Y0053325
X0024025Y0052775
X00248Y0053325
X0025575Y0052775
X002635Y0053325
X0027125Y0052775
X00279Y0053325
X0028675Y0052775
X002945Y0053325
X0030225Y0052775
X0031Y0053325
X0031775Y0052775
X0030975Y00507
X00299Y0050425
Y0051525
X0029125Y0050975
X002835Y0051525
Y0050425
X0027575Y0050975
X00268Y0050425
Y0051525
X0026025Y0050975
X002525Y0051525
Y0050425
X0024475Y0050975
X00237Y0050425
Y0051525
X0022925Y0050975
X00279Y006285
X0028675Y00634
X002945Y006285
X0030225Y00634
X0031Y006285
X0031775Y00634
X0020225Y0068675
X0020225Y0075775
X0035945Y00469
X0034925Y00457
Y00449
Y00441
X0035945Y00432
X0034875Y004075
X00342462Y00813212
X0033225Y008275
X00332Y0085225
X0034225Y00851
X00332Y0086575
X003325Y00877
X0034225Y00888
X00348125Y0091325
Y0092575
Y0093825
Y0095075
X00355Y009445
Y00932
Y009195
X00361875Y0092575
Y0093825
Y0095075
X0033225Y0094475
Y009375
Y0093025
Y00923
Y0091575
X00361875Y0091325
X0026385Y00909
Y0089275
X0020725Y0092
X0020825Y00932125
X00208Y00940125
Y009525
X0021725Y009805
X0022675Y0098475
X0021025Y0099175
X00246071Y00991179
X0027625Y01035
X00276Y0105625
X0029625Y0105975
X00307663Y01062587
X0033147Y01069638
X00331Y0105475
X003315Y01046
X0034075Y0105125
X00341Y010315
X003325Y0101575
X0034225Y01088
X00333Y011
Y01108
Y01116
X0035875Y011105
X003875Y0118825
X00287265Y01183276
X0018575Y0117175
X0017725Y0117725
X0014225Y0118025
X001335Y0113475
X0012825Y0112525
X000845Y01127
X00082Y01136
X00073Y0113875
X0007775Y0111
X0007675Y0106175
X0005825Y0106475
X0004125
X00046375Y0099226
Y0097976
Y0096726
Y0095476
X000395Y00961
Y009735
Y00986
X00032625Y0099225
Y0097975
Y0096725
Y0095475
X0005325Y0096101
Y0097351
Y0098601
X00060125Y0099226
Y0097976
Y0096726
Y0095476
X00083Y0096655
Y0097675
X0012875Y00971375
X00172Y00974
Y00959
Y0094375
Y00929
X0017225Y00914
X00134Y009165
X0011025Y0093075
X00112Y00877
X0010025
X0009225
X0008425
X0005975Y008605
X0005175
Y008525
X0005975
X0003775Y0082125
Y0080625
X0012075Y0081525
X001345Y0084875
X001425
X00150691Y00848559
X0017025Y00873
X00131Y008745
X0017075Y00989
X0016625Y0100675
X0014025Y01025125
X00133Y0103225
X00126658Y01038106
X0012075Y010435
X0011025Y0101725
X001715Y0105625
X001785Y010505
X00196981Y01062269
X00203Y01057
X0020575Y0104375
X0019925Y010375
X002065Y01071327
X002145Y010715
X0021375Y01095
X002005Y0108325
X0019425Y0108875
X00187924Y0109475
X0017675Y01117
X0016725
X001545Y010955
X00198Y011525
X00258Y0109375
X002695Y01087
X002635Y01081
X0007375Y01177
X000645Y0117125
X0005525Y01177
X003975Y0118825
X004075Y0118825
X004Y01072
Y0106
Y01052
Y01036
Y0102
Y01012
X0043Y01015
X00449
X00468
X004585Y010255
X004395Y010255
X00449Y01036
X0043
X004395Y010465
X004585
X00468Y01057
X00449
X0043
X00468Y01036
X00498Y01036
Y01028
X0049825Y0102
X00498Y01012
X0050425Y0101575
Y01024
Y01048
Y0105625
X00498Y0106
Y01052
Y01044
X0054125Y0104125
X00582Y0106675
X0047975Y01085
X00473Y00987
X00425
X00425Y009525
X0045325Y0094025
X0047975Y00887
X00469Y00859
X0045
X00431
X004405Y008485
X004595
X00469Y00838
X0045
X00431
X004405Y008275
X004595Y008275
X00469Y00817
X0045
X00431
X00401Y00814
Y00822
Y00838
Y00854
Y00862
Y00874
X00499Y00862
Y00854
Y00846
Y00838
Y0083
X0049925Y00822
X00499Y00814
X0050525Y0081775
Y00826
Y0085
Y0085825
X00582Y0086475
X005725Y00947
X0054125Y0080725
X0062575Y01242
X0045325Y01244
X004075Y0119825
X004025Y0119335
X003975Y0119825
X003925Y0119325
X003875Y0119825
X003365Y01214
X00316Y011995
X002925Y0119075
X0026975Y0120075
X002255Y01219
X0022275Y01231625
X0023525
X002415Y012385
X00229
X002165
X00204
X0019775Y01231625
X0021025
Y01245375
X0019775
X0022275
X0023525
X0024775
X001385Y0122975
X00121Y0124425
X0011775Y01192
X0008025Y01205
X00049Y0120475
X0006975Y01232
T03
X0025525Y00295
X0027525
X00183Y00553
Y00573
X00295358Y01024142
X003095Y0101
X00464Y01168
X00484
T04
X0023775Y004211
X0026315
Y004465
Y004719
X0023775
Y004465
X0024775Y0083525
X0027315
X0029855
Y0086065
X0027315
X0024775
T05
X00504213Y00524864
Y00634864
T06
X00397Y00042
X004224
X004478
X004732
X004986
X004988Y001268
X004734
X00448
X004226
X003972
X00562214Y00142764
Y00168164
Y00193563
Y00218964
Y00244363
Y00269764
Y00335163
Y00360564
Y00385964
Y00411363
Y00436763
Y00462164
Y00787963
X0018Y00617
X001546
X001292
X00562214Y00813363
Y00838764
Y00864164
Y00889564
Y00914964
Y00990363
Y01015763
Y01041163
Y01066563
Y01091964
Y01117364
X005484Y01225
X00523
X004976
T07
X00215Y005454
Y00581
Y006166
X003369Y0062935
Y0053285
X00316Y01145
X004379Y0115775
Y0119335
Y0122895
X00316Y012415
T08
X0041425Y0069425
X0046425
T09
X00404213Y00554864
Y00604864
T10
X00040363Y00150063
X00595214Y00064914
X00180365Y00450061
X00180364Y00810063
X00040363Y01110063
X00595214Y01195213
T11
X0008505Y002573
Y003151
Y0094515
Y0100295
M30
