G04*
G04 #@! TF.GenerationSoftware,Altium Limited,Altium Designer,21.8.1 (53)*
G04*
G04 Layer_Color=16711935*
%FSLAX44Y44*%
%MOMM*%
G71*
G04*
G04 #@! TF.SameCoordinates,C657CB42-8F9E-4DD2-80ED-FFB10F84DBA6*
G04*
G04*
G04 #@! TF.FilePolarity,Negative*
G04*
G01*
G75*
G04:AMPARAMS|DCode=39|XSize=0.45mm|YSize=0.75mm|CornerRadius=0.125mm|HoleSize=0mm|Usage=FLASHONLY|Rotation=90.000|XOffset=0mm|YOffset=0mm|HoleType=Round|Shape=RoundedRectangle|*
%AMROUNDEDRECTD39*
21,1,0.4500,0.5000,0,0,90.0*
21,1,0.2000,0.7500,0,0,90.0*
1,1,0.2500,0.2500,0.1000*
1,1,0.2500,0.2500,-0.1000*
1,1,0.2500,-0.2500,-0.1000*
1,1,0.2500,-0.2500,0.1000*
%
%ADD39ROUNDEDRECTD39*%
%ADD40R,0.7500X1.0500*%
G04:AMPARAMS|DCode=41|XSize=1.55mm|YSize=2.65mm|CornerRadius=0.4mm|HoleSize=0mm|Usage=FLASHONLY|Rotation=0.000|XOffset=0mm|YOffset=0mm|HoleType=Round|Shape=RoundedRectangle|*
%AMROUNDEDRECTD41*
21,1,1.5500,1.8500,0,0,0.0*
21,1,0.7500,2.6500,0,0,0.0*
1,1,0.8000,0.3750,-0.9250*
1,1,0.8000,-0.3750,-0.9250*
1,1,0.8000,-0.3750,0.9250*
1,1,0.8000,0.3750,0.9250*
%
%ADD41ROUNDEDRECTD41*%
G04:AMPARAMS|DCode=42|XSize=0.75mm|YSize=1.05mm|CornerRadius=0.2mm|HoleSize=0mm|Usage=FLASHONLY|Rotation=0.000|XOffset=0mm|YOffset=0mm|HoleType=Round|Shape=RoundedRectangle|*
%AMROUNDEDRECTD42*
21,1,0.7500,0.6500,0,0,0.0*
21,1,0.3500,1.0500,0,0,0.0*
1,1,0.4000,0.1750,-0.3250*
1,1,0.4000,-0.1750,-0.3250*
1,1,0.4000,-0.1750,0.3250*
1,1,0.4000,0.1750,0.3250*
%
%ADD42ROUNDEDRECTD42*%
G04:AMPARAMS|DCode=43|XSize=0.75mm|YSize=1.05mm|CornerRadius=0.2mm|HoleSize=0mm|Usage=FLASHONLY|Rotation=270.000|XOffset=0mm|YOffset=0mm|HoleType=Round|Shape=RoundedRectangle|*
%AMROUNDEDRECTD43*
21,1,0.7500,0.6500,0,0,270.0*
21,1,0.3500,1.0500,0,0,270.0*
1,1,0.4000,-0.3250,-0.1750*
1,1,0.4000,-0.3250,0.1750*
1,1,0.4000,0.3250,0.1750*
1,1,0.4000,0.3250,-0.1750*
%
%ADD43ROUNDEDRECTD43*%
%ADD48R,0.9500X1.2500*%
%ADD49R,1.2500X0.9500*%
%ADD50R,1.0500X0.7500*%
G04:AMPARAMS|DCode=52|XSize=0.45mm|YSize=0.75mm|CornerRadius=0.125mm|HoleSize=0mm|Usage=FLASHONLY|Rotation=180.000|XOffset=0mm|YOffset=0mm|HoleType=Round|Shape=RoundedRectangle|*
%AMROUNDEDRECTD52*
21,1,0.4500,0.5000,0,0,180.0*
21,1,0.2000,0.7500,0,0,180.0*
1,1,0.2500,-0.1000,0.2500*
1,1,0.2500,0.1000,0.2500*
1,1,0.2500,0.1000,-0.2500*
1,1,0.2500,-0.1000,-0.2500*
%
%ADD52ROUNDEDRECTD52*%
%ADD53C,1.7500*%
%ADD54C,1.8500*%
%ADD55C,3.0500*%
%ADD56O,1.8500X1.0500*%
%ADD57C,0.7000*%
%ADD58C,1.5740*%
%ADD59C,2.1000*%
%ADD60C,6.0500*%
G04:AMPARAMS|DCode=97|XSize=0.55mm|YSize=0.65mm|CornerRadius=0.15mm|HoleSize=0mm|Usage=FLASHONLY|Rotation=135.000|XOffset=0mm|YOffset=0mm|HoleType=Round|Shape=RoundedRectangle|*
%AMROUNDEDRECTD97*
21,1,0.5500,0.3500,0,0,135.0*
21,1,0.2500,0.6500,0,0,135.0*
1,1,0.3000,0.0354,0.2121*
1,1,0.3000,0.2121,0.0354*
1,1,0.3000,-0.0354,-0.2121*
1,1,0.3000,-0.2121,-0.0354*
%
%ADD97ROUNDEDRECTD97*%
G04:AMPARAMS|DCode=98|XSize=3.35mm|YSize=2.2mm|CornerRadius=0mm|HoleSize=0mm|Usage=FLASHONLY|Rotation=135.000|XOffset=0mm|YOffset=0mm|HoleType=Round|Shape=Rectangle|*
%AMROTATEDRECTD98*
4,1,4,1.9622,-0.4066,0.4066,-1.9622,-1.9622,0.4066,-0.4066,1.9622,1.9622,-0.4066,0.0*
%
%ADD98ROTATEDRECTD98*%

G04:AMPARAMS|DCode=99|XSize=1.05mm|YSize=2.2mm|CornerRadius=0mm|HoleSize=0mm|Usage=FLASHONLY|Rotation=135.000|XOffset=0mm|YOffset=0mm|HoleType=Round|Shape=Rectangle|*
%AMROTATEDRECTD99*
4,1,4,1.1490,0.4066,-0.4066,-1.1490,-1.1490,-0.4066,0.4066,1.1490,1.1490,0.4066,0.0*
%
%ADD99ROTATEDRECTD99*%

%ADD100R,1.8500X2.8500*%
G04:AMPARAMS|DCode=101|XSize=0.35mm|YSize=1.55mm|CornerRadius=0mm|HoleSize=0mm|Usage=FLASHONLY|Rotation=315.000|XOffset=0mm|YOffset=0mm|HoleType=Round|Shape=Round|*
%AMOVALD101*
21,1,1.2000,0.3500,0.0000,0.0000,45.0*
1,1,0.3500,-0.4243,-0.4243*
1,1,0.3500,0.4243,0.4243*
%
%ADD101OVALD101*%

G04:AMPARAMS|DCode=102|XSize=0.35mm|YSize=1.55mm|CornerRadius=0mm|HoleSize=0mm|Usage=FLASHONLY|Rotation=45.000|XOffset=0mm|YOffset=0mm|HoleType=Round|Shape=Round|*
%AMOVALD102*
21,1,1.2000,0.3500,0.0000,0.0000,135.0*
1,1,0.3500,0.4243,-0.4243*
1,1,0.3500,-0.4243,0.4243*
%
%ADD102OVALD102*%

G04:AMPARAMS|DCode=103|XSize=1.55mm|YSize=2.65mm|CornerRadius=0.4mm|HoleSize=0mm|Usage=FLASHONLY|Rotation=270.000|XOffset=0mm|YOffset=0mm|HoleType=Round|Shape=RoundedRectangle|*
%AMROUNDEDRECTD103*
21,1,1.5500,1.8500,0,0,270.0*
21,1,0.7500,2.6500,0,0,270.0*
1,1,0.8000,-0.9250,-0.3750*
1,1,0.8000,-0.9250,0.3750*
1,1,0.8000,0.9250,0.3750*
1,1,0.8000,0.9250,-0.3750*
%
%ADD103ROUNDEDRECTD103*%
G04:AMPARAMS|DCode=104|XSize=0.75mm|YSize=1.05mm|CornerRadius=0.2mm|HoleSize=0mm|Usage=FLASHONLY|Rotation=315.000|XOffset=0mm|YOffset=0mm|HoleType=Round|Shape=RoundedRectangle|*
%AMROUNDEDRECTD104*
21,1,0.7500,0.6500,0,0,315.0*
21,1,0.3500,1.0500,0,0,315.0*
1,1,0.4000,-0.1061,-0.3536*
1,1,0.4000,-0.3536,-0.1061*
1,1,0.4000,0.1061,0.3536*
1,1,0.4000,0.3536,0.1061*
%
%ADD104ROUNDEDRECTD104*%
G04:AMPARAMS|DCode=105|XSize=0.75mm|YSize=1.05mm|CornerRadius=0.2mm|HoleSize=0mm|Usage=FLASHONLY|Rotation=225.000|XOffset=0mm|YOffset=0mm|HoleType=Round|Shape=RoundedRectangle|*
%AMROUNDEDRECTD105*
21,1,0.7500,0.6500,0,0,225.0*
21,1,0.3500,1.0500,0,0,225.0*
1,1,0.4000,-0.3536,0.1061*
1,1,0.4000,-0.1061,0.3536*
1,1,0.4000,0.3536,-0.1061*
1,1,0.4000,0.1061,-0.3536*
%
%ADD105ROUNDEDRECTD105*%
G04:AMPARAMS|DCode=106|XSize=0.55mm|YSize=0.65mm|CornerRadius=0.15mm|HoleSize=0mm|Usage=FLASHONLY|Rotation=45.000|XOffset=0mm|YOffset=0mm|HoleType=Round|Shape=RoundedRectangle|*
%AMROUNDEDRECTD106*
21,1,0.5500,0.3500,0,0,45.0*
21,1,0.2500,0.6500,0,0,45.0*
1,1,0.3000,0.2121,-0.0354*
1,1,0.3000,0.0354,-0.2121*
1,1,0.3000,-0.2121,0.0354*
1,1,0.3000,-0.0354,0.2121*
%
%ADD106ROUNDEDRECTD106*%
G04:AMPARAMS|DCode=107|XSize=1.35mm|YSize=1.15mm|CornerRadius=0mm|HoleSize=0mm|Usage=FLASHONLY|Rotation=225.000|XOffset=0mm|YOffset=0mm|HoleType=Round|Shape=Rectangle|*
%AMROTATEDRECTD107*
4,1,4,0.0707,0.8839,0.8839,0.0707,-0.0707,-0.8839,-0.8839,-0.0707,0.0707,0.8839,0.0*
%
%ADD107ROTATEDRECTD107*%

G04:AMPARAMS|DCode=108|XSize=1.35mm|YSize=1.15mm|CornerRadius=0mm|HoleSize=0mm|Usage=FLASHONLY|Rotation=135.000|XOffset=0mm|YOffset=0mm|HoleType=Round|Shape=Rectangle|*
%AMROTATEDRECTD108*
4,1,4,0.8839,-0.0707,0.0707,-0.8839,-0.8839,0.0707,-0.0707,0.8839,0.8839,-0.0707,0.0*
%
%ADD108ROTATEDRECTD108*%

%ADD109R,1.0000X0.7000*%
G04:AMPARAMS|DCode=110|XSize=0.95mm|YSize=1.25mm|CornerRadius=0mm|HoleSize=0mm|Usage=FLASHONLY|Rotation=225.000|XOffset=0mm|YOffset=0mm|HoleType=Round|Shape=Rectangle|*
%AMROTATEDRECTD110*
4,1,4,-0.1061,0.7778,0.7778,-0.1061,0.1061,-0.7778,-0.7778,0.1061,-0.1061,0.7778,0.0*
%
%ADD110ROTATEDRECTD110*%

G04:AMPARAMS|DCode=111|XSize=0.45mm|YSize=0.75mm|CornerRadius=0.125mm|HoleSize=0mm|Usage=FLASHONLY|Rotation=135.000|XOffset=0mm|YOffset=0mm|HoleType=Round|Shape=RoundedRectangle|*
%AMROUNDEDRECTD111*
21,1,0.4500,0.5000,0,0,135.0*
21,1,0.2000,0.7500,0,0,135.0*
1,1,0.2500,0.1061,0.2475*
1,1,0.2500,0.2475,0.1061*
1,1,0.2500,-0.1061,-0.2475*
1,1,0.2500,-0.2475,-0.1061*
%
%ADD111ROUNDEDRECTD111*%
G04:AMPARAMS|DCode=112|XSize=0.75mm|YSize=1.05mm|CornerRadius=0mm|HoleSize=0mm|Usage=FLASHONLY|Rotation=315.000|XOffset=0mm|YOffset=0mm|HoleType=Round|Shape=Rectangle|*
%AMROTATEDRECTD112*
4,1,4,-0.6364,-0.1061,0.1061,0.6364,0.6364,0.1061,-0.1061,-0.6364,-0.6364,-0.1061,0.0*
%
%ADD112ROTATEDRECTD112*%

G04:AMPARAMS|DCode=113|XSize=0.75mm|YSize=1.05mm|CornerRadius=0mm|HoleSize=0mm|Usage=FLASHONLY|Rotation=225.000|XOffset=0mm|YOffset=0mm|HoleType=Round|Shape=Rectangle|*
%AMROTATEDRECTD113*
4,1,4,-0.1061,0.6364,0.6364,-0.1061,0.1061,-0.6364,-0.6364,0.1061,-0.1061,0.6364,0.0*
%
%ADD113ROTATEDRECTD113*%

%ADD114R,1.0500X2.2000*%
%ADD115R,3.3500X2.2000*%
%ADD116R,0.8500X0.3500*%
%ADD117R,0.3500X0.8500*%
%ADD118R,1.5500X1.5500*%
%ADD119R,1.5500X1.5500*%
D39*
X199000Y924125D02*
D03*
Y932125D02*
D03*
Y940125D02*
D03*
Y948125D02*
D03*
X184000Y924125D02*
D03*
Y932125D02*
D03*
Y940125D02*
D03*
Y948125D02*
D03*
D40*
X420750Y149000D02*
D03*
X435750D02*
D03*
X478250Y65500D02*
D03*
X493250D02*
D03*
X405000Y207000D02*
D03*
X390000D02*
D03*
X373500Y813000D02*
D03*
X358500D02*
D03*
X483000Y149000D02*
D03*
X498000D02*
D03*
X389750Y240000D02*
D03*
X404750D02*
D03*
X358500Y845000D02*
D03*
X373500D02*
D03*
X404750Y256000D02*
D03*
X389750D02*
D03*
X404750Y272000D02*
D03*
X389750D02*
D03*
X373500Y861000D02*
D03*
X358500D02*
D03*
X385500Y877000D02*
D03*
X370500D02*
D03*
X390000Y223500D02*
D03*
X405000D02*
D03*
X358500Y829000D02*
D03*
X373500D02*
D03*
X362250Y272000D02*
D03*
X377250D02*
D03*
X342000Y877000D02*
D03*
X357000D02*
D03*
X360000Y457000D02*
D03*
X375000D02*
D03*
X376000Y409000D02*
D03*
X391000D02*
D03*
X371000Y1028000D02*
D03*
X386000D02*
D03*
X376000Y441000D02*
D03*
X391000D02*
D03*
X388000Y457000D02*
D03*
X403000D02*
D03*
X371000Y1060000D02*
D03*
X386000D02*
D03*
X371000Y1076000D02*
D03*
X386000D02*
D03*
X376000Y393000D02*
D03*
X391000D02*
D03*
X386000Y1012000D02*
D03*
X371000D02*
D03*
X386000Y1044000D02*
D03*
X371000D02*
D03*
X391000Y425000D02*
D03*
X376000D02*
D03*
X400250Y1106000D02*
D03*
X385250D02*
D03*
D41*
X390000Y1157750D02*
D03*
X414000D02*
D03*
D42*
X257343Y272650D02*
D03*
X272343D02*
D03*
X95750Y815250D02*
D03*
X110750D02*
D03*
X95750Y830750D02*
D03*
X110750D02*
D03*
X95750Y846250D02*
D03*
X110750D02*
D03*
X36250Y455750D02*
D03*
X51250D02*
D03*
X36250Y440250D02*
D03*
X51250D02*
D03*
X64000Y51000D02*
D03*
X79000D02*
D03*
D43*
X230093Y300650D02*
D03*
Y285650D02*
D03*
X65750Y821250D02*
D03*
Y806250D02*
D03*
X50250Y821250D02*
D03*
Y806250D02*
D03*
X76750Y1052000D02*
D03*
Y1037000D02*
D03*
X47250Y371500D02*
D03*
Y356500D02*
D03*
X31750Y371500D02*
D03*
Y356500D02*
D03*
X63250Y361500D02*
D03*
Y346500D02*
D03*
D48*
X545750Y168164D02*
D03*
X513750D02*
D03*
X562214Y764250D02*
D03*
X530214D02*
D03*
X579750Y308000D02*
D03*
X547750D02*
D03*
X562214Y962250D02*
D03*
X530214D02*
D03*
D49*
X50000Y64000D02*
D03*
Y96000D02*
D03*
D50*
X543250Y218964D02*
D03*
Y203964D02*
D03*
X541250Y1051563D02*
D03*
Y1066563D02*
D03*
X543250Y385750D02*
D03*
Y400750D02*
D03*
X541250Y833000D02*
D03*
Y818000D02*
D03*
X316000Y1222500D02*
D03*
Y1207500D02*
D03*
X581500Y193563D02*
D03*
Y208563D02*
D03*
X582000Y839000D02*
D03*
Y854000D02*
D03*
X581500Y401000D02*
D03*
Y386000D02*
D03*
X582000Y1056000D02*
D03*
Y1041000D02*
D03*
X115750Y558750D02*
D03*
Y543750D02*
D03*
X256750Y763250D02*
D03*
Y748250D02*
D03*
Y727750D02*
D03*
Y712750D02*
D03*
X190250Y395300D02*
D03*
Y380300D02*
D03*
X256750Y692250D02*
D03*
Y677250D02*
D03*
X190250Y359750D02*
D03*
Y344750D02*
D03*
X190000Y319550D02*
D03*
Y304550D02*
D03*
X543250Y231000D02*
D03*
Y246000D02*
D03*
X537750Y874564D02*
D03*
Y889564D02*
D03*
X474000Y764250D02*
D03*
Y779250D02*
D03*
X450000Y164000D02*
D03*
Y149000D02*
D03*
X426000Y779250D02*
D03*
Y764250D02*
D03*
X375250Y240500D02*
D03*
Y255500D02*
D03*
X345000Y827500D02*
D03*
Y842500D02*
D03*
X371000Y1106000D02*
D03*
Y1091000D02*
D03*
X362250Y407500D02*
D03*
Y422500D02*
D03*
X356000Y1046000D02*
D03*
Y1061000D02*
D03*
X442000Y343250D02*
D03*
Y358250D02*
D03*
X425000Y962250D02*
D03*
Y977250D02*
D03*
X473000Y977250D02*
D03*
Y962250D02*
D03*
X490000Y358250D02*
D03*
Y343250D02*
D03*
X543250Y432000D02*
D03*
Y417000D02*
D03*
X54250Y1052000D02*
D03*
Y1037000D02*
D03*
X68000Y94500D02*
D03*
Y79500D02*
D03*
D52*
X432000Y96000D02*
D03*
X440000D02*
D03*
X448000D02*
D03*
X456000D02*
D03*
X432000Y111000D02*
D03*
X440000D02*
D03*
X448000D02*
D03*
X456000D02*
D03*
X464000Y73000D02*
D03*
X456000D02*
D03*
X448000D02*
D03*
X440000D02*
D03*
X464000Y58000D02*
D03*
X456000D02*
D03*
X448000D02*
D03*
X440000D02*
D03*
X269000Y40000D02*
D03*
X277000D02*
D03*
X285000D02*
D03*
X293000D02*
D03*
X269000Y55000D02*
D03*
X277000D02*
D03*
X285000D02*
D03*
X293000D02*
D03*
D53*
X562214Y142764D02*
D03*
Y168164D02*
D03*
Y218964D02*
D03*
Y193563D02*
D03*
Y244363D02*
D03*
Y269764D02*
D03*
Y787963D02*
D03*
Y813363D02*
D03*
Y864164D02*
D03*
Y838764D02*
D03*
Y889564D02*
D03*
Y914964D02*
D03*
Y335163D02*
D03*
Y360564D02*
D03*
Y411363D02*
D03*
Y385964D02*
D03*
Y436763D02*
D03*
Y462164D02*
D03*
Y990363D02*
D03*
Y1015763D02*
D03*
Y1066563D02*
D03*
Y1041163D02*
D03*
Y1091964D02*
D03*
Y1117364D02*
D03*
X180000Y617000D02*
D03*
X154600D02*
D03*
X129200D02*
D03*
X497600Y1225000D02*
D03*
X523000D02*
D03*
X548400D02*
D03*
X397200Y126800D02*
D03*
X448000D02*
D03*
X422600D02*
D03*
X473400D02*
D03*
X498800D02*
D03*
X498600Y42000D02*
D03*
X447800D02*
D03*
X473200D02*
D03*
X422400D02*
D03*
X397000D02*
D03*
X298550Y860650D02*
D03*
Y835250D02*
D03*
X247750D02*
D03*
X273150Y860650D02*
D03*
Y835250D02*
D03*
X247750Y860650D02*
D03*
X237750Y471900D02*
D03*
X263150D02*
D03*
Y421100D02*
D03*
X237750Y446500D02*
D03*
X263150D02*
D03*
X237750Y421100D02*
D03*
D54*
X504213Y634864D02*
D03*
Y524864D02*
D03*
D55*
X404213Y554864D02*
D03*
Y604864D02*
D03*
X414250Y694250D02*
D03*
X464250D02*
D03*
D56*
X48250Y1017250D02*
D03*
X90050D02*
D03*
X48250Y930850D02*
D03*
X90050D02*
D03*
X48250Y329400D02*
D03*
X90050D02*
D03*
X48250Y243000D02*
D03*
X90050D02*
D03*
D57*
X85050Y1002950D02*
D03*
Y945150D02*
D03*
Y315100D02*
D03*
Y257300D02*
D03*
D58*
X275250Y295000D02*
D03*
X255250D02*
D03*
X183000Y573000D02*
D03*
Y553000D02*
D03*
X464000Y1168000D02*
D03*
X484000D02*
D03*
X295358Y1024142D02*
D03*
X309500Y1010000D02*
D03*
D59*
X336900Y532850D02*
D03*
X215000Y545400D02*
D03*
Y581000D02*
D03*
Y616600D02*
D03*
X336900Y629350D02*
D03*
X316000Y1241500D02*
D03*
X437900Y1228950D02*
D03*
Y1193350D02*
D03*
Y1157750D02*
D03*
X316000Y1145000D02*
D03*
D60*
X595214Y1195213D02*
D03*
Y64914D02*
D03*
X40363Y1110063D02*
D03*
X180364Y810063D02*
D03*
X180365Y450061D02*
D03*
X40363Y150063D02*
D03*
D97*
X241821Y1001429D02*
D03*
X234750Y1008500D02*
D03*
X234821Y994179D02*
D03*
X227750Y1001250D02*
D03*
X223821Y990929D02*
D03*
X216750Y998000D02*
D03*
X145000Y1030000D02*
D03*
X137929Y1037071D02*
D03*
X130750Y1179000D02*
D03*
X123679Y1186071D02*
D03*
X80000Y1154000D02*
D03*
X87071Y1146929D02*
D03*
X258000Y1186000D02*
D03*
X265071Y1178929D02*
D03*
X237036Y247107D02*
D03*
X244107Y240036D02*
D03*
X169679Y45071D02*
D03*
X176750Y38000D02*
D03*
D98*
X248384Y947634D02*
D03*
D99*
X306014Y972737D02*
D03*
X289750Y989000D02*
D03*
X273487Y1005264D02*
D03*
D100*
X369250Y518000D02*
D03*
X399250D02*
D03*
Y642000D02*
D03*
X369250D02*
D03*
D101*
X268943Y1150719D02*
D03*
X265407Y1154254D02*
D03*
X276014Y1143648D02*
D03*
X272478Y1147183D02*
D03*
X261872Y1157790D02*
D03*
X297227Y1122434D02*
D03*
X293692Y1125970D02*
D03*
X283085Y1136577D02*
D03*
X279550Y1140112D02*
D03*
X290156Y1129505D02*
D03*
X286621Y1133041D02*
D03*
X230052Y1189610D02*
D03*
X226516Y1193145D02*
D03*
X237123Y1182539D02*
D03*
X233588Y1186074D02*
D03*
X215910Y1203752D02*
D03*
X212374Y1207287D02*
D03*
X222981Y1196681D02*
D03*
X219445Y1200216D02*
D03*
X251265Y1168396D02*
D03*
X247730Y1171932D02*
D03*
X258336Y1161325D02*
D03*
X254801Y1164861D02*
D03*
X244194Y1175467D02*
D03*
X240659Y1179003D02*
D03*
X106308Y1094150D02*
D03*
X102773Y1097686D02*
D03*
X166412Y1034046D02*
D03*
X162877Y1037582D02*
D03*
X169948Y1030510D02*
D03*
X187626Y1012833D02*
D03*
X177019Y1023439D02*
D03*
X173484Y1026975D02*
D03*
X184090Y1016368D02*
D03*
X180555Y1019904D02*
D03*
X127522Y1072937D02*
D03*
X123986Y1076472D02*
D03*
X134593Y1065866D02*
D03*
X131057Y1069401D02*
D03*
X113379Y1087079D02*
D03*
X109844Y1090615D02*
D03*
X120450Y1080008D02*
D03*
X116915Y1083543D02*
D03*
X152270Y1048188D02*
D03*
X148735Y1051724D02*
D03*
X159341Y1041117D02*
D03*
X155806Y1044653D02*
D03*
X141664Y1058795D02*
D03*
X138128Y1062330D02*
D03*
X145199Y1055259D02*
D03*
X187626Y52773D02*
D03*
X184090Y56308D02*
D03*
X180555Y59844D02*
D03*
X177019Y63379D02*
D03*
X173484Y66915D02*
D03*
X169948Y70451D02*
D03*
X166412Y73986D02*
D03*
X162877Y77522D02*
D03*
X159341Y81057D02*
D03*
X155806Y84593D02*
D03*
X152270Y88128D02*
D03*
X148735Y91664D02*
D03*
X145199Y95199D02*
D03*
X141664Y98735D02*
D03*
X138128Y102270D02*
D03*
X134593Y105806D02*
D03*
X131057Y109341D02*
D03*
X127522Y112877D02*
D03*
X123986Y116412D02*
D03*
X120450Y119948D02*
D03*
X116915Y123483D02*
D03*
X113379Y127019D02*
D03*
X109844Y130555D02*
D03*
X106308Y134090D02*
D03*
X102773Y137626D02*
D03*
X212374Y247227D02*
D03*
X215910Y243692D02*
D03*
X219445Y240156D02*
D03*
X222981Y236621D02*
D03*
X226516Y233085D02*
D03*
X230052Y229550D02*
D03*
X233588Y226014D02*
D03*
X237123Y222478D02*
D03*
X240659Y218943D02*
D03*
X244194Y215407D02*
D03*
X247730Y211872D02*
D03*
X251265Y208336D02*
D03*
X254801Y204801D02*
D03*
X258336Y201265D02*
D03*
X261872Y197730D02*
D03*
X265407Y194194D02*
D03*
X268943Y190659D02*
D03*
X272478Y187123D02*
D03*
X276014Y183588D02*
D03*
X279550Y180052D02*
D03*
X283085Y176516D02*
D03*
X286621Y172981D02*
D03*
X290156Y169445D02*
D03*
X293692Y165910D02*
D03*
X297227Y162374D02*
D03*
D102*
Y1097686D02*
D03*
X293692Y1094150D02*
D03*
X290156Y1090615D02*
D03*
X286621Y1087079D02*
D03*
X283085Y1083543D02*
D03*
X279550Y1080008D02*
D03*
X276014Y1076472D02*
D03*
X272478Y1072937D02*
D03*
X268943Y1069401D02*
D03*
X265407Y1065866D02*
D03*
X261872Y1062330D02*
D03*
X258336Y1058795D02*
D03*
X254801Y1055259D02*
D03*
X251265Y1051724D02*
D03*
X247730Y1048188D02*
D03*
X244194Y1044653D02*
D03*
X240659Y1041117D02*
D03*
X237123Y1037582D02*
D03*
X233588Y1034046D02*
D03*
X230052Y1030510D02*
D03*
X226516Y1026975D02*
D03*
X222981Y1023439D02*
D03*
X219445Y1019904D02*
D03*
X215910Y1016368D02*
D03*
X212374Y1012833D02*
D03*
X187626Y1207287D02*
D03*
X184090Y1203752D02*
D03*
X180555Y1200216D02*
D03*
X177019Y1196681D02*
D03*
X173484Y1193145D02*
D03*
X169948Y1189610D02*
D03*
X166412Y1186074D02*
D03*
X162877Y1182539D02*
D03*
X159341Y1179003D02*
D03*
X155806Y1175467D02*
D03*
X152270Y1171932D02*
D03*
X148735Y1168396D02*
D03*
X145199Y1164861D02*
D03*
X141664Y1161325D02*
D03*
X138128Y1157790D02*
D03*
X134593Y1154254D02*
D03*
X131057Y1150719D02*
D03*
X127522Y1147183D02*
D03*
X123986Y1143648D02*
D03*
X120450Y1140112D02*
D03*
X116915Y1136577D02*
D03*
X113379Y1133041D02*
D03*
X109844Y1129505D02*
D03*
X106308Y1125970D02*
D03*
X102773Y1122434D02*
D03*
X297227Y137626D02*
D03*
X293692Y134090D02*
D03*
X290156Y130555D02*
D03*
X286621Y127019D02*
D03*
X283085Y123483D02*
D03*
X279550Y119948D02*
D03*
X276014Y116412D02*
D03*
X272478Y112877D02*
D03*
X268943Y109341D02*
D03*
X265407Y105806D02*
D03*
X261872Y102270D02*
D03*
X258336Y98735D02*
D03*
X254801Y95199D02*
D03*
X251265Y91664D02*
D03*
X247730Y88128D02*
D03*
X244194Y84593D02*
D03*
X240659Y81057D02*
D03*
X237123Y77522D02*
D03*
X233588Y73986D02*
D03*
X230052Y70451D02*
D03*
X226516Y66915D02*
D03*
X222981Y63379D02*
D03*
X219445Y59844D02*
D03*
X215910Y56308D02*
D03*
X212374Y52773D02*
D03*
X102773Y162374D02*
D03*
X106308Y165910D02*
D03*
X109844Y169445D02*
D03*
X113379Y172981D02*
D03*
X116915Y176516D02*
D03*
X120450Y180052D02*
D03*
X123986Y183588D02*
D03*
X127522Y187123D02*
D03*
X131057Y190659D02*
D03*
X134593Y194194D02*
D03*
X138128Y197730D02*
D03*
X141664Y201265D02*
D03*
X145199Y204801D02*
D03*
X148735Y208336D02*
D03*
X152270Y211872D02*
D03*
X155806Y215407D02*
D03*
X159341Y218943D02*
D03*
X162877Y222478D02*
D03*
X166412Y226014D02*
D03*
X169948Y229550D02*
D03*
X173484Y233085D02*
D03*
X177019Y236621D02*
D03*
X180555Y240156D02*
D03*
X184090Y243692D02*
D03*
X187626Y247227D02*
D03*
D103*
X244750Y570000D02*
D03*
Y546000D02*
D03*
X279000Y570000D02*
D03*
Y546000D02*
D03*
X469000Y1204950D02*
D03*
Y1228950D02*
D03*
X313250Y570000D02*
D03*
Y546000D02*
D03*
X244750Y592000D02*
D03*
Y616000D02*
D03*
X279000Y592000D02*
D03*
Y616000D02*
D03*
X313250Y592000D02*
D03*
Y616000D02*
D03*
D104*
X322303Y1029697D02*
D03*
X311697Y1040303D02*
D03*
D105*
X323447Y988197D02*
D03*
X334053Y998803D02*
D03*
X284749Y1198607D02*
D03*
X274142Y1188000D02*
D03*
D106*
X297071Y1073071D02*
D03*
X290000Y1066000D02*
D03*
X96750Y1139250D02*
D03*
X89679Y1132179D02*
D03*
X305500Y177500D02*
D03*
X312571Y184571D02*
D03*
X297000Y186000D02*
D03*
X304071Y193071D02*
D03*
X122070Y73787D02*
D03*
X129141Y80859D02*
D03*
X161821Y37071D02*
D03*
X154750Y30000D02*
D03*
X124929Y207929D02*
D03*
X132000Y215000D02*
D03*
X279071Y96071D02*
D03*
X272000Y89000D02*
D03*
X313750Y169750D02*
D03*
X320821Y176821D02*
D03*
D107*
X121000Y1168000D02*
D03*
X108272Y1180728D02*
D03*
X92009Y1164464D02*
D03*
X104737Y1151737D02*
D03*
D108*
X143536Y41009D02*
D03*
X156264Y53737D02*
D03*
X140000Y70000D02*
D03*
X127272Y57272D02*
D03*
D109*
X212900Y757750D02*
D03*
X237600Y748250D02*
D03*
Y767250D02*
D03*
X212900Y722250D02*
D03*
X237600Y712750D02*
D03*
Y731750D02*
D03*
X147650Y389800D02*
D03*
X172350Y380300D02*
D03*
Y399300D02*
D03*
X212900Y686750D02*
D03*
X237600Y677250D02*
D03*
Y696250D02*
D03*
X147650Y354300D02*
D03*
X172350Y344800D02*
D03*
Y363800D02*
D03*
X147400Y314050D02*
D03*
X172100Y304550D02*
D03*
Y323550D02*
D03*
D110*
X257789Y1231860D02*
D03*
X235161Y1209232D02*
D03*
D111*
X188393Y29393D02*
D03*
X194050Y23736D02*
D03*
X199707Y18079D02*
D03*
X205364Y12422D02*
D03*
X199000Y40000D02*
D03*
X204657Y34343D02*
D03*
X210314Y28686D02*
D03*
X215971Y23029D02*
D03*
D112*
X144000Y1194000D02*
D03*
X133393Y1204607D02*
D03*
X155000Y1205000D02*
D03*
X144393Y1215607D02*
D03*
X126000Y36044D02*
D03*
X115393Y46651D02*
D03*
D113*
X248161Y1196232D02*
D03*
X258768Y1206839D02*
D03*
X85947Y1183447D02*
D03*
X96553Y1194053D02*
D03*
X97393Y97393D02*
D03*
X108000Y108000D02*
D03*
X108393Y86393D02*
D03*
X119000Y97000D02*
D03*
D114*
X276093Y323400D02*
D03*
X253093D02*
D03*
X230093D02*
D03*
D115*
X253093Y381900D02*
D03*
D116*
X75750Y869000D02*
D03*
Y864000D02*
D03*
Y859000D02*
D03*
Y854000D02*
D03*
Y849000D02*
D03*
Y844000D02*
D03*
X35750D02*
D03*
Y849000D02*
D03*
Y854000D02*
D03*
Y859000D02*
D03*
Y864000D02*
D03*
Y869000D02*
D03*
Y396000D02*
D03*
Y401000D02*
D03*
Y406000D02*
D03*
Y411000D02*
D03*
Y416000D02*
D03*
Y421000D02*
D03*
X75750D02*
D03*
Y416000D02*
D03*
Y411000D02*
D03*
Y406000D02*
D03*
Y401000D02*
D03*
Y396000D02*
D03*
D117*
X68250Y836500D02*
D03*
X63250D02*
D03*
X58250D02*
D03*
X53250D02*
D03*
X48250D02*
D03*
X43250D02*
D03*
Y876500D02*
D03*
X48250D02*
D03*
X53250D02*
D03*
X58250D02*
D03*
X63250D02*
D03*
X68250D02*
D03*
Y388500D02*
D03*
X63250D02*
D03*
X58250D02*
D03*
X53250D02*
D03*
X48250D02*
D03*
X43250D02*
D03*
Y428500D02*
D03*
X48250D02*
D03*
X53250D02*
D03*
X58250D02*
D03*
X63250D02*
D03*
X68250D02*
D03*
D118*
X55750Y856500D02*
D03*
D119*
Y408500D02*
D03*
M02*
